<svg id="Group_29" data-name="Group 29" xmlns="http://www.w3.org/2000/svg" width="468.671" height="278.48" viewBox="0 0 468.671 278.48">
  <g id="Group_6" data-name="Group 6" transform="translate(0 0)">
    <g id="Group_5" data-name="Group 5">
      <path id="Path_1" data-name="Path 1" d="M162.936,233.157H124.091c-20.907,0-38.011,16.595-38.011,36.876h0c0,20.282,17.1,36.876,38.011,36.876H452.547c33.854,0,61.552-26.871,61.552-59.713h0c0-32.842-27.7-59.712-61.551-59.712h0c-14.314,0-26.025-11.361-26.025-25.248h0c0-13.886,11.712-25.248,26.026-25.248h31.322c14.881,0,27.057-11.812,27.057-26.249h0c0-14.438-12.176-26.25-27.057-26.25H444.262a10.412,10.412,0,0,1-10.534-10.22h0A10.411,10.411,0,0,1,444.262,64.05h6.983A7.186,7.186,0,0,0,458.514,57h0a7.185,7.185,0,0,0-7.269-7.053H405.43C395.782,49.944,394.707,61,370.335,61H300.112a9.376,9.376,0,0,0-9.487,9.2h0a9.377,9.377,0,0,0,9.487,9.2h9.11a13.585,13.585,0,0,1,13.746,13.334h0a13.585,13.585,0,0,1-13.746,13.335h-13.71c-37.023,0-42.253,9.387-48.737,28.056s-40.162,20.174-40.162,20.174H160.565c-11.392,0-20.714,9.043-20.714,20.1h0c0,11.052,9.321,20.1,20.714,20.1h2.372c10.957,0,19.923,8.7,19.923,19.329h0c0,10.63-8.966,19.328-19.923,19.328ZM471.646,64.05A7.056,7.056,0,1,1,478.916,57,7.165,7.165,0,0,1,471.646,64.05Z" transform="translate(-56.2 -49.944)" fill="#e2e8f5" fill-rule="evenodd"/>
      <g id="Group_1" data-name="Group 1" transform="translate(46.617)">
        <path id="Path_2" data-name="Path 2" d="M197.735,352.452h3.328V332.846l12.617,12.24-7.593,7.366h3.137l6.024-5.845,6.024,5.845h3.137l-7.593-7.366,12.617-12.24v19.606h3.328v-152.6h-3.328v3.717l-3.832-3.717h-3.137l6.969,6.76v.185l-14.185,13.761L201.063,206.8v-.185l6.968-6.76h-3.137l-3.831,3.717v-3.717h-3.328v40.455a20.258,20.258,0,0,1,3.328.834v-.549l.915.888a19.819,19.819,0,0,1,10.929,10.6l.773.749-.35.34a18.433,18.433,0,0,1,.667,2.4l1.252-1.213,14.185,13.761v.185l-14.185,13.762-8.075-7.834a20.078,20.078,0,0,1-1.8,1.3l8.308,8.059-12.617,12.24V277.6a20.189,20.189,0,0,1-3.328.833v74.016Zm3.328-25.878V302.094l12.617,12.24-12.617,12.239Zm0-92.254v-24.48L213.68,222.08l-12.617,12.239Zm28.37-24.48v24.48L216.817,222.08l12.617-12.241Zm0,30.752v24.48l-12.617-12.24,12.617-12.24Zm0,30.752v24.479l-12.617-12.24,12.617-12.239Zm0,30.751v24.479l-12.617-12.239,12.617-12.24Zm-28.37-64.732L215.248,223.6l14.185,13.761v.185L215.248,251.31l-14.185-13.762v-.185Zm0,61.5L215.248,285.1l14.185,13.761v.186l-14.185,13.761-14.185-13.761v-.186Zm0,30.752,14.185-13.761,14.185,13.761v.186l-14.185,13.76L201.063,329.8Z" transform="translate(-134.346 -95.486)" fill="#bfcce8" fill-rule="evenodd"/>
        <path id="Path_3" data-name="Path 3" d="M522.053,306.91h3.327V287.3L538,299.544,530.4,306.91h3.137l6.025-5.845,6.025,5.845h3.137l-7.593-7.366,12.617-12.24V306.91h3.328V179.873a25.671,25.671,0,0,1-3.328-4.045v12.949l-12.617-12.239,9.115-8.842a24.257,24.257,0,0,1-.451-2.607l-10.233,9.927L525.38,161.255v-.185l14.185-13.762,10.525,10.211a24.923,24.923,0,0,1,.615-2.447l-9.571-9.285,12.617-12.24v15.1a25.669,25.669,0,0,1,3.328-4.045V76.446a9.908,9.908,0,0,1-.243-2.176h0a9.907,9.907,0,0,1,.243-2.176V49.944h-3.328V65.771l-12.617-12.24,3.7-3.588H541.7l-2.13,2.066-2.129-2.066H534.3l3.7,3.588L525.38,65.771V50.385a14.52,14.52,0,0,0-3.327,1.493V306.91Zm3.327-25.878V256.552L538,268.792,525.38,281.032Zm0-30.751V225.8L538,238.041,525.38,250.28Zm0-30.751v-24.48L538,207.289l-12.617,12.24Zm0-30.752V164.3L538,176.538,525.38,188.777Zm0-30.751v-24.48L538,145.786l-12.617,12.24Zm0-30.752v-24.48L538,115.035,525.38,127.274Zm0-30.751V72.043L538,84.283,525.38,96.523Zm28.371-24.48v24.48L541.134,84.283l12.617-12.239Zm0,30.751v24.48l-12.617-12.239,12.617-12.241Zm0,92.255v24.48l-12.617-12.24,12.617-12.24Zm0,30.752V250.28l-12.617-12.24L553.751,225.8Zm0,30.751v24.479l-12.617-12.239,12.617-12.24ZM525.38,68.815l14.185-13.761,14.185,13.761V69L539.565,82.761,525.38,69v-.185Zm0,30.752L539.565,85.8l14.185,13.762v.185l-14.185,13.761L525.38,99.752v-.185Zm0,30.751,14.185-13.761,14.185,13.761v.185l-14.185,13.762L525.38,130.5v-.185Zm0,61.5,14.185-13.761,14.185,13.761v.185l-14.185,13.763L525.38,192.006v-.185Zm0,30.752,14.185-13.761,14.185,13.761v.185l-14.185,13.762L525.38,222.758v-.185Zm0,30.751,14.185-13.761,14.185,13.761v.186l-14.185,13.761L525.38,253.509v-.186Zm0,30.752,14.185-13.761,14.185,13.761v.186l-14.185,13.76-14.185-13.76Z" transform="translate(-225.925 -49.944)" fill="#bfcce8" fill-rule="evenodd"/>
        <path id="Path_4" data-name="Path 4" d="M161.013,279.094h-4.9v5.832l-6.012-5.832h-4.622l10.634,10.317v.272l-20.9,20.277-20.9-20.277v-.272l10.112-9.809a38.5,38.5,0,0,0-6.22,1.549l-3.892,3.775v-2.212a38.38,38.38,0,0,0-4.9,2.742v61.031a38.376,38.376,0,0,0,4.9,2.742V339.48l13.682,13.273q1.334.092,2.69.094h2.03L114.306,335v-.273l20.9-20.278,20.9,20.278V335l-18.4,17.851h4.622l13.779-13.367v13.367h4.9V279.094Zm0-77.942a20.789,20.789,0,0,0-11.666,8.953l6.762-6.56v33.777a20.948,20.948,0,0,0,4.9,2.21V201.152ZM114.306,330.239v-36.07L132.9,312.2l-18.591,18.036Zm41.8-36.07v36.07L137.519,312.2Z" transform="translate(-109.403 -95.881)" fill="#bfcce8" fill-rule="evenodd"/>
        <path id="Path_5" data-name="Path 5" d="M587.275,306.91h4.9V293.543l12.8,12.421q1.923-.338,3.8-.794l-16.607-16.111v-.273l20.9-20.278,20.9,20.278v.273l-11.293,10.956a61.987,61.987,0,0,0,16.2-11.995V206.375a61.8,61.8,0,0,0-6.825-6.075l-18.98,18.412-20.9-20.277v-.272l10.41-10.1q-2.07-.28-4.181-.427l-6.229,6.042v-6.262a26.576,26.576,0,0,1-4.9-.812V306.91Zm0-169.041a26.579,26.579,0,0,1,4.9-.814V112.3l18.59,18.036-6.861,6.656h4.622l4.55-4.415,4.55,4.415h4.623l-6.861-6.656L633.981,112.3v23.328a27.369,27.369,0,0,0,4.9-2.156V88.009a27.37,27.37,0,0,0-4.9-2.156v17.2L615.392,85.02l.548-.531h-5.718l.548.531-18.59,18.034V84.489h-4.9v53.38Zm0-73.819h5.493a7.456,7.456,0,0,0,.946-.061L592.179,62.5v-.273l7.534-7.31a7.025,7.025,0,0,0-1.722-2.813l-5.812,5.64v-7.8h-4.9V64.05Zm4.9,220.251v-36.07l18.59,18.034L592.179,284.3Zm0-45.312V202.92l18.59,18.034-18.59,18.035Zm41.8-36.069v36.069l-18.589-18.035,18.589-18.034Zm0,45.311V284.3l-18.589-18.036,18.589-18.034Zm-41.8-140.692,20.9-20.277,20.9,20.277v.273l-20.9,20.277-20.9-20.277v-.273Zm0,135.935,20.9-20.278,20.9,20.278v.272l-20.9,20.277-20.9-20.277Z" transform="translate(-244.342 -49.944)" fill="#bfcce8" fill-rule="evenodd"/>
      </g>
      <g id="Group_4" data-name="Group 4" transform="translate(83.682 198.272)">
        <g id="Group_2" data-name="Group 2" transform="translate(4.886)">
          <rect id="Rectangle_8" data-name="Rectangle 8" width="38.356" height="27.651" rx="3.432" fill="#90a9d5"/>
          <rect id="Rectangle_9" data-name="Rectangle 9" width="38.356" height="27.651" rx="3.432" transform="translate(21.935)" fill="#b6c7e6"/>
          <path id="Rectangle_10" data-name="Rectangle 10" d="M1.96,0H25.6a1.96,1.96,0,0,1,1.96,1.96V7.426A1.961,1.961,0,0,1,25.6,9.387H1.961A1.961,1.961,0,0,1,0,7.426V1.96A1.96,1.96,0,0,1,1.96,0Z" transform="translate(27.331 9.132)" fill="#90a9d5"/>
          <path id="Rectangle_11" data-name="Rectangle 11" d="M.428,0h11.93a.428.428,0,0,1,.428.428V1.62a.428.428,0,0,1-.428.428H.427A.427.427,0,0,1,0,1.621V.428A.428.428,0,0,1,.428,0Z" transform="translate(30.204 10.725)" fill="#e6e4eb"/>
          <path id="Rectangle_12" data-name="Rectangle 12" d="M.427,0H6.2a.428.428,0,0,1,.428.428V1.62a.428.428,0,0,1-.428.428H.428A.428.428,0,0,1,0,1.62V.427A.427.427,0,0,1,.427,0Z" transform="translate(30.204 13.969)" fill="#e6e4eb"/>
        </g>
        <g id="Group_3" data-name="Group 3" transform="translate(0 27.651)">
          <path id="Rectangle_13" data-name="Rectangle 13" d="M4.113,0H41.85a4.114,4.114,0,0,1,4.114,4.114V29.023a4.114,4.114,0,0,1-4.114,4.114H4.113A4.113,4.113,0,0,1,0,29.024V4.113A4.113,4.113,0,0,1,4.113,0Z" transform="translate(26.284)" fill="#90a9d5"/>
          <path id="Rectangle_14" data-name="Rectangle 14" d="M4.113,0H41.851a4.113,4.113,0,0,1,4.113,4.113v24.91a4.114,4.114,0,0,1-4.114,4.114H4.113A4.113,4.113,0,0,1,0,29.024V4.113A4.113,4.113,0,0,1,4.113,0Z" fill="#b6c7e6"/>
          <rect id="Rectangle_15" data-name="Rectangle 15" width="33.031" height="11.248" rx="2.349" transform="translate(6.466 10.945)" fill="#90a9d5"/>
          <rect id="Rectangle_16" data-name="Rectangle 16" width="15.32" height="2.455" rx="0.513" transform="translate(20.733 12.853)" fill="#e6e4eb"/>
          <rect id="Rectangle_17" data-name="Rectangle 17" width="7.941" height="2.455" rx="0.513" transform="translate(28.113 16.739)" fill="#e6e4eb"/>
        </g>
      </g>
      <path id="Path_6" data-name="Path 6" d="M450.833,153.369a10.856,10.856,0,0,1,3.51-2.276,11.127,11.127,0,0,1,8.259,0,10.843,10.843,0,0,1,3.51,2.275,10.465,10.465,0,0,1,2.345,3.405,10.2,10.2,0,0,1,0,8.013,10.476,10.476,0,0,1-2.345,3.405,10.822,10.822,0,0,1-3.508,2.274,11.121,11.121,0,0,1-8.261,0,10.842,10.842,0,0,1-3.51-2.275,10.479,10.479,0,0,1-2.346-3.405,10.21,10.21,0,0,1,0-8.013,10.479,10.479,0,0,1,2.346-3.405Zm3.889-1.381a9.849,9.849,0,0,0-3.181,2.067,9.526,9.526,0,0,0-2.131,3.086,9.31,9.31,0,0,0,0,7.277,9.518,9.518,0,0,0,2.131,3.086,9.836,9.836,0,0,0,3.181,2.066,10.134,10.134,0,0,0,7.5,0,9.833,9.833,0,0,0,3.184-2.066,9.515,9.515,0,0,0,2.129-3.086,9.3,9.3,0,0,0,0-7.277,9.522,9.522,0,0,0-2.129-3.086,9.847,9.847,0,0,0-3.182-2.066,10.135,10.135,0,0,0-7.5,0Zm-1.194-7.712a17.81,17.81,0,0,0-7.351,4.136,1.151,1.151,0,0,1-.647.3,1.163,1.163,0,0,1-.7-.141c-1.587-.888-3.254-1.768-4.809-2.694a.671.671,0,0,0-.234-.07.75.75,0,0,0-.265.02.722.722,0,0,0-.244.115.685.685,0,0,0-.174.194c-1.157,1.7-2.317,3.892-3.389,5.692a.646.646,0,0,0-.085.242.672.672,0,0,0,.338.671c1.427.915,3.267,1.832,4.779,2.679a1.1,1.1,0,0,1,.477.519,1.075,1.075,0,0,1,.072.229l.1.032-.111.432c-.087.34-.162.681-.227,1.019s-.116.675-.162,1.035-.077.7-.1,1.042-.032.688-.032,1.054.01.718.032,1.053.054.693.1,1.044.1.7.162,1.033.141.679.227,1.02a1.06,1.06,0,0,1-.071.723,1.11,1.11,0,0,1-.511.515l-4.233,2.371v0l-.5.28a.658.658,0,0,0-.317.406.67.67,0,0,0-.021.265.641.641,0,0,0,.085.242L438.844,175h0l.253.425a.676.676,0,0,0,.174.194.722.722,0,0,0,.244.115.731.731,0,0,0,.271.019.689.689,0,0,0,.248-.081c1.516-.924,3.226-1.807,4.79-2.682a1.165,1.165,0,0,1,.7-.139,1.142,1.142,0,0,1,.647.3h0a17.618,17.618,0,0,0,1.646,1.363,17.81,17.81,0,0,0,5.752,2.786,1.133,1.133,0,0,1,.594.395,1.088,1.088,0,0,1,.228.663l0,5.358a.631.631,0,0,0,.051.251.676.676,0,0,0,.151.217.684.684,0,0,0,.483.2h6.777a.689.689,0,0,0,.259-.05.713.713,0,0,0,.224-.146.7.7,0,0,0,.15-.217.631.631,0,0,0,.051-.251v-5.358a1.07,1.07,0,0,1,.246-.68,1.136,1.136,0,0,1,.626-.391,17.6,17.6,0,0,0,1.991-.688,17.74,17.74,0,0,0,3.714-2.085,17.6,17.6,0,0,0,1.646-1.362,1.147,1.147,0,0,1,.681-.3,1.162,1.162,0,0,1,.727.177l4.728,2.648a.668.668,0,0,0,.251.081.737.737,0,0,0,.272-.019.707.707,0,0,0,.243-.115.68.68,0,0,0,.175-.194c1.123-1.9,2.264-3.793,3.389-5.693a.627.627,0,0,0,.084-.242.66.66,0,0,0-.02-.264.673.673,0,0,0-.118-.236.645.645,0,0,0-.2-.17l-4.784-2.679a1.089,1.089,0,0,1-.537-.7l-.124-.024.125-.492c.088-.34.163-.68.228-1.019s.116-.675.161-1.035.077-.7.1-1.044.031-.687.031-1.053-.011-.717-.031-1.053-.055-.691-.1-1.042-.1-.71-.161-1.037-.14-.677-.228-1.017a1.07,1.07,0,0,1,.073-.725,1.118,1.118,0,0,1,.509-.512l4.738-2.653a.639.639,0,0,0,.2-.169.653.653,0,0,0,.118-.237.66.66,0,0,0,.02-.264.627.627,0,0,0-.084-.242c-1.157-1.669-2.315-3.9-3.389-5.693a.689.689,0,0,0-.175-.194.719.719,0,0,0-.243-.115.751.751,0,0,0-.272-.02.682.682,0,0,0-.25.083l-4.786,2.68a1.152,1.152,0,0,1-1.364-.171,17.845,17.845,0,0,0-7.384-4.135,1.136,1.136,0,0,1-.594-.395,1.077,1.077,0,0,1-.228-.663l0-5.358a.65.65,0,0,0-.05-.252.7.7,0,0,0-.375-.362.688.688,0,0,0-.259-.049h-6.777a.685.685,0,0,0-.484.195.659.659,0,0,0-.2.469v5.358a1.075,1.075,0,0,1-.243.68,1.15,1.15,0,0,1-.629.39Zm-2.383-.2a18.99,18.99,0,0,0-2.021.98,18.739,18.739,0,0,0-3.64,2.661.131.131,0,0,1-.076.034.135.135,0,0,1-.083-.015q-2.413-1.351-4.828-2.7a1.694,1.694,0,0,0-.6-.184,1.767,1.767,0,0,0-.635.046,1.716,1.716,0,0,0-.591.282,1.609,1.609,0,0,0-.433.478c-1.166,1.832-2.274,3.817-3.389,5.691a1.609,1.609,0,0,0,.125,1.816,1.627,1.627,0,0,0,.493.42c1.539.922,3.209,1.8,4.782,2.68a.125.125,0,0,1,.055.061.123.123,0,0,1,.008.081l-.11.433.006,0q-.072.315-.133.641-.106.558-.173,1.1t-.1,1.1q-.035.568-.035,1.11t.035,1.11c.024.378.058.746.1,1.1s.1.723.173,1.094.151.728.238,1.076a.117.117,0,0,1-.009.084.131.131,0,0,1-.059.063c-1.757.911-3.542,1.982-5.28,2.955l.062.075-.054.065a1.623,1.623,0,0,0-.29.573,1.6,1.6,0,0,0-.044.638,1.575,1.575,0,0,0,.21.6l3.641,6.118.067-.039c.037.031.075.062.113.09a1.716,1.716,0,0,0,.591.282,1.765,1.765,0,0,0,.655.042,1.718,1.718,0,0,0,.608-.194c1.592-.819,3.233-1.811,4.805-2.692a.145.145,0,0,1,.08-.013.147.147,0,0,1,.079.035,18.553,18.553,0,0,0,1.735,1.437,18.935,18.935,0,0,0,6.08,2.945.14.14,0,0,1,.07.046.118.118,0,0,1,.027.079v5.358a1.587,1.587,0,0,0,.129.623,1.637,1.637,0,0,0,.367.531,1.711,1.711,0,0,0,1.189.48h6.777a1.715,1.715,0,0,0,1.19-.48,1.656,1.656,0,0,0,.366-.531,1.588,1.588,0,0,0,.129-.623v-5.358a.125.125,0,0,1,.027-.081.136.136,0,0,1,.075-.045l.022-.008a18.789,18.789,0,0,0,6.054-2.937,18.688,18.688,0,0,0,1.737-1.438.128.128,0,0,1,.078-.036.145.145,0,0,1,.087.021l4.782,2.678a1.694,1.694,0,0,0,.621.2,1.758,1.758,0,0,0,.656-.042,1.726,1.726,0,0,0,.591-.282,1.644,1.644,0,0,0,.425-.464c1.257-1.96,2.444-4.108,3.642-6.12l-.065-.038a1.378,1.378,0,0,0,.029-.155,1.6,1.6,0,0,0-.335-1.209,1.635,1.635,0,0,0-.491-.42L476.7,165.3a.126.126,0,0,1-.054-.06.132.132,0,0,1-.008-.084l.124-.491h-.007c.043-.191.083-.385.121-.581.07-.371.129-.737.173-1.1s.08-.723.1-1.1.036-.748.036-1.11-.012-.731-.036-1.11-.057-.745-.1-1.1-.1-.72-.173-1.094-.15-.727-.238-1.074a.128.128,0,0,1,.07-.147l4.777-2.676a1.611,1.611,0,0,0,.624-2.219c-1.139-2.046-2.444-4.109-3.649-6.133l-.068.039c-.036-.032-.074-.062-.112-.091a1.726,1.726,0,0,0-.591-.282,1.766,1.766,0,0,0-.655-.042,1.7,1.7,0,0,0-.622.2l-.354.2v0l-4.436,2.484a.135.135,0,0,1-.161-.02l-.012-.011a18.879,18.879,0,0,0-3.625-2.648,18.894,18.894,0,0,0-4.178-1.722.129.129,0,0,1-.069-.046.112.112,0,0,1-.027-.079v-5.358a1.585,1.585,0,0,0-.129-.623,1.629,1.629,0,0,0-.368-.531,1.705,1.705,0,0,0-1.188-.48h-6.777a1.709,1.709,0,0,0-.643.125,1.74,1.74,0,0,0-.548.355,1.607,1.607,0,0,0-.5,1.154v5.358a.14.14,0,0,1-.027.082.138.138,0,0,1-.075.044l-.022.008A19.2,19.2,0,0,0,451.145,144.072Z" transform="translate(-154.619 -76.153)" fill="#bfcce8" fill-rule="evenodd"/>
      <path id="Path_7" data-name="Path 7" d="M60.652,228.851a10.852,10.852,0,0,1,3.509-2.274,11.117,11.117,0,0,1,8.261,0,10.863,10.863,0,0,1,3.51,2.274,10.481,10.481,0,0,1,2.344,3.406,10.2,10.2,0,0,1,0,8.013,10.472,10.472,0,0,1-2.344,3.405,10.852,10.852,0,0,1-3.508,2.275,11.128,11.128,0,0,1-8.261,0,10.85,10.85,0,0,1-3.51-2.275,10.489,10.489,0,0,1-2.345-3.4,10.2,10.2,0,0,1,0-8.013,10.494,10.494,0,0,1,2.345-3.406Zm3.889-1.38a9.846,9.846,0,0,0-3.181,2.067,9.513,9.513,0,0,0-2.13,3.086,9.3,9.3,0,0,0,0,7.278,9.518,9.518,0,0,0,2.13,3.086,9.843,9.843,0,0,0,3.181,2.066,10.125,10.125,0,0,0,7.5,0,9.811,9.811,0,0,0,3.183-2.066,9.515,9.515,0,0,0,2.131-3.086,9.309,9.309,0,0,0,0-7.277,9.515,9.515,0,0,0-2.131-3.086,9.838,9.838,0,0,0-3.181-2.067,10.14,10.14,0,0,0-7.5,0Zm-1.194-7.712a17.885,17.885,0,0,0-1.991.689,17.676,17.676,0,0,0-1.912.927,17.861,17.861,0,0,0-1.8,1.158A17.61,17.61,0,0,0,56,223.895a1.145,1.145,0,0,1-.647.3,1.165,1.165,0,0,1-.7-.141c-1.586-.888-3.254-1.768-4.809-2.694a.667.667,0,0,0-.233-.07.739.739,0,0,0-.266.019.72.72,0,0,0-.243.115.668.668,0,0,0-.175.194c-1.157,1.7-2.317,3.892-3.389,5.692a.646.646,0,0,0-.085.242.682.682,0,0,0,.021.265.657.657,0,0,0,.118.236.677.677,0,0,0,.2.17c1.427.915,3.266,1.832,4.779,2.679a1.1,1.1,0,0,1,.477.519,1.064,1.064,0,0,1,.071.228l.1.033-.111.432q-.129.511-.227,1.019c-.062.329-.116.675-.161,1.035s-.078.7-.1,1.042-.032.688-.032,1.054.011.718.032,1.053.055.692.1,1.044.1.7.161,1.033.14.679.227,1.019a1.06,1.06,0,0,1-.072.723,1.109,1.109,0,0,1-.512.516l-4.233,2.371h0l-.5.281a.691.691,0,0,0-.2.17.673.673,0,0,0-.118.236.682.682,0,0,0-.021.265.654.654,0,0,0,.085.242l3.134,5.266h0l.253.426a.666.666,0,0,0,.175.193.708.708,0,0,0,.243.116.737.737,0,0,0,.272.019.673.673,0,0,0,.248-.082c1.516-.924,3.226-1.806,4.791-2.681a1.164,1.164,0,0,1,.7-.14,1.151,1.151,0,0,1,.647.3l0,0a17.794,17.794,0,0,0,7.4,4.149,1.136,1.136,0,0,1,.593.394,1.085,1.085,0,0,1,.228.663l0,5.358a.63.63,0,0,0,.051.251.683.683,0,0,0,.151.217.674.674,0,0,0,.483.2H71.68a.708.708,0,0,0,.26-.049.728.728,0,0,0,.223-.146.713.713,0,0,0,.15-.218.63.63,0,0,0,.052-.251v-5.358a1.074,1.074,0,0,1,.245-.68,1.131,1.131,0,0,1,.626-.39,17.822,17.822,0,0,0,7.351-4.136,1.145,1.145,0,0,1,.68-.3,1.165,1.165,0,0,1,.727.176l4.728,2.649a.678.678,0,0,0,.25.081.741.741,0,0,0,.273-.019.7.7,0,0,0,.243-.116.656.656,0,0,0,.175-.193c1.123-1.9,2.264-3.793,3.389-5.693a.652.652,0,0,0,.085-.243.672.672,0,0,0-.021-.263.654.654,0,0,0-.118-.237.646.646,0,0,0-.2-.169l-4.784-2.679a1.1,1.1,0,0,1-.477-.519,1,1,0,0,1-.06-.178l-.125-.024.126-.491c.086-.34.162-.68.227-1.019s.116-.675.161-1.034.078-.7.1-1.044.032-.686.032-1.053-.011-.717-.032-1.053-.055-.692-.1-1.042-.1-.71-.161-1.038-.14-.677-.227-1.016a1.061,1.061,0,0,1,.072-.725,1.122,1.122,0,0,1,.509-.512l4.737-2.653a.637.637,0,0,0,.2-.17.645.645,0,0,0,.118-.236.675.675,0,0,0,.021-.264.649.649,0,0,0-.085-.242c-1.157-1.669-2.315-3.9-3.389-5.693a.668.668,0,0,0-.175-.194.713.713,0,0,0-.243-.115.752.752,0,0,0-.272-.019.685.685,0,0,0-.25.083l-4.786,2.68a1.156,1.156,0,0,1-1.364-.171,17.82,17.82,0,0,0-7.385-4.136,1.132,1.132,0,0,1-.593-.395,1.077,1.077,0,0,1-.228-.662l0-5.359a.637.637,0,0,0-.052-.252.676.676,0,0,0-.151-.216.683.683,0,0,0-.222-.146.7.7,0,0,0-.26-.049H64.9a.689.689,0,0,0-.484.195.658.658,0,0,0-.2.469v5.359a1.079,1.079,0,0,1-.243.68,1.151,1.151,0,0,1-.629.389Zm-2.383-.2a18.838,18.838,0,0,0-3.925,2.2A18.677,18.677,0,0,0,55.3,223.2a.132.132,0,0,1-.075.035.143.143,0,0,1-.083-.016q-2.413-1.351-4.827-2.7a1.708,1.708,0,0,0-.6-.184,1.754,1.754,0,0,0-.635.046,1.729,1.729,0,0,0-.591.282,1.627,1.627,0,0,0-.433.478c-1.166,1.832-2.273,3.817-3.389,5.691a1.6,1.6,0,0,0-.166,1.243,1.638,1.638,0,0,0,.784.993c1.539.922,3.209,1.8,4.783,2.68a.125.125,0,0,1,.054.061.122.122,0,0,1,.008.081l-.111.433.006,0c-.048.21-.092.424-.133.641-.07.371-.128.737-.173,1.1s-.079.722-.1,1.1-.035.749-.035,1.11.012.732.035,1.11.058.746.1,1.1.1.723.173,1.094.151.728.239,1.076a.122.122,0,0,1-.009.084.123.123,0,0,1-.059.062c-1.757.911-3.542,1.982-5.28,2.956l.062.076-.053.065a1.625,1.625,0,0,0-.291.573,1.594,1.594,0,0,0-.044.637,1.567,1.567,0,0,0,.21.6l3.641,6.118.067-.04c.037.032.074.063.113.091a1.745,1.745,0,0,0,1.854.131c1.592-.821,3.232-1.812,4.805-2.692a.136.136,0,0,1,.08-.014.143.143,0,0,1,.078.035,18.827,18.827,0,0,0,5.671,3.645,19.019,19.019,0,0,0,2.144.737.137.137,0,0,1,.07.045.121.121,0,0,1,.027.079V259.2a1.572,1.572,0,0,0,.129.623,1.635,1.635,0,0,0,.368.531,1.708,1.708,0,0,0,1.188.48H71.68a1.709,1.709,0,0,0,.642-.125,1.729,1.729,0,0,0,.548-.355,1.64,1.64,0,0,0,.366-.531,1.572,1.572,0,0,0,.129-.623v-5.358a.131.131,0,0,1,.027-.081.138.138,0,0,1,.075-.045l.022-.008a18.744,18.744,0,0,0,7.791-4.375.139.139,0,0,1,.079-.036.144.144,0,0,1,.085.021l4.783,2.68a1.709,1.709,0,0,0,.621.2,1.772,1.772,0,0,0,.656-.042,1.717,1.717,0,0,0,.591-.282,1.636,1.636,0,0,0,.426-.464c1.257-1.961,2.444-4.107,3.643-6.12l-.065-.037c.012-.052.021-.1.028-.155a1.6,1.6,0,0,0-.334-1.208,1.622,1.622,0,0,0-.492-.42l-4.784-2.68a.123.123,0,0,1-.054-.06.136.136,0,0,1-.008-.084l.124-.49-.007,0c.043-.191.083-.384.121-.582.07-.37.128-.737.173-1.094s.079-.723.1-1.1.035-.748.035-1.11-.011-.731-.035-1.11-.057-.745-.1-1.1-.1-.721-.173-1.094-.15-.726-.238-1.074a.134.134,0,0,1,.009-.086.127.127,0,0,1,.061-.061l4.778-2.676a1.622,1.622,0,0,0,.825-1.628,1.594,1.594,0,0,0-.2-.591c-1.139-2.046-2.444-4.109-3.649-6.133l-.067.039c-.037-.032-.074-.063-.113-.091a1.717,1.717,0,0,0-.591-.282,1.767,1.767,0,0,0-.655-.042,1.688,1.688,0,0,0-.621.2l-.354.2v0l-4.437,2.484a.136.136,0,0,1-.161-.02l-.011-.011a18.473,18.473,0,0,0-1.732-1.431,18.69,18.69,0,0,0-1.893-1.217,18.9,18.9,0,0,0-4.177-1.722.138.138,0,0,1-.07-.046.114.114,0,0,1-.027-.078v-5.359a1.578,1.578,0,0,0-.129-.624,1.619,1.619,0,0,0-.368-.531,1.708,1.708,0,0,0-1.188-.48H64.9a1.712,1.712,0,0,0-.643.125,1.738,1.738,0,0,0-.548.355,1.606,1.606,0,0,0-.5,1.154v5.359a.138.138,0,0,1-.027.081.136.136,0,0,1-.074.044l-.022.008A19.021,19.021,0,0,0,60.964,219.555Z" transform="translate(-44.442 -99.084)" fill="#bfcce8" fill-rule="evenodd"/>
      <path id="Path_8" data-name="Path 8" d="M123.748,273.667Zm2.383-8.806a4.685,4.685,0,0,1,6.485,0,4.355,4.355,0,0,1,0,6.292,4.687,4.687,0,0,1-6.485,0,4.356,4.356,0,0,1,0-6.292Zm.991-4.41a8.137,8.137,0,0,0-3.374,1.9.287.287,0,0,1-.336.039l-2.131-1.193-.011-.008a.544.544,0,0,0-.388-.043.525.525,0,0,0-.322.238l-.009.014-1.5,2.52a.5.5,0,0,0-.051.389.508.508,0,0,0,.245.311l.014.008,2.113,1.184a.271.271,0,0,1,.133.3h0a7.733,7.733,0,0,0-.178.941,7.692,7.692,0,0,0,.178,2.857.269.269,0,0,1-.149.31l-2.113,1.184h0a.508.508,0,0,0-.245.312.5.5,0,0,0,.051.389l1.508,2.533h0a.527.527,0,0,0,.322.237.54.54,0,0,0,.4-.049l.017-.008,2.116-1.186a.289.289,0,0,1,.335.04,8.149,8.149,0,0,0,3.386,1.9.274.274,0,0,1,.2.263v2.384a.5.5,0,0,0,.155.361.535.535,0,0,0,.372.151h3.017a.532.532,0,0,0,.372-.151.5.5,0,0,0,.155-.361v-2.384a.275.275,0,0,1,.217-.266,8.156,8.156,0,0,0,3.374-1.9.288.288,0,0,1,.35-.031l2.116,1.185a.542.542,0,0,0,.4.049.525.525,0,0,0,.321-.237l.009-.014,1.5-2.521h0a.5.5,0,0,0,.051-.388.511.511,0,0,0-.244-.311l-2.129-1.193a.271.271,0,0,1-.133-.3h0a7.7,7.7,0,0,0,0-3.8.269.269,0,0,1,.149-.309l2.113-1.184a.51.51,0,0,0,.244-.311.5.5,0,0,0-.051-.388l-.009-.015-1.5-2.519h0a.524.524,0,0,0-.321-.238.539.539,0,0,0-.4.05h0l-2.131,1.193a.287.287,0,0,1-.342-.045,8.156,8.156,0,0,0-3.379-1.893.275.275,0,0,1-.205-.262V257.8a.5.5,0,0,0-.155-.361.534.534,0,0,0-.372-.15h-3.017a.537.537,0,0,0-.372.15.5.5,0,0,0-.155.361v2.385A.275.275,0,0,1,127.122,260.451Z" transform="translate(-65.49 -112.935)" fill="#bfcce8" fill-rule="evenodd"/>
      <path id="Path_9" data-name="Path 9" d="M261.376,173.55a.787.787,0,0,0-1.573,0v1.794h-1.849a.763.763,0,1,0,0,1.526H259.8v1.795a.787.787,0,0,0,1.573,0V176.87h1.849a.763.763,0,1,0,0-1.526h-1.849Z" transform="translate(-104.51 -87.264)" fill="#bfcce8" fill-rule="evenodd"/>
      <path id="Path_10" data-name="Path 10" d="M328.437,95.5Zm2.384-8.806a4.686,4.686,0,0,1,6.485,0,4.355,4.355,0,0,1,0,6.292,4.686,4.686,0,0,1-6.485,0,4.357,4.357,0,0,1,0-6.292Zm.991-4.41a8.154,8.154,0,0,0-3.375,1.9.286.286,0,0,1-.335.04l-2.131-1.193-.012-.007a.542.542,0,0,0-.389-.043.522.522,0,0,0-.32.238l-.009.014-1.5,2.519a.5.5,0,0,0-.052.39.514.514,0,0,0,.245.311l.014.009,2.113,1.184a.268.268,0,0,1,.133.3h0a7.533,7.533,0,0,0-.178.94,7.689,7.689,0,0,0,.178,2.857.27.27,0,0,1-.149.31l-2.112,1.184h0a.51.51,0,0,0-.245.311.5.5,0,0,0,.052.389l1.508,2.533h0a.522.522,0,0,0,.32.238.543.543,0,0,0,.4-.049l.016-.008,2.116-1.186a.289.289,0,0,1,.334.04,8.159,8.159,0,0,0,3.386,1.9.275.275,0,0,1,.2.263v2.384a.5.5,0,0,0,.155.361.535.535,0,0,0,.372.151h3.016a.532.532,0,0,0,.372-.151.5.5,0,0,0,.155-.361V97.658a.277.277,0,0,1,.217-.267,8.159,8.159,0,0,0,3.374-1.9.286.286,0,0,1,.349-.031l2.117,1.185a.542.542,0,0,0,.4.049.524.524,0,0,0,.321-.238l.009-.014,1.5-2.52h0a.5.5,0,0,0,.051-.388.51.51,0,0,0-.244-.311l-2.129-1.193a.27.27,0,0,1-.133-.3h0a7.567,7.567,0,0,0,.177-.94,7.744,7.744,0,0,0,0-1.917,7.556,7.556,0,0,0-.177-.939.271.271,0,0,1,.149-.31l2.113-1.184a.51.51,0,0,0,.244-.311.5.5,0,0,0-.051-.388l-.009-.015-1.5-2.519h0a.526.526,0,0,0-.321-.238.543.543,0,0,0-.4.05h0l-2.131,1.193a.288.288,0,0,1-.342-.045,8.144,8.144,0,0,0-3.38-1.894.275.275,0,0,1-.2-.262V79.631a.5.5,0,0,0-.155-.361.534.534,0,0,0-.372-.15h-3.016a.537.537,0,0,0-.372.15.5.5,0,0,0-.155.361v2.384A.276.276,0,0,1,331.812,82.281Z" transform="translate(-123.289 -58.807)" fill="#bfcce8" fill-rule="evenodd"/>
      <path id="Path_11" data-name="Path 11" d="M688.07,73.431a.787.787,0,0,0-1.573,0v1.794h-1.849a.763.763,0,1,0,0,1.526H686.5v1.795a.787.787,0,0,0,1.573,0V76.751h1.85a.763.763,0,1,0,0-1.526h-1.85Z" transform="translate(-224.997 -56.848)" fill="#bfcce8" fill-rule="evenodd"/>
      <path id="Path_12" data-name="Path 12" d="M49.208,359.356a.786.786,0,0,0-1.572,0v1.794H45.786a.763.763,0,1,0,0,1.526h1.849v1.794a.787.787,0,0,0,1.572,0v-1.794h1.85a.763.763,0,1,0,0-1.526h-1.85Z" transform="translate(-44.6 -143.711)" fill="#bfcce8" fill-rule="evenodd"/>
      <path id="Path_13" data-name="Path 13" d="M398.394,153.467Zm2.385-8.806a4.686,4.686,0,0,1,6.486,0,4.356,4.356,0,0,1,0,6.292,4.688,4.688,0,0,1-6.486,0,4.356,4.356,0,0,1,0-6.292Zm.991-4.41a8.164,8.164,0,0,0-3.375,1.9.285.285,0,0,1-.335.04l-2.131-1.193-.012-.007a.542.542,0,0,0-.389-.042.525.525,0,0,0-.321.237l-.009.015-1.5,2.519a.5.5,0,0,0-.052.39.514.514,0,0,0,.245.311l.014.008,2.114,1.184a.27.27,0,0,1,.131.3h0a7.671,7.671,0,0,0-.179.94,7.831,7.831,0,0,0,0,1.917,7.694,7.694,0,0,0,.179.94.271.271,0,0,1-.149.31l-2.113,1.184h0a.515.515,0,0,0-.245.312.5.5,0,0,0,.052.388l1.508,2.534h0a.529.529,0,0,0,.321.237.539.539,0,0,0,.4-.05l.016-.008,2.116-1.185a.288.288,0,0,1,.334.04,8.158,8.158,0,0,0,3.386,1.9.276.276,0,0,1,.2.263v2.384a.506.506,0,0,0,.155.361.537.537,0,0,0,.373.15h3.015a.535.535,0,0,0,.372-.15.505.505,0,0,0,.155-.361v-2.384a.276.276,0,0,1,.217-.267,8.136,8.136,0,0,0,3.374-1.9.288.288,0,0,1,.35-.031l2.117,1.185a.539.539,0,0,0,.4.05.527.527,0,0,0,.321-.237l.009-.015,1.5-2.52h0a.494.494,0,0,0,.051-.388.516.516,0,0,0-.244-.312l-2.129-1.192a.27.27,0,0,1-.133-.3h0a7.451,7.451,0,0,0,.177-.94,7.748,7.748,0,0,0,0-1.917,7.429,7.429,0,0,0-.177-.94.27.27,0,0,1,.149-.31l2.113-1.184a.513.513,0,0,0,.244-.311.5.5,0,0,0-.051-.388l-.009-.015-1.5-2.52h0a.527.527,0,0,0-.322-.237.539.539,0,0,0-.4.049h0l-2.132,1.193a.286.286,0,0,1-.342-.045,8.14,8.14,0,0,0-3.38-1.893.275.275,0,0,1-.2-.262V137.6a.5.5,0,0,0-.155-.361.533.533,0,0,0-.372-.15h-3.015a.534.534,0,0,0-.373.15.5.5,0,0,0-.155.361v2.385A.275.275,0,0,1,401.77,140.251Z" transform="translate(-143.044 -76.419)" fill="#bfcce8" fill-rule="evenodd"/>
      <path id="Path_14" data-name="Path 14" d="M358.733,143.952a.787.787,0,0,0-1.573,0v1.794h-1.849a.764.764,0,1,0,0,1.527h1.849v1.794a.787.787,0,0,0,1.573,0v-1.794h1.849a.764.764,0,1,0,0-1.527h-1.849Z" transform="translate(-132.001 -78.272)" fill="#bfcce8" fill-rule="evenodd"/>
      <path id="Path_15" data-name="Path 15" d="M363.2,265.32a.787.787,0,0,0-1.572,0v1.794h-1.85a.764.764,0,1,0,0,1.527h1.85v1.794a.786.786,0,0,0,1.572,0v-1.794h1.85a.764.764,0,1,0,0-1.527H363.2Z" transform="translate(-133.263 -115.144)" fill="#bfcce8" fill-rule="evenodd"/>
      <path id="Path_16" data-name="Path 16" d="M267.148,210.965a.787.787,0,0,0-1.573,0v1.795h-1.849a.763.763,0,1,0,0,1.526h1.849v1.794a.787.787,0,0,0,1.573,0v-1.794H269a.763.763,0,1,0,0-1.526h-1.849Z" transform="translate(-106.14 -98.63)" fill="#bfcce8" fill-rule="evenodd"/>
    </g>
    <path id="Path_17" data-name="Path 17" d="M631.481,204.48a.787.787,0,0,0-1.574,0v1.794h-1.849a.763.763,0,1,0,0,1.526h1.849v1.794a.787.787,0,0,0,1.574,0V207.8h1.849a.763.763,0,1,0,0-1.526h-1.849Z" transform="translate(-209.018 -96.66)" fill="#bfcce8" fill-rule="evenodd"/>
  </g>
  <g id="Group_9" data-name="Group 9" transform="translate(200.965 105.448)">
    <g id="Group_7" data-name="Group 7" transform="translate(0 30.734)">
      <path id="Path_18" data-name="Path 18" d="M470.789,285.652a20.473,20.473,0,0,1,8.381,5.86c2.09,2.462,27.662,49.991,29.3,53.084s1.638,10.916-2.237,15.73c-1.5,1.87-5.828,7.1-10.553,12.8h-15.32c5.563-8.1,12.826-18.688,13.346-19.541.851-1.393,1.278-2.741-.276-5.095s-22.025-26.567-22.025-26.567S461.346,294.633,470.789,285.652Z" transform="translate(-364.656 -257.734)" fill="#0f1630" stroke="#0e1632" stroke-miterlimit="22.926" stroke-width="0.216" fill-rule="evenodd"/>
      <path id="Path_19" data-name="Path 19" d="M413.18,280.161s25.786,3.556,26.9,3.823,2.994,2.783,4.008,4.481,2.206,26.115,2.784,32.953-1.7,36.645-1.019,44.65c.112,1.328.322,3.2.595,5.394H369.312c-.99-8.853-7.868-36.553-8.431-43.208-.577-6.837-3.5-31.117-2.783-32.952s2.151-4.615,3.2-5.054,26.2-8.043,26.2-8.043l12.891,1.379Z" transform="translate(-333.944 -256.066)" fill="#cec9d0" fill-rule="evenodd"/>
      <path id="Path_20" data-name="Path 20" d="M423.176,280.161l4.263.59a3.54,3.54,0,0,1-.884,1.7c-10.018,11.139-20.256,11.954-32.01,2.545a3.576,3.576,0,0,1-1.16-1.546l4.11-1.245,12.891,1.379Z" transform="translate(-343.94 -256.066)" fill="#fff" fill-rule="evenodd"/>
      <path id="Path_21" data-name="Path 21" d="M420.284,245.552l.22,6.227s1.074,12.708,1.236,14.638c.079.932,1.192,2.2,3.053,3.23-8.43,9.374-15.791,9.959-25.681,2.042,1.664-1.312,2.549-2.737,2.471-3.67-.163-1.929-1.237-14.638-1.237-14.638l-.827-6.18s5.177.392,10.545,1.1C415.241,246.756,420.284,245.552,420.284,245.552Z" transform="translate(-345.557 -245.552)" fill="#e8685b" fill-rule="evenodd"/>
      <path id="Path_22" data-name="Path 22" d="M435.276,280.585s-2.981,12.5-3.2,15.044-3.724,28.154-3.358,32.483c.166,1.97,4.2,21.981,8.59,43.478h35.131c-.861-5.24-1.6-9.757-2-12.308-1.427-9.172-2.385-28.234-2.073-40.007s-2.7-29.439-3.063-31.117-3.8-3.772-4.87-4.161Z" transform="translate(-353.909 -256.195)" fill="#0f1630" fill-rule="evenodd"/>
      <path id="Path_23" data-name="Path 23" d="M431.429,306.5c-1.057,8.439-2.99,23.862-2.713,27.134,0,0,17.087-18.049,16.828-19.828s-7.211-15.057-7.211-15.057S435.346,302.075,431.429,306.5Z" transform="translate(-353.909 -261.711)" fill="#3d4155" fill-rule="evenodd"/>
      <path id="Path_24" data-name="Path 24" d="M435.179,280.118s.756-.656,1.026-.678,4.906,1.5,4.906,1.5,6.763,10.315,6.874,11.632-16.607,14.587-16.607,14.587l1.482-12.134s2.423-11.862,3.176-14.789Z" transform="translate(-354.668 -255.847)" fill="#545a6c" fill-rule="evenodd"/>
      <path id="Path_25" data-name="Path 25" d="M352.142,294.614a20.187,20.187,0,0,0-7.285,7.106c-1.649,2.759-18.9,53.692-20.005,57s.215,11.03,4.845,15.167c.5.448,1.264,1.119,2.222,1.961h19.12c-5.064-5.269-9.649-10.052-10.113-10.586-1.074-1.24-1.72-2.5-.582-5.073S357.616,330.5,357.616,330.5,362.965,301.983,352.142,294.614Z" transform="translate(-324.484 -260.457)" fill="#0f1630" fill-rule="evenodd"/>
      <path id="Path_26" data-name="Path 26" d="M385.084,284s5.039,11.863,5.685,14.338,8.4,27.189,8.765,31.518c.162,1.925-.428,21.441-1.132,42.774H363.648c-.015-2.226-.032-4.1-.05-5.43-.131-9.274-2.385-28.234-4.67-39.8s-2.272-29.474-2.2-31.186,3.118-4.323,4.106-4.875Z" transform="translate(-333.584 -257.231)" fill="#0f1630" fill-rule="evenodd"/>
      <path id="Path_27" data-name="Path 27" d="M401.311,309.163c2.458,8.159,6.954,23.071,7.231,26.343,0,0-19.889-15.109-19.932-16.906s4.589-16,4.589-16S396.7,305.42,401.311,309.163Z" transform="translate(-342.592 -262.885)" fill="#3d4155" fill-rule="evenodd"/>
      <path id="Path_28" data-name="Path 28" d="M393.248,283.412a3.833,3.833,0,0,0-1.125-.508c-.271.021-4.589,2.256-4.589,2.256s-4.942,11.245-4.83,12.563,18.833,11.769,18.833,11.769l-3.5-11.739s-4.381-11.32-5.615-14.09Z" transform="translate(-340.923 -256.9)" fill="#545a6c" fill-rule="evenodd"/>
    </g>
    <g id="Group_8" data-name="Group 8" transform="translate(38.723 31.155)">
      <path id="Path_29" data-name="Path 29" d="M382.575,251c-.13.029-.256.061-.382.1h0a5.157,5.157,0,0,0-3.731,5.289,5.255,5.255,0,0,0,5.672,4.763,5.2,5.2,0,0,0,4.909-5.5,5.106,5.106,0,0,0-2.344-3.909c.277,1.5.2,3.395-1.768,3.759l-.22-2.96A1.817,1.817,0,0,0,382.575,251Z" transform="translate(-378.445 -247.622)" fill="#e8685b" fill-rule="evenodd"/>
      <path id="Path_30" data-name="Path 30" d="M435.152,246.156c.133.006.263.015.393.03h0a5.166,5.166,0,1,1-5.89,5.677,5.047,5.047,0,0,1,1.577-4.256c.008,1.525.433,3.375,2.44,3.386l-.335-2.949A1.793,1.793,0,0,1,435.152,246.156Z" transform="translate(-392.897 -246.156)" fill="#e8685b" fill-rule="evenodd"/>
    </g>
    <path id="Path_31" data-name="Path 31" d="M400.913,211.778h0c-9.944.881-17.342,9.5-16.434,19.146l1.5,15.959c.907,9.65,9.789,16.824,19.734,15.945h0c9.945-.88,17.342-9.5,16.434-19.145l-1.5-15.959C419.74,218.073,410.859,210.9,400.913,211.778Z" transform="translate(-341.404 -204.535)" fill="#f4ad85" fill-rule="evenodd"/>
    <path id="Path_32" data-name="Path 32" d="M385.6,227a16.967,16.967,0,0,0-1.119,7.854l1.5,15.958a18.017,18.017,0,0,0,18.009,16.017c-10.514-.785-12.461-12.839-13.264-19.186s1.648-7.77,2.622-8.084,16.243-2.774,19.621-3.152a6.133,6.133,0,0,1,5.077,1.44l1.42-2.007-1.365-4.286s1.165.037,2.54,0a17.088,17.088,0,0,0-.667-3.317A29.24,29.24,0,0,1,414,225.633c-4.027-2.521-23.259.631-26.377.631A4.982,4.982,0,0,0,385.6,227Z" transform="translate(-341.404 -208.469)" fill="#ed9072" fill-rule="evenodd"/>
    <path id="Path_33" data-name="Path 33" d="M415.735,233.061s.11,1.173.213,2.262,1.258,2.212,2.119,2.135l-.233-2.471a2.508,2.508,0,0,1,2.515-2.06c6.372-8.57,4.248-21.09-3.965-26.952s-24.574-4.836-27.337-3.663-5.257,6.124-5.257,6.124-2.616-1.88-4.759-.593-8.364,15.691-8.04,19.125,7.816,9.635,7.816,9.635a2.539,2.539,0,0,1,2.855,1.585l.232,2.471a2.431,2.431,0,0,0,1.687-2.472l-.213-2.262c.081-.043.16-.089.239-.134,2.193-1.383,1.757-5.605,1.757-5.605l-2.021-2.743,4.012-5.119,4.615-1.473,10.486.39s12.365,1.491,11.282,4.982S415.735,233.061,415.735,233.061Z" transform="translate(-337.613 -201.406)" fill="#0e1632" fill-rule="evenodd"/>
    <path id="Path_34" data-name="Path 34" d="M415.735,236.856c.126,1.344,1.053,7.348,2.666,7.206,4.811-9.83,9.253-20.091,2.087-30.162-.843,6.481-7.5,10.434-14.162,11.794,3.526.745,8.09,2.144,7.414,4.323-1.081,3.492,1.995,6.839,1.995,6.839Zm-44.282-9.108a9.9,9.9,0,0,0-.461,3.015c.249,2.648,9.333,15.429,11.349,18.334,1.05-.093,1.191-7.664,1.029-9.378.081-.044.159-.088.239-.134,2.193-1.383,1.757-5.605,1.757-5.605l-2.021-2.743,4.012-5.12,4.4-1.4a6.456,6.456,0,0,1-2.856-1.779C379.8,231.868,374.521,231.38,371.453,227.749Z" transform="translate(-337.613 -205.202)" fill="#010518" fill-rule="evenodd"/>
    <path id="Path_35" data-name="Path 35" d="M381.351,235.864s-7.608-16,7.7-18.738c0,0,4.051-7.758,12.166-5.813s13.2,1.891,16.835-1.588c0,0,2.088,3.811-.447,7.143,7.682,5.783,5.014,13.2,1.871,17.2-1.259-8.293-23.779.938-26.724-7.033C392.456,234.652,384.224,232.757,381.351,235.864Z" transform="translate(-340.008 -203.934)" fill="#0e1632" fill-rule="evenodd"/>
    <path id="Path_36" data-name="Path 36" d="M381.374,239.846a22.6,22.6,0,0,1-1.833-6.971c2.958-.273,6.8-2.334,11.78-7.227,0,0,2.036,2.9,11.435,3.277,5.709.228,12.967-1.822,17.059-6.092,4.891,5.407,2.474,11.66-.32,15.217-1.259-8.293-23.779.938-26.724-7.033C392.478,238.634,384.247,236.739,381.374,239.846Z" transform="translate(-340.031 -207.916)" fill="#010518" fill-rule="evenodd"/>
  </g>
  <g id="Group_13" data-name="Group 13" transform="translate(414.87 132.82)">
    <g id="Group_10" data-name="Group 10" transform="translate(1.674)">
      <path id="Path_37" data-name="Path 37" d="M671.821,247.005c-3.218-11.7-14.46-5.268-19.271,4.752s-15.836,49.106-25.367,59.227c-3.694,3.922-2.564,4.252.832,2.342C644.954,303.8,676.25,263.116,671.821,247.005Z" transform="translate(-624.89 -240.722)" fill="#05304b" fill-rule="evenodd"/>
      <path id="Path_38" data-name="Path 38" d="M624.907,316.006c-.116.526.394.551,1.36.163,25.681-21.071,39.319-68.175,39.363-68.326a.487.487,0,0,0-.345-.6.507.507,0,0,0-.622.336C664.618,247.727,650.794,295.474,624.907,316.006Z" transform="translate(-624.89 -242.696)" fill="#0076bd" fill-rule="evenodd"/>
    </g>
    <g id="Group_11" data-name="Group 11" transform="translate(0.235 8.868)">
      <path id="Path_39" data-name="Path 39" d="M642.8,257.116c-5.612-8.533-12.89-.652-14.111,8.51s.178,43-4.777,53.394c-1.92,4.03-.935,4.016,1.272,1.662C636.191,308.94,650.521,268.863,642.8,257.116Z" transform="translate(-622.884 -253.46)" fill="#0076bd" fill-rule="evenodd"/>
      <path id="Path_40" data-name="Path 40" d="M622.89,323.7c.044.448.456.342,1.124-.2,14.967-23.079,13.56-63.941,13.555-64.072a.42.42,0,0,0-.84.024C636.735,259.574,638.161,300.995,622.89,323.7Z" transform="translate(-622.886 -255.15)" fill="#05304b" fill-rule="evenodd"/>
    </g>
    <g id="Group_12" data-name="Group 12" transform="translate(0 41.518)">
      <path id="Path_41" data-name="Path 41" d="M670.525,300.4c9.7.981,5.952,10.179-1.429,15s-37.115,17.837-44,26.2c-2.669,3.244-3.069,2.437-1.964-.337C628.642,327.434,657.175,299.053,670.525,300.4Z" transform="translate(-622.557 -300.357)" fill="#0076bd" fill-rule="evenodd"/>
      <path id="Path_42" data-name="Path 42" d="M622.951,345.65c-.4.151-.485-.228-.295-1,13.624-21.788,49.414-37.735,49.529-37.788a.4.4,0,0,1,.521.186.376.376,0,0,1-.19.505C672.4,307.608,636.121,323.774,622.951,345.65Z" transform="translate(-622.557 -302.323)" fill="#05304b" fill-rule="evenodd"/>
    </g>
  </g>
  <g id="Group_14" data-name="Group 14" transform="translate(293.468 11.392)">
    <path id="Path_43" data-name="Path 43" d="M495.444,283.536l-2.408,20.529s3.64,48.077,5.43,68.422h27.025l.593-81.825Z" transform="translate(-464.582 -132.301)" fill="#0e1632" fill-rule="evenodd"/>
    <path id="Path_44" data-name="Path 44" d="M515.895,309.054l-1.19,7.256,2.368,63.89h32.946c.55-4.422,1.046-8.2,1.447-10.929,2.474-16.8,3.321-40.159,3.31-45.687s-6.61-13.73-8.878-14.331S515.895,309.054,515.895,309.054Z" transform="translate(-470.701 -140.014)" fill="#0e1632" fill-rule="evenodd"/>
    <path id="Path_45" data-name="Path 45" d="M487.559,166.683s-1.125-2.032-2.014-1.651-30.719,42.966-31.73,46.63-.595,10.159,5.179,19.173,18.127,31.139,18.563,31.616,7.187-3.962,7.907-5.2c0,0,.3-.408-.137-1.237s-15.119-34.577-16.049-37,25.235-32.467,26.483-34.869S501.819,169.134,487.559,166.683Z" transform="translate(-453.386 -96.285)" fill="#171c3a" fill-rule="evenodd"/>
    <path id="Path_46" data-name="Path 46" d="M524.141,149.9l-12.991,9s-9.268,35.2-9.3,36.8-3.585,21.013-3.585,21.013,12.991,5,14.847.2,22.684-39.211,23.715-44.613-1.444-18.2-2.681-19.605S524.141,149.9,524.141,149.9Z" transform="translate(-466.057 -91.704)" fill="#c9c4d1" fill-rule="evenodd"/>
    <path id="Path_47" data-name="Path 47" d="M507.263,158.422s-11.765,4.016-12.848,4.617-7.437,23.067-7.953,25.167,2.888,40.61,2.888,44.012-4.434,45.912-4.538,46.613a1.27,1.27,0,0,0,1.341,1.5c1.031,0,12.579-21.105,13.507-23.506s-2.076-38.608-2.076-38.608l7.852-51.817Z" transform="translate(-462.256 -94.292)" fill="#171c3a" fill-rule="evenodd"/>
    <path id="Path_48" data-name="Path 48" d="M546.032,166.6s16.864,16.489,17.482,17.49-16.909,57.316-17.115,59.916,8.662,40.912,8.971,41.911a1.886,1.886,0,0,1-.258,1,3.815,3.815,0,0,1-1.391,1.2c-.362.25-41.6-6.2-44.9-8.2S498.4,246.806,498.4,242.605s2.495-20.28,2.495-20.28l20.292-33.335S535.852,167.66,546.032,166.6Z" transform="translate(-466.098 -96.776)" fill="#1c2344" fill-rule="evenodd"/>
    <path id="Path_49" data-name="Path 49" d="M556.38,162.876s19.534,19.082,20.153,20.082-16.909,57.316-17.115,59.916,8.662,40.911,8.971,41.911a1.887,1.887,0,0,1-.258,1,3.813,3.813,0,0,1-1.392,1.2c-.186.128-11.156-1.511-22.23-3.408,9.606-13.432,9.1-35.687,8.266-37.041-.974-1.577-6.107-4.979-5.328-5.232s6.042-.378,6.431-1.638,7.793-41.141,7.793-41.141l4.941-3.232s2.21-15.505.65-17.774-11.843-10.849-11.927-10.919C556.616,165.994,555.193,163,556.38,162.876Z" transform="translate(-479.117 -95.645)" fill="#101937" fill-rule="evenodd"/>
    <path id="Path_50" data-name="Path 50" d="M580.226,188.111a29.018,29.018,0,0,1,4.319,4.211c1.767,2.235,23.771,46.859,24.226,51.042s-1.155,11.228-9.084,20.134-25.4,31.07-25.959,31.519-7.166-5.543-7.734-7.023c0,0-.252-.5.37-1.332s22.714-35.341,24.164-37.838-21.863-39.787-22.8-42.629S564.171,188.407,580.226,188.111Z" transform="translate(-485.169 -103.311)" fill="#383d5d" fill-rule="evenodd"/>
    <path id="Path_51" data-name="Path 51" d="M542.465,127.4c.119,6.237-1.548,12.678-1.127,18.924.086,1.274.715,1.7,2.335,2.719,2.244,3.239-3.893,13.484-7.929,14.094-.267.04-6.841-4.961-11.5-6.122-2.39-.6-4.358,2.366-4.538,2.239-.968-.683,1.114-5.982.436-7.992.819-.213,1.549-1.988,2.13-2.506,3.772-3.376,2.542-11.8-.549-14.986C519.418,131.389,542.465,127.4,542.465,127.4Z" transform="translate(-472.04 -84.866)" fill="#ed9072" fill-rule="evenodd"/>
    <path id="Path_52" data-name="Path 52" d="M548.631,158.11c-.513,1.41-12.978,17.551-12.978,17.551s-.446.58-1.1-.155-8.331-11.134-8.331-11.134l17.055-12.329-.39-2.836C543.141,148.946,549.158,156.66,548.631,158.11Z" transform="translate(-473.953 -91.49)" fill="#fff" fill-rule="evenodd"/>
    <path id="Path_53" data-name="Path 53" d="M523.19,154.446c0-.008-.019-.024-.065-.028-5.83-.4-6.713,15.626-5.689,18.767.007.021,3.543-5.244,5.981-7.339C524.519,164.9,521.068,157.658,523.19,154.446Z" transform="translate(-471.368 -93.073)" fill="#fff" fill-rule="evenodd"/>
    <path id="Path_54" data-name="Path 54" d="M540.288,155.381s-21.807,26.226-23.354,28.426-13.4,29.309-15.053,35.11c0,0,18.25-22.106,20.828-24.107s12.117-9.7,12.117-9.7a1.3,1.3,0,0,0,.128-.851c-.128-.349-2.783-6.176-2.783-6.176s7.939,1.15,8.66,1.1,4.286-17.234,4.389-17.734S540.288,155.381,540.288,155.381Z" transform="translate(-467.079 -93.368)" fill="#383d5d" fill-rule="evenodd"/>
    <path id="Path_55" data-name="Path 55" d="M519.156,154.405a65.358,65.358,0,0,0-6.7,1.8c-.927.5-8.248,12.3-8.454,13.3a.619.619,0,0,0,.309.675,21.5,21.5,0,0,1,2.089,1.275,12.882,12.882,0,0,1-2.553.45s-.309.113-.257.576S502.616,217,502.616,217s9-48.71,10.332-51.916a58.4,58.4,0,0,1,4.914-8.277Z" transform="translate(-467.287 -93.071)" fill="#383d5d" fill-rule="evenodd"/>
    <path id="Path_56" data-name="Path 56" d="M509.981,114.362a4.991,4.991,0,1,1-5.114,5.017A5.071,5.071,0,0,1,509.981,114.362Z" transform="translate(-467.923 -80.906)" fill="#e8685b" fill-rule="evenodd"/>
    <path id="Path_57" data-name="Path 57" d="M557.806,114.089a4.991,4.991,0,1,1-5.114,5.016A5.07,5.07,0,0,1,557.806,114.089Z" transform="translate(-481.427 -80.823)" fill="#e8685b" fill-rule="evenodd"/>
    <path id="Path_58" data-name="Path 58" d="M526.54,77.529h0c9.687-.057,17.657,8.282,17.712,18.532L544.341,113c.053,10.249-7.829,18.681-17.516,18.739h0c-9.687.057-17.658-8.282-17.712-18.531l-.089-16.936C508.97,86.018,516.852,77.586,526.54,77.529Z" transform="translate(-469.096 -69.716)" fill="#f4ad85" fill-rule="evenodd"/>
    <path id="Path_59" data-name="Path 59" d="M543.567,93.191a19.468,19.468,0,0,1,.685,5.034l.089,16.936c.05,9.424-6.611,17.312-15.216,18.565-.845.086-1.387.138-1.5.15h-.008c9.62-.924,11.656-13.183,11.656-16.88v-9.6c0-9.071-5.175-10.018-8.716-10.018H512.988A3.416,3.416,0,0,0,509.9,99.4l-.875-.645v-.325a19.108,19.108,0,0,1,5.68-13.779c8.82,1.672,23.486,4.514,24.5,5.128C539.751,90.113,541.547,91.542,543.567,93.191Z" transform="translate(-469.096 -71.881)" fill="#ed9072" fill-rule="evenodd"/>
    <path id="Path_60" data-name="Path 60" d="M505.318,92.312l3.164,3.081s1.516-5.729,14.274-3.962-11.763-11.5-14.541-10.054S503.018,87.087,505.318,92.312Z" transform="translate(-467.791 -70.852)" fill="#01020e" fill-rule="evenodd"/>
    <path id="Path_61" data-name="Path 61" d="M536.744,88.044s-12.556,1.336-18.945-2.6-11.8-5.761-13.438-3.622c-1.554,2.029,4.695,7.506,2.181,16.822-.136.505-.465,9.122-.657,9.651-.061-3.372-1.174-11.986-2.326-14.143-3.437-6.436-8.812-11.274-1.831-20.926,4.286-5.923,11.566-8.7,14.947-5.7,11.02,9.766,26.191-2.923,26.283,13.26,0,0,8.173,2.67.578,18.893a2.131,2.131,0,0,0-2.245,2.339l.067,8.661C535.222,110.679,535.1,95.07,536.744,88.044Z" transform="translate(-466.075 -66.307)" fill="#0e1632" fill-rule="evenodd"/>
  </g>
  <g id="Group_17" data-name="Group 17" transform="translate(334.33 179.817)">
    <g id="Group_15" data-name="Group 15" transform="translate(14.166)">
      <path id="Rectangle_18" data-name="Rectangle 18" d="M4.352,0H37.423a4.352,4.352,0,0,1,4.352,4.352V60.966a4.353,4.353,0,0,1-4.353,4.353H4.352A4.352,4.352,0,0,1,0,60.967V4.352A4.352,4.352,0,0,1,4.352,0Z" transform="translate(7.11)" fill="#e2e1e7"/>
      <rect id="Rectangle_19" data-name="Rectangle 19" width="33.996" height="65.319" rx="3.662" transform="translate(43.917)" fill="#fff"/>
      <path id="Path_62" data-name="Path 62" d="M530.066,340.758h36.807c0-6.4,7.11-7.106,7.11-7.106H537.176S530.066,334.359,530.066,340.758Z" transform="translate(-530.066 -315.952)" fill="#fff" fill-rule="evenodd"/>
      <rect id="Rectangle_20" data-name="Rectangle 20" width="42.204" height="16.954" rx="2.865" transform="translate(5.054 54.807)" fill="#b92f6d"/>
      <path id="Path_63" data-name="Path 63" d="M590.575,386.95h8.365a3.944,3.944,0,0,1,3.368,2.493c1.2,2.535,1.072,5.07,4.627,5.07h1.53c3.556,0,3.455-2.594,4.626-5.07a3.847,3.847,0,0,1,3.369-2.493H624.4a2.032,2.032,0,0,1,2.056,1.995v12.964a2.033,2.033,0,0,1-2.056,2H590.575a2.032,2.032,0,0,1-2.056-2V388.945A2.032,2.032,0,0,1,590.575,386.95Z" transform="translate(-546.572 -332.143)" fill="#e74d91" fill-rule="evenodd"/>
      <path id="Path_64" data-name="Path 64" d="M530.066,372.9h36.807c0-6.4,7.11-7.105,7.11-7.105H537.176S530.066,366.5,530.066,372.9Z" transform="translate(-530.066 -325.717)" fill="#fff" fill-rule="evenodd"/>
      <path id="Path_65" data-name="Path 65" d="M631.245,357.578H597.77c0-6.4-6.506-7.105-6.506-7.105h33.473S631.245,351.179,631.245,357.578Z" transform="translate(-547.347 -321.062)" fill="#acabbb" fill-rule="evenodd"/>
      <path id="Path_66" data-name="Path 66" d="M598.241,318.42H623.9a1.118,1.118,0,0,1,1.132,1.1h0a1.118,1.118,0,0,1-1.132,1.1H598.241a1.117,1.117,0,0,1-1.13-1.1h0A1.117,1.117,0,0,1,598.241,318.42Z" transform="translate(-548.998 -311.324)" fill="#e2e1e7" fill-rule="evenodd"/>
      <path id="Path_67" data-name="Path 67" d="M598.241,335.787H623.9a1.118,1.118,0,0,1,1.132,1.1h0a1.119,1.119,0,0,1-1.132,1.1H598.241a1.118,1.118,0,0,1-1.13-1.1h0A1.117,1.117,0,0,1,598.241,335.787Z" transform="translate(-548.998 -316.6)" fill="#e2e1e7" fill-rule="evenodd"/>
      <path id="Path_68" data-name="Path 68" d="M598.241,372.053H623.9a1.118,1.118,0,0,1,1.132,1.1h0a1.118,1.118,0,0,1-1.132,1.1H598.241a1.117,1.117,0,0,1-1.13-1.1h0A1.117,1.117,0,0,1,598.241,372.053Z" transform="translate(-548.998 -327.618)" fill="#e2e1e7" fill-rule="evenodd"/>
      <path id="Path_69" data-name="Path 69" d="M547.108,317.143h24.785a1.118,1.118,0,0,1,1.131,1.1h0a1.118,1.118,0,0,1-1.131,1.1H547.108a1.118,1.118,0,0,1-1.131-1.1h0A1.117,1.117,0,0,1,547.108,317.143Z" transform="translate(-534.559 -310.936)" fill="#acabbb" fill-rule="evenodd"/>
      <rect id="Rectangle_21" data-name="Rectangle 21" width="27.047" height="2.195" rx="1.097" transform="translate(11.418 33.439)" fill="#acabbb"/>
      <path id="Path_70" data-name="Path 70" d="M547.108,381.288h24.785a1.118,1.118,0,0,1,1.131,1.1h0a1.118,1.118,0,0,1-1.131,1.1H547.108a1.118,1.118,0,0,1-1.131-1.1h0A1.117,1.117,0,0,1,547.108,381.288Z" transform="translate(-534.559 -330.423)" fill="#acabbb" fill-rule="evenodd"/>
    </g>
    <g id="Group_16" data-name="Group 16" transform="translate(0 28.333)">
      <rect id="Rectangle_22" data-name="Rectangle 22" width="25.282" height="39.529" rx="2.634" transform="translate(4.302)" fill="#e2e1e7"/>
      <path id="Rectangle_23" data-name="Rectangle 23" d="M2.216,0H18.358a2.215,2.215,0,0,1,2.215,2.215v35.1a2.216,2.216,0,0,1-2.216,2.216H2.216A2.216,2.216,0,0,1,0,37.313V2.216A2.216,2.216,0,0,1,2.216,0Z" transform="translate(26.577)" fill="#fff"/>
      <path id="Path_71" data-name="Path 71" d="M510.326,368.61H532.6c0-3.872,4.3-4.3,4.3-4.3H514.628S510.326,364.738,510.326,368.61Z" transform="translate(-510.326 -353.598)" fill="#fff" fill-rule="evenodd"/>
      <path id="Rectangle_24" data-name="Rectangle 24" d="M1.733,0H23.806a1.734,1.734,0,0,1,1.734,1.734V8.525a1.734,1.734,0,0,1-1.734,1.734H1.734A1.734,1.734,0,0,1,0,8.525V1.733A1.733,1.733,0,0,1,1.733,0Z" transform="translate(3.058 33.168)" fill="#b92f6d"/>
      <path id="Path_72" data-name="Path 72" d="M546.944,396.565h5.062a2.389,2.389,0,0,1,2.039,1.509c.725,1.534.648,3.068,2.8,3.068h.926c2.151,0,2.091-1.57,2.8-3.068a2.325,2.325,0,0,1,2.039-1.509h4.8a1.229,1.229,0,0,1,1.244,1.207v7.845a1.23,1.23,0,0,1-1.244,1.208h-20.47a1.23,1.23,0,0,1-1.245-1.208v-7.845A1.23,1.23,0,0,1,546.944,396.565Z" transform="translate(-520.314 -363.397)" fill="#e74d91" fill-rule="evenodd"/>
      <path id="Path_73" data-name="Path 73" d="M510.326,388.064H532.6c0-3.873,4.3-4.3,4.3-4.3H514.628S510.326,384.191,510.326,388.064Z" transform="translate(-510.326 -359.508)" fill="#fff" fill-rule="evenodd"/>
      <path id="Path_74" data-name="Path 74" d="M571.556,378.79H551.3c0-3.873-3.938-4.3-3.938-4.3h20.258S571.556,374.917,571.556,378.79Z" transform="translate(-520.784 -356.691)" fill="#acabbb" fill-rule="evenodd"/>
      <path id="Path_75" data-name="Path 75" d="M551.584,355.092H567.11a.676.676,0,0,1,.685.664h0a.676.676,0,0,1-.685.664H551.584a.677.677,0,0,1-.685-.664h0A.677.677,0,0,1,551.584,355.092Z" transform="translate(-521.783 -350.798)" fill="#e2e1e7" fill-rule="evenodd"/>
      <path id="Path_76" data-name="Path 76" d="M551.584,365.6H567.11a.675.675,0,0,1,.685.663h0a.676.676,0,0,1-.685.664H551.584a.677.677,0,0,1-.685-.664h0A.676.676,0,0,1,551.584,365.6Z" transform="translate(-521.783 -353.991)" fill="#e2e1e7" fill-rule="evenodd"/>
      <path id="Path_77" data-name="Path 77" d="M551.584,387.549H567.11a.676.676,0,0,1,.685.664h0a.676.676,0,0,1-.685.664H551.584a.677.677,0,0,1-.685-.664h0A.677.677,0,0,1,551.584,387.549Z" transform="translate(-521.783 -360.658)" fill="#e2e1e7" fill-rule="evenodd"/>
      <path id="Rectangle_25" data-name="Rectangle 25" d="M.664,0H15.7a.664.664,0,0,1,.664.664v0a.664.664,0,0,1-.664.664H.664A.664.664,0,0,1,0,.664v0A.664.664,0,0,1,.664,0Z" transform="translate(6.91 3.756)" fill="#acabbb"/>
      <path id="Rectangle_26" data-name="Rectangle 26" d="M.664,0H15.7a.664.664,0,0,1,.664.664v0a.664.664,0,0,1-.664.664H.665A.665.665,0,0,1,0,.664v0A.664.664,0,0,1,.664,0Z" transform="translate(6.91 20.237)" fill="#acabbb"/>
      <path id="Path_78" data-name="Path 78" d="M520.64,393.138h15a.676.676,0,0,1,.684.664h0a.677.677,0,0,1-.684.664h-15a.677.677,0,0,1-.685-.664h0A.676.676,0,0,1,520.64,393.138Z" transform="translate(-513.045 -362.356)" fill="#acabbb" fill-rule="evenodd"/>
    </g>
  </g>
  <g id="Group_19" data-name="Group 19" transform="translate(49.231 152.866)">
    <path id="Path_79" data-name="Path 79" d="M182.71,271.772l29.408.135a.692.692,0,0,1,.7.68l-.007,2.985a.692.692,0,0,1-.7.682l-29.407-.135a.691.691,0,0,1-.7-.681l.007-2.985a.692.692,0,0,1,.7-.681Zm28.7,1.495-28-.132,0,1.623,28,.132Z" transform="translate(-132.517 -270.201)" fill="#0e1632" fill-rule="evenodd"/>
    <g id="Group_18" data-name="Group 18" transform="translate(10.342)">
      <path id="Path_80" data-name="Path 80" d="M129.082,314.154,167.935,271.2a.717.717,0,0,1,.99-.065l2.313,1.969a.667.667,0,0,1,.067.961l-38.852,42.951a.717.717,0,0,1-.99.065l-2.313-1.969a.668.668,0,0,1-.067-.961Zm39.447-41.542L130.6,314.54l1.257,1.071,37.927-41.928Z" transform="translate(-127.866 -269.958)" fill="#0e1632" fill-rule="evenodd"/>
      <path id="Path_81" data-name="Path 81" d="M182.191,269.547a3.894,3.894,0,0,1,4.378,3.29,3.823,3.823,0,0,1-3.392,4.247,3.893,3.893,0,0,1-4.377-3.29A3.823,3.823,0,0,1,182.191,269.547Z" transform="translate(-141.945 -269.516)" fill="#383d5d" fill-rule="evenodd"/>
      <path id="Path_82" data-name="Path 82" d="M129.085,332.252,156.4,382.879a.713.713,0,0,0,.947.29l2.726-1.384a.672.672,0,0,0,.3-.919l-27.319-50.627a.712.712,0,0,0-.946-.29l-2.726,1.385a.671.671,0,0,0-.3.918Zm28.237,49.394-26.667-49.42,1.482-.753L158.8,380.893Z" transform="translate(-127.894 -287.852)" fill="#0e1632" fill-rule="evenodd"/>
      <path id="Path_83" data-name="Path 83" d="M166.021,404.557a3.954,3.954,0,0,0,5.054-2.2,3.767,3.767,0,0,0-2.264-4.9,3.954,3.954,0,0,0-5.054,2.2A3.766,3.766,0,0,0,166.021,404.557Z" transform="translate(-137.634 -308.309)" fill="#383d5d" fill-rule="evenodd"/>
      <path id="Path_84" data-name="Path 84" d="M130.879,328.018a3.894,3.894,0,0,1,4.378,3.29,3.824,3.824,0,0,1-3.392,4.247,3.893,3.893,0,0,1-4.378-3.29A3.824,3.824,0,0,1,130.879,328.018Z" transform="translate(-127.456 -287.28)" fill="#383d5d" fill-rule="evenodd"/>
    </g>
    <rect id="Rectangle_27" data-name="Rectangle 27" width="64.47" height="9.597" rx="4.798" transform="translate(0 93.03)" fill="#383d5d"/>
    <rect id="Rectangle_28" data-name="Rectangle 28" width="64.47" height="9.597" rx="4.798" transform="translate(19.445 93.03)" fill="#0e1632"/>
    <path id="Path_85" data-name="Path 85" d="M212.165,282.549h14.385a7.5,7.5,0,0,0,7.588-7.361h-29.56A7.5,7.5,0,0,0,212.165,282.549Z" transform="translate(-138.891 -271.239)" fill="#fff" fill-rule="evenodd"/>
    <path id="Path_86" data-name="Path 86" d="M213.735,281.721h8.643a4.506,4.506,0,0,0,4.559-4.423H209.176A4.506,4.506,0,0,0,213.735,281.721Z" transform="translate(-140.19 -271.88)" fill="#dff0f2" fill-rule="evenodd"/>
    <path id="Path_87" data-name="Path 87" d="M206.126,270.336h24.06a5.736,5.736,0,0,1,5.8,5.63H200.322A5.735,5.735,0,0,1,206.126,270.336Z" transform="translate(-137.69 -269.765)" fill="#383d5d" fill-rule="evenodd"/>
    <path id="Path_88" data-name="Path 88" d="M206.126,270.336h11a5.736,5.736,0,0,1,5.8,5.63H200.322A5.735,5.735,0,0,1,206.126,270.336Z" transform="translate(-137.69 -269.765)" fill="#01020e" fill-rule="evenodd"/>
  </g>
  <g id="Group_20" data-name="Group 20" transform="translate(403.666 38.971)">
    <path id="Path_89" data-name="Path 89" d="M611.353,115.659a.541.541,0,0,1-.74.12.5.5,0,0,1-.125-.718,22.413,22.413,0,0,1,8.028-6.733,23.043,23.043,0,0,1,26.185,3.984,21.367,21.367,0,0,1,0,30.863,23.011,23.011,0,0,1-29.749,1.77A21.794,21.794,0,0,1,606.959,133a.515.515,0,0,1,.389-.623.533.533,0,0,1,.642.377,20.761,20.761,0,0,0,7.615,11.377,21.929,21.929,0,0,0,28.342-1.69,20.353,20.353,0,0,0,0-29.4,21.96,21.96,0,0,0-24.945-3.8A21.356,21.356,0,0,0,611.353,115.659Z" transform="translate(-606.944 -105.921)" fill="#0e1632" fill-rule="evenodd"/>
    <path id="Path_90" data-name="Path 90" d="M645.9,123.073a11.35,11.35,0,0,0-3.226,5.52c.883.571,3.316,2.376,2.174,4.294l-4.748,7.974c-1.155,1.864-3.95.736-4.9.283a11.3,11.3,0,0,0-3.315,5.471,7.63,7.63,0,0,0,4.357.893,4.714,4.714,0,0,0,3.467-1.89l9.22-15.493a4.45,4.45,0,0,0-.059-3.841,7.282,7.282,0,0,0-2.975-3.212Zm-4.2,5.6c1.267-4.548,3.637-6.318,3.882-6.492a.471.471,0,0,1,.519-.035,8.309,8.309,0,0,1,3.617,3.788,5.333,5.333,0,0,1,.013,4.623l-9.225,15.5a5.661,5.661,0,0,1-4.151,2.329,8.667,8.667,0,0,1-5.172-1.137.442.442,0,0,1-.248-.43c0-.008.243-3.01,3.842-6.523a.467.467,0,0,1,.568-.086c.009,0,3.047,1.706,3.979.184l4.734-7.956c.883-1.482-1.883-3.117-2.127-3.258A.44.44,0,0,1,641.7,128.677Z" transform="translate(-613.718 -110.833)" fill="#0e1632" fill-rule="evenodd"/>
    <text id="_24" data-name="24" transform="translate(3.432 13.059)" fill="#0e1632" font-size="6" font-family="OpenSans-Extrabold, Open Sans" font-weight="800"><tspan x="0" y="0">24</tspan></text>
  </g>
  <g id="Group_22" data-name="Group 22" transform="translate(273.949 21.845)">
    <path id="Path_91" data-name="Path 91" d="M436.885,85.647h30.643A4.719,4.719,0,0,1,472.3,90.28v25.9a.508.508,0,0,1-.329.478.534.534,0,0,1-.581-.112l-8.138-7.894H436.885a4.719,4.719,0,0,1-4.775-4.633V90.28A4.719,4.719,0,0,1,436.885,85.647Z" transform="translate(-427.858 -82.635)" fill="#bfcce8" fill-rule="evenodd"/>
    <g id="Group_21" data-name="Group 21" transform="translate(0 0)">
      <path id="Path_92" data-name="Path 92" d="M431.591,81.321h30.644a5.472,5.472,0,0,1,3.818,1.541,5.155,5.155,0,0,1,1.587,3.7v25.894a1.1,1.1,0,0,1-.2.628,1.145,1.145,0,0,1-.522.415h0a1.186,1.186,0,0,1-.668.067,1.167,1.167,0,0,1-.6-.311l-7.953-7.715h-26.11a5.48,5.48,0,0,1-3.819-1.54,5.155,5.155,0,0,1-1.587-3.705V86.566a5.152,5.152,0,0,1,1.587-3.7,5.475,5.475,0,0,1,3.819-1.541Zm30.644,1.225H431.591a4.194,4.194,0,0,0-2.926,1.181,3.95,3.95,0,0,0-1.219,2.839V100.3a3.95,3.95,0,0,0,1.219,2.839,4.194,4.194,0,0,0,2.926,1.181h26.633l8.154,7.912V86.566a3.949,3.949,0,0,0-1.217-2.839A4.2,4.2,0,0,0,462.235,82.546Z" transform="translate(-426.185 -81.321)" fill="#fff" fill-rule="evenodd"/>
      <path id="Path_93" data-name="Path 93" d="M433.227,88.384a.335.335,0,1,1,0-.67H464.38a.335.335,0,1,1,0,.67Z" transform="translate(-428.076 -83.263)" fill="#fff" fill-rule="evenodd"/>
      <path id="Path_94" data-name="Path 94" d="M433.227,93.076a.335.335,0,1,1,0-.67h3.3a.335.335,0,1,1,0,.67Zm7.694,0a.335.335,0,1,1,0-.67H464.38a.335.335,0,1,1,0,.67Z" transform="translate(-428.076 -84.689)" fill="#fff" fill-rule="evenodd"/>
      <path id="Path_95" data-name="Path 95" d="M433.227,97.767a.335.335,0,1,1,0-.67H464.38a.335.335,0,1,1,0,.67Z" transform="translate(-428.076 -86.114)" fill="#fff" fill-rule="evenodd"/>
      <path id="Path_96" data-name="Path 96" d="M445.3,104.127a.335.335,0,1,1,0-.67h22.489a.335.335,0,1,1,0,.67Z" transform="translate(-431.485 -88.046)" fill="#fff" fill-rule="evenodd"/>
      <path id="Path_97" data-name="Path 97" d="M459.294,109.216a.335.335,0,1,1,0-.67h12.447a.335.335,0,1,1,0,.67Z" transform="translate(-435.437 -89.592)" fill="#fff" fill-rule="evenodd"/>
      <path id="Path_98" data-name="Path 98" d="M449.355,109.216a.335.335,0,1,1,0-.67h4.45a.335.335,0,1,1,0,.67Z" transform="translate(-432.63 -89.592)" fill="#fff" fill-rule="evenodd"/>
    </g>
  </g>
  <path id="Path_99" data-name="Path 99" d="M683.6,415.944a.787.787,0,0,0-1.574,0v1.794H680.18a.763.763,0,1,0,0,1.526h1.849v1.795a.787.787,0,0,0,1.574,0v-1.795h1.849a.763.763,0,1,0,0-1.526H683.6Z" transform="translate(-223.736 -160.903)" fill="#bfcce8" fill-rule="evenodd"/>
  <g id="Group_25" data-name="Group 25" transform="translate(92.741 236.2)">
    <g id="Group_23" data-name="Group 23" transform="translate(0 6.767)">
      <path id="Path_100" data-name="Path 100" d="M245.327,398.934H218.681a4.031,4.031,0,0,0-2.813,1.135,3.768,3.768,0,0,0,0,5.458,4.031,4.031,0,0,0,2.813,1.135h26.646a4.031,4.031,0,0,0,2.813-1.135,3.768,3.768,0,0,0,0-5.458A4.031,4.031,0,0,0,245.327,398.934Z" transform="translate(-185.26 -398.934)" fill="#0076bd" fill-rule="evenodd"/>
      <path id="Path_101" data-name="Path 101" d="M174.323,399.581H208.4a3.477,3.477,0,0,1,3.519,3.413h0a3.478,3.478,0,0,1-3.519,3.415H174.323Z" transform="translate(-173.859 -399.131)" fill="#fff" fill-rule="evenodd"/>
      <path id="Path_102" data-name="Path 102" d="M174.14,398.934a.45.45,0,1,0,0,.9h34.076a3.093,3.093,0,0,1,2.157.871,2.89,2.89,0,0,1,0,4.186,3.092,3.092,0,0,1-2.157.87H174.14a.45.45,0,1,0,0,.9h34.076a4.033,4.033,0,0,0,2.813-1.135,3.768,3.768,0,0,0,0-5.458,4.033,4.033,0,0,0-2.813-1.135Z" transform="translate(-173.676 -398.934)" fill="#004a82" fill-rule="evenodd"/>
      <path id="Path_103" data-name="Path 103" d="M254.1,402.8a3.793,3.793,0,0,0-1.17-2.728,4.032,4.032,0,0,0-2.813-1.135h3.464a4.031,4.031,0,0,1,2.813,1.135,3.766,3.766,0,0,1,0,5.458,4.031,4.031,0,0,1-2.813,1.135h-3.464a4.032,4.032,0,0,0,2.813-1.135A3.791,3.791,0,0,0,254.1,402.8Z" transform="translate(-195.262 -398.934)" fill="#004a82" fill-rule="evenodd"/>
      <path id="Path_104" data-name="Path 104" d="M247.108,402.8a3.8,3.8,0,0,0-1.17-2.728,4.031,4.031,0,0,0-2.814-1.135h3.465a4.033,4.033,0,0,1,2.814,1.135,3.769,3.769,0,0,1,0,5.458,4.034,4.034,0,0,1-2.814,1.135h-3.465a4.031,4.031,0,0,0,2.814-1.135A3.794,3.794,0,0,0,247.108,402.8Z" transform="translate(-193.286 -398.934)" fill="#004a82" fill-rule="evenodd"/>
    </g>
    <g id="Group_24" data-name="Group 24" transform="translate(3.982)">
      <path id="Path_105" data-name="Path 105" d="M182.713,389.214h23.334a3.531,3.531,0,0,1,2.463.994,3.3,3.3,0,0,1,0,4.779,3.53,3.53,0,0,1-2.463.993H182.713a3.528,3.528,0,0,1-2.463-.993,3.3,3.3,0,0,1,0-4.779A3.529,3.529,0,0,1,182.713,389.214Z" transform="translate(-179.225 -389.214)" fill="#e74d91" fill-rule="evenodd"/>
      <path id="Path_106" data-name="Path 106" d="M243.861,389.78H214.022a3.045,3.045,0,0,0-3.081,2.99h0a3.045,3.045,0,0,0,3.081,2.989h29.839Z" transform="translate(-188.181 -389.386)" fill="#fff" fill-rule="evenodd"/>
      <path id="Path_107" data-name="Path 107" d="M243.7,389.214a.395.395,0,1,1,0,.789H213.862a2.711,2.711,0,0,0-1.889.762,2.531,2.531,0,0,0,0,3.666,2.711,2.711,0,0,0,1.889.762H243.7a.394.394,0,1,1,0,.788H213.862a3.529,3.529,0,0,1-2.463-.993,3.3,3.3,0,0,1,0-4.779,3.53,3.53,0,0,1,2.463-.994Z" transform="translate(-188.021 -389.214)" fill="#b92f6d" fill-rule="evenodd"/>
      <path id="Path_108" data-name="Path 108" d="M184.389,392.6a3.321,3.321,0,0,1,1.024-2.389,3.531,3.531,0,0,1,2.464-.994h-3.034a3.53,3.53,0,0,0-2.463.994,3.3,3.3,0,0,0,0,4.779,3.529,3.529,0,0,0,2.463.993h3.034a3.531,3.531,0,0,1-2.464-.993A3.323,3.323,0,0,1,184.389,392.6Z" transform="translate(-179.826 -389.214)" fill="#b92f6d" fill-rule="evenodd"/>
      <path id="Path_109" data-name="Path 109" d="M190.513,392.6a3.324,3.324,0,0,1,1.024-2.389,3.532,3.532,0,0,1,2.464-.994h-3.033a3.531,3.531,0,0,0-2.464.994,3.3,3.3,0,0,0,0,4.779,3.531,3.531,0,0,0,2.464.993H194a3.531,3.531,0,0,1-2.464-.993A3.326,3.326,0,0,1,190.513,392.6Z" transform="translate(-181.556 -389.214)" fill="#b92f6d" fill-rule="evenodd"/>
    </g>
  </g>
  <g id="Group_26" data-name="Group 26" transform="translate(192.443 177.678)">
    <path id="Rectangle_29" data-name="Rectangle 29" d="M3.532,0H118.346a3.532,3.532,0,0,1,3.532,3.532v0a3.53,3.53,0,0,1-3.53,3.53H3.53A3.53,3.53,0,0,1,0,3.532v0A3.532,3.532,0,0,1,3.532,0Z" transform="translate(0 66.837)" fill="#a8a6b5"/>
    <path id="Path_110" data-name="Path 110" d="M431.328,409.849h-114.6a3.943,3.943,0,0,1-3.189-1.665,3.42,3.42,0,0,1,2.983-1.664h114.6a3.945,3.945,0,0,1,3.188,1.664A3.417,3.417,0,0,1,431.328,409.849Z" transform="translate(-312.872 -335.95)" fill="#96929f" fill-rule="evenodd"/>
    <path id="Path_111" data-name="Path 111" d="M443.185,371.992h-91.66a4.354,4.354,0,0,1-4.461-4.62l3.752-57.6a5.1,5.1,0,0,1,5.063-4.619h91.66A4.354,4.354,0,0,1,452,309.774l-3.753,57.6A5.1,5.1,0,0,1,443.185,371.992Z" transform="translate(-322.335 -305.155)" fill="#96929f" fill-rule="evenodd"/>
    <path id="Path_112" data-name="Path 112" d="M444.25,371.992H355.293a4.354,4.354,0,0,1-4.461-4.62l3.752-57.6a5.1,5.1,0,0,1,5.062-4.619H448.6a4.354,4.354,0,0,1,4.46,4.619l-3.752,57.6A5.1,5.1,0,0,1,444.25,371.992Z" transform="translate(-323.399 -305.155)" fill="#fff" fill-rule="evenodd"/>
    <path id="Path_113" data-name="Path 113" d="M440.8,371.992h-9.154l-75.884-58.84.22-3.378a4.781,4.781,0,0,1,1.086-2.707L440.8,371.992Zm-73.453-66.837,82.778,64.186a4.689,4.689,0,0,0,.584-1.969l.584-8.957L382.6,305.155Z" transform="translate(-324.793 -305.155)" fill="#f0eef0" fill-rule="evenodd"/>
    <path id="Rectangle_30" data-name="Rectangle 30" d="M3.532,0H24.574a3.532,3.532,0,0,1,3.532,3.532v0a3.53,3.53,0,0,1-3.53,3.53H3.53A3.53,3.53,0,0,1,0,3.532v0A3.532,3.532,0,0,1,3.532,0Z" transform="translate(0 66.837)" fill="#fff"/>
    <path id="Path_114" data-name="Path 114" d="M441.473,402.152H346.112a1.938,1.938,0,0,1-1.928-1.765h0a1.671,1.671,0,0,1,1.71-1.766h95.361a1.939,1.939,0,0,1,1.929,1.766h0A1.671,1.671,0,0,1,441.473,402.152Z" transform="translate(-321.524 -333.55)" fill="#d2ced6" fill-rule="evenodd"/>
  </g>
  <g id="Group_27" data-name="Group 27" transform="translate(15.16 114.464)">
    <path id="Path_115" data-name="Path 115" d="M311.219,273.04a17.786,17.786,0,0,1,.146-8.515l-15.027-1.231,20.915-8.893a46.672,46.672,0,0,0,6.531-10.474c2.093-5.19-3.582-18.387-5.714-21.662s-6.563-2.784-9.481-1.012c0,0-4.381-6.405-9.611-6.833s-21.854,1.058-26.683,12.894,2.94,23.665-4.837,35.84a2.954,2.954,0,0,0,.324,2.837c1.01,1.3,13.272,15.162,41.218,9.576,0,0,2.228-.5,2.219-2.527Z" transform="translate(-122.512 -214.357)" fill="#0e1632" fill-rule="evenodd"/>
    <path id="Path_116" data-name="Path 116" d="M291.524,288.327c1.539-16.3,2.624-30.473,2.624-30.473l-1.426-4.594s-12.868,10.09-22.005-.526c.434,7.283,1.507,14.616-3.259,22.079a2.954,2.954,0,0,0,.324,2.837l.041.053.015.017.035.043.037.045.022.028.066.077,0,0,.079.091.023.026.066.074.056.063.043.046.1.1.013.013.118.125.027.028.1.105.071.073.067.067.048.048.1.1.158.155.11.1.083.08c2.674,2.509,8.9,7.15,19.4,8.761l.031,0q1.365.209,2.827.346Z" transform="translate(-122.512 -226.016)" fill="#010518" fill-rule="evenodd"/>
    <path id="Path_117" data-name="Path 117" d="M313.983,291.544c-.955-4.612-.287-6.466,1.045-12.627l-23.914-3.651-10.45,1.965a66.35,66.35,0,0,1-3.645,12.553c6.362,3.821,17.6,7.713,34.745,4.286,0,0,2.228-.5,2.219-2.527Z" transform="translate(-125.275 -232.861)" fill="#010518" fill-rule="evenodd"/>
    <path id="Path_118" data-name="Path 118" d="M272.159,299.784c6.617,2.013,15.664,4.421,23.464,8.141.539.258-.56,2.272-.06,2.541a18.207,18.207,0,0,1,3.422,2.7c3.643,3.495,11.056,30.848,10.395,33.573-1.065,4.384-10.431,16.428-10.431,16.428-1.86,3.485-4.166,8.561-6.431,14.047H246c3.24-10.218,4.446-17.14,4.532-23.378h0c2.484-21.208-9.27-25.822-9.27-25.822l12.174-27.792c4.736-1.627,14.18-1.015,14.18-1.015A9.961,9.961,0,0,1,272.159,299.784Z" transform="translate(-115.179 -240.1)" fill="#e74d91" fill-rule="evenodd"/>
    <path id="Path_119" data-name="Path 119" d="M303.1,382.163h-6.566c1.223-3.177,6.915-18.2,8.132-21.4-5.533-.934-13.15-2.215-14.492-2.525s-6.485,2.54-6.485,2.54l.571-3.242-5.521,5.394,9.44-17.1s15.4,3.375,18.678,3.954,1.277.138,1.885.091c1.82-4.967-1.16-6.357-.807-8.761s.459-25.72.459-25.72c1.991,1,2.89,3.175,4.017,6.607.741,2.258,4.674,17.1,6.3,25.874.388,2.088.694,3.65.888,4.9C315.953,361.792,307.759,370.882,303.1,382.163Z" transform="translate(-125.762 -245.05)" fill="#b92f6d" fill-rule="evenodd"/>
    <path id="Path_120" data-name="Path 120" d="M296.659,263.287l-2.329,6.788s-3.523,16.018-4.337,18.1c-.283.721-1.215.941-2.647.908,2.061,2.863,6.064,7.232,11.85,8.3a11.526,11.526,0,0,0,8.033-.993c-1.236-.633-2.417-1.385-2.412-2,.05-5.467,1.018-15.088,4.073-16.867C312.387,275.474,296.659,263.287,296.659,263.287Z" transform="translate(-128.192 -229.222)" fill="#e8685b" fill-rule="evenodd"/>
    <path id="Path_121" data-name="Path 121" d="M287.65,300.212a15.159,15.159,0,0,1-3.334-.126,24.913,24.913,0,0,0,7.407,6.492c9.124,5.609,13.517,2.552,14.906,1.111a10.223,10.223,0,0,1-2.224-1.385h0c-8.515,4.036-16.754-6.092-16.754-6.092Z" transform="translate(-127.336 -240.401)" fill="#fff" fill-rule="evenodd"/>
    <path id="Path_122" data-name="Path 122" d="M313.31,311.526s3.638,35.524,3.2,38.524-6.226,17.783-11.3,30.936h8.718c1.722-3.219,3.038-5.733,3.277-6.339.156-.391.758-1.527,1.587-3.016,1.49-2.676,3.715-6.491,5.392-9.163,5.346-8.513,5.331-6.525,3.481-16.5-1.628-8.777-6.625-25.017-7.367-27.275C319.173,315.264,314.253,311.276,313.31,311.526Z" transform="translate(-133.236 -243.873)" fill="#1c2344" fill-rule="evenodd"/>
    <path id="Path_123" data-name="Path 123" d="M314.2,380.83c-1.2,3.25-2.593,6.951-4.038,10.75a29.947,29.947,0,0,1,5.518.766c2.651,1.01,2.928,2.162,2.928,2.162.155-.391.757-1.527,1.586-3.016,1.491-2.676,3.715-6.491,5.392-9.163,1.608-2.561,2.73-4.171,3.464-5.442a15.159,15.159,0,0,1-3.468,2.433C324.612,379.6,317.182,380.483,314.2,380.83Z" transform="translate(-134.633 -263.733)" fill="#0e1632" fill-rule="evenodd"/>
    <path id="Path_124" data-name="Path 124" d="M270.175,298.785s6.676,31.376,7.591,40.5-2.025,15.648-5.333,22.5c-1.115,2.31-4.69,8.2-9.094,15.186H242.784l2.2-49.288-5.895-1.326c.35-2.476.637-4.526.832-5.963l11.606-19.907S255.9,297.044,270.175,298.785Z" transform="translate(-114.565 -239.857)" fill="#1c2344" fill-rule="evenodd"/>
    <path id="Path_125" data-name="Path 125" d="M257.678,318.828c-3.28,12.777-1,18.076-1,18.076l1.757-7.951s1.661,11.736,3.51,13.232c.918.744,11.844,2.776,15.939,3.517a32.418,32.418,0,0,1-2.012,13.146c-2.939.293-20.62-2.123-21.464,3.418-.421,2.764-.327-6.129-.327-6.129l-1.046,25.773H242.784l2.2-49.287-5.895-1.326.016-.116.016-.114.017-.115.016-.114h0l.017-.113.016-.113.016-.111.016-.112.016-.111.015-.11.015-.109h0l.015-.109.016-.108.014-.107h0l.016-.106.014-.106h0l.015-.105h0l.014-.1h0l.015-.1h0l.014-.1h0l.014-.1h0l.014-.1h0l.014-.1h0l.014-.1h0l.014-.1h0l.014-.1h0l.014-.1h0l.014-.1h0l.014-.1h0l.014-.1h0l.013-.095h0l.013-.094h0l.014-.093h0l.013-.093h0l.013-.092h0l.012-.091h0l.013-.089h0l.012-.089h0l.013-.088h0l.012-.088h0l.011-.087h0l.012-.086h0l.012-.086h0l.011-.084h0l.012-.084h0l.011-.084h0l.012-.082h0l.011-.081h0l.011-.08h0l.011-.08h0l.011-.079h0l.011-.077h0l.012-.077h0l.01-.077h0l.01-.075h0l.011-.074h0l.01-.075h0l.01-.072h0l.01-.072h0l.009-.071h0l.01-.07h0l.009-.069h0l.009-.068h0l.009-.068,6.285-10.779Z" transform="translate(-114.565 -244.797)" fill="#0e1632" fill-rule="evenodd"/>
    <path id="Path_126" data-name="Path 126" d="M240.958,314.893c-3.763,9.977-4.787,44.191-1.686,62.56h16.513c-6.754-36.461,7.431-62.542,4.314-71.782C255.11,290.88,243.433,308.336,240.958,314.893Z" transform="translate(-114.1 -240.34)" fill="#383d5d" fill-rule="evenodd"/>
    <path id="Path_127" data-name="Path 127" d="M332.329,269.136l1.84-.783a51.4,51.4,0,0,0,5.355-7.96c-.438.809-3.338,5.728-7.583,2.722-4.616-3.271-4.8,1.908-4.8,1.908s2.792,3.077,4.414,3.8c.21.093.474.2.776.316Zm7.251-8.849v0h0Z" transform="translate(-139.428 -228.309)" fill="#010518" fill-rule="evenodd"/>
    <path id="Path_128" data-name="Path 128" d="M329.358,268.716a5.228,5.228,0,0,0-5.778,4.555,5.147,5.147,0,0,0,4.693,5.6,5.226,5.226,0,0,0,5.778-4.553A5.149,5.149,0,0,0,329.358,268.716Z" transform="translate(-138.415 -230.863)" fill="#e8685b" fill-rule="evenodd"/>
    <path id="Path_129" data-name="Path 129" d="M278.583,263.522c-.131.006-.261.017-.39.031h0a5.127,5.127,0,1,0,5.883,5.595,5.01,5.01,0,0,0-1.594-4.213c0,1.513-.405,3.352-2.4,3.376l.312-2.929A1.78,1.78,0,0,0,278.583,263.522Z" transform="translate(-124.302 -229.293)" fill="#e8685b" fill-rule="evenodd"/>
    <path id="Path_130" data-name="Path 130" d="M303.654,229.378h0c-9.864-.991-18.769,6.027-19.791,15.6l-1.688,15.811c-1.021,9.569,6.212,18.208,16.076,19.2h0c9.863.991,18.769-6.026,19.79-15.6l1.688-15.811C320.751,239.009,313.517,230.369,303.654,229.378Z" transform="translate(-126.704 -218.892)" fill="#f4ad85" fill-rule="evenodd"/>
    <path id="Path_131" data-name="Path 131" d="M283.567,251.8l-1.392,13.038a17.524,17.524,0,0,0,11.492,18.135c-10.493-4.217-5.114-21.912-5.114-21.912,2.125-.351,5.476-4.193,7.424-6.429s3.456-4.492,6.818-4.426,10.467,1.778,10.467,1.778a19.3,19.3,0,0,0,5.778,7.1l.689-6.454a16.849,16.849,0,0,0-.342-5.615c-.435-.248-.881-.5-1.353-.756C303.595,238.386,291.339,244.757,283.567,251.8Z" transform="translate(-126.704 -222.946)" fill="#ed9072" fill-rule="evenodd"/>
    <path id="Path_132" data-name="Path 132" d="M322.731,247.9l-2.916,1.2a8.819,8.819,0,0,0-5.879-.918s-6.4-2.283-9.794-1.011-1.4-3.3-.775-3.5a42.738,42.738,0,0,1,9.851-.072c2.8.523,7.023,1.161,7.023,1.161Z" transform="translate(-132.391 -223.163)" fill="#010518" fill-rule="evenodd"/>
    <path id="Path_133" data-name="Path 133" d="M283.106,262.307l1.728.294s1.2,5.3-2.192,5.341l.312-2.929a1.611,1.611,0,0,0-.035-.561Z" transform="translate(-126.863 -228.924)" fill="#010518" fill-rule="evenodd"/>
    <path id="Path_134" data-name="Path 134" d="M307.912,242.84c-2.635-3.45-6.942-4.155-10.29.69-3.058,4.426-7.6,12.086-15.246,11.461l-.038-.136.018,0,.431-4.942s-.644.163-1.425.341a30.959,30.959,0,0,1-.264-8.857c.886-6.211,9.792-15.283,19.84-15.632s17.315,5.439,18.754,8.74,2.86,10.79,2.86,10.79l-1.767,2.453-1.9,4.875c-4.622-4.362-4.147-8.487-6.156-10.565C311.636,240.935,310.01,240.931,307.912,242.84Z" transform="translate(-126.367 -217.818)" fill="#0e1632" fill-rule="evenodd"/>
    <path id="Path_135" data-name="Path 135" d="M296.69,253.491c-3.032,4.451-7.382,10.485-14.2,9.927l-.038-.136.018,0,.431-4.942s-.644.163-1.425.341c-.067-.427-.131-.874-.189-1.335C288.985,259.517,296.665,253.511,296.69,253.491Z" transform="translate(-126.48 -226.246)" fill="#010518" fill-rule="evenodd"/>
    <path id="Path_136" data-name="Path 136" d="M313.552,309.883s4.691,37.338,4.6,38.55-1.339,7.051-1.339,7.051a24.239,24.239,0,0,0,2.82-6.736c.555-3.054,2.037-23.708,2.037-23.708l-2.5-1.3,2.314-.135-3.82-11.6a3.3,3.3,0,0,0-1.04-1.2c-.6-.338-2.794-1.4-2.829-1.42a1.473,1.473,0,0,0-.857.1S313.392,309.786,313.552,309.883Z" transform="translate(-135.418 -243.219)" fill="#484e6a" fill-rule="evenodd"/>
    <path id="Path_137" data-name="Path 137" d="M279.852,298.809s6.676,31.376,7.591,40.5a31.421,31.421,0,0,1-.578,10.11c1.23-9.33-12.3-31.282-12.3-31.282l3.517-1.617-4.721-2.065s2.176-11.809,2.314-13.784c.135-1.921-.914-2.278-.973-2.3C276.252,298.44,277.964,298.579,279.852,298.809Z" transform="translate(-124.241 -239.88)" fill="#484e6a" fill-rule="evenodd"/>
    <path id="Path_138" data-name="Path 138" d="M87.61,424.774h5.844a4.186,4.186,0,0,0,4.236-4.108h0a4.187,4.187,0,0,0-4.236-4.11H78.014a3.323,3.323,0,0,1-3.362-3.26h0a3.324,3.324,0,0,1,3.362-3.262H485.924a3.324,3.324,0,0,1,3.362,3.262h0a3.324,3.324,0,0,1-3.362,3.26H464.749a4.186,4.186,0,0,0-4.235,4.11h0a4.185,4.185,0,0,0,4.235,4.108h4.962a6.644,6.644,0,0,1,6.723,6.523h0a6.646,6.646,0,0,1-6.723,6.523H87.61a6.647,6.647,0,0,1-6.723-6.523h0a6.645,6.645,0,0,1,6.723-6.523ZM68.929,410.033a3.263,3.263,0,1,1-3.362,3.262A3.314,3.314,0,0,1,68.929,410.033Z" transform="translate(-65.567 -273.803)" fill="#01020e" fill-rule="evenodd"/>
  </g>
  <g id="Group_28" data-name="Group 28" transform="translate(209.943 79.739)">
    <path id="Path_139" data-name="Path 139" d="M373.043,164.479H342.4a5.476,5.476,0,0,0-3.819,1.54,5.154,5.154,0,0,0-1.587,3.705v25.9a1.1,1.1,0,0,0,.2.627,1.149,1.149,0,0,0,.522.415h0a1.194,1.194,0,0,0,.669.067,1.18,1.18,0,0,0,.6-.31l7.952-7.715h26.109a5.472,5.472,0,0,0,3.819-1.541,5.152,5.152,0,0,0,1.588-3.7V169.724a5.154,5.154,0,0,0-1.588-3.705,5.475,5.475,0,0,0-3.819-1.54ZM342.4,165.7h30.643a4.2,4.2,0,0,1,2.927,1.182,3.953,3.953,0,0,1,1.218,2.839v13.733a3.951,3.951,0,0,1-1.218,2.839,4.2,4.2,0,0,1-2.927,1.181H346.411l-8.154,7.912V169.724a3.949,3.949,0,0,1,1.218-2.839A4.2,4.2,0,0,1,342.4,165.7Z" transform="translate(-336.994 -164.479)" fill="#1a293d" fill-rule="evenodd"/>
    <path id="Path_140" data-name="Path 140" d="M375.19,171.542a.335.335,0,1,0,0-.669H344.036a.335.335,0,1,0,0,.669Z" transform="translate(-338.885 -166.422)" fill="#1a293d" fill-rule="evenodd"/>
    <path id="Path_141" data-name="Path 141" d="M375.19,176.233a.335.335,0,1,0,0-.669h-3.3a.335.335,0,1,0,0,.669Zm-7.694,0a.335.335,0,1,0,0-.669h-23.46a.335.335,0,1,0,0,.669Z" transform="translate(-338.885 -167.847)" fill="#1a293d" fill-rule="evenodd"/>
    <path id="Path_142" data-name="Path 142" d="M375.19,180.925a.335.335,0,1,0,0-.67H344.036a.335.335,0,1,0,0,.67Z" transform="translate(-338.885 -169.272)" fill="#1a293d" fill-rule="evenodd"/>
    <path id="Path_143" data-name="Path 143" d="M366.527,187.285a.335.335,0,1,0,0-.67h-22.49a.335.335,0,1,0,0,.67Z" transform="translate(-338.885 -171.204)" fill="#1a293d" fill-rule="evenodd"/>
    <path id="Path_144" data-name="Path 144" d="M356.484,192.374a.335.335,0,1,0,0-.67H344.036a.335.335,0,1,0,0,.67Z" transform="translate(-338.885 -172.75)" fill="#1a293d" fill-rule="evenodd"/>
    <path id="Path_145" data-name="Path 145" d="M369.57,192.374a.335.335,0,1,0,0-.67h-4.451a.335.335,0,1,0,0,.67Z" transform="translate(-344.839 -172.75)" fill="#1a293d" fill-rule="evenodd"/>
  </g>
</svg>
