<svg xmlns="http://www.w3.org/2000/svg" xmlns:xlink="http://www.w3.org/1999/xlink" width="869.16" height="665.077" viewBox="0 0 869.16 665.077">
  <defs>
    <linearGradient id="linear-gradient" x1="0.5" y1="1.451" x2="0.5" y2="0.419" gradientUnits="objectBoundingBox">
      <stop offset="0.007" stop-color="#d7dff2"/>
      <stop offset="0.196" stop-color="#d3ddf1"/>
      <stop offset="0.383" stop-color="#c7d7ef"/>
      <stop offset="0.568" stop-color="#b3cdeb"/>
      <stop offset="0.753" stop-color="#97c0e6"/>
      <stop offset="0.936" stop-color="#74aee0"/>
      <stop offset="1" stop-color="#66a8de"/>
    </linearGradient>
    <linearGradient id="linear-gradient-2" x1="0.5" y1="1.479" x2="0.5" y2="-3.515" gradientUnits="objectBoundingBox">
      <stop offset="0.007" stop-color="#d7dff2"/>
      <stop offset="0.128" stop-color="#b7cfec"/>
      <stop offset="0.27" stop-color="#9ac1e7"/>
      <stop offset="0.421" stop-color="#83b6e3"/>
      <stop offset="0.583" stop-color="#72aee0"/>
      <stop offset="0.764" stop-color="#69a9de"/>
      <stop offset="1" stop-color="#66a8de"/>
    </linearGradient>
    <linearGradient id="linear-gradient-3" x1="0.5" y1="-0.233" x2="0.5" y2="0.693" gradientUnits="objectBoundingBox">
      <stop offset="0.007" stop-color="#d7dff2"/>
      <stop offset="0.196" stop-color="#c7d7ef"/>
      <stop offset="0.563" stop-color="#9ec3e7"/>
      <stop offset="1" stop-color="#66a8de"/>
    </linearGradient>
    <linearGradient id="linear-gradient-4" x1="0.5" y1="0.592" x2="0.5" y2="-0.08" gradientUnits="objectBoundingBox">
      <stop offset="0.002" stop-color="#d7dff2"/>
      <stop offset="0.486" stop-color="#e9ecf1"/>
      <stop offset="1" stop-color="#f1f1f1"/>
    </linearGradient>
    <linearGradient id="linear-gradient-5" x1="0" y1="0.5" x2="1" y2="0.5" xlink:href="#linear-gradient-4"/>
    <linearGradient id="linear-gradient-6" x1="-174.658" y1="0.5" x2="-173.659" y2="0.5" xlink:href="#linear-gradient-4"/>
    <linearGradient id="linear-gradient-7" x1="0.5" y1="1.099" x2="0.5" y2="-0.61" gradientUnits="objectBoundingBox">
      <stop offset="0" stop-color="#66a8de"/>
      <stop offset="0.437" stop-color="#9ec3e7"/>
      <stop offset="0.804" stop-color="#c7d7ef"/>
      <stop offset="0.993" stop-color="#d7dff2"/>
    </linearGradient>
    <linearGradient id="linear-gradient-8" x1="0.5" y1="1.804" x2="0.5" y2="-0.571" xlink:href="#linear-gradient-7"/>
    <linearGradient id="linear-gradient-9" x1="0.5" y1="2.098" x2="0.5" y2="0.079" xlink:href="#linear-gradient-7"/>
    <linearGradient id="linear-gradient-10" x1="0" y1="0.5" x2="1" y2="0.5" xlink:href="#linear-gradient-3"/>
    <linearGradient id="linear-gradient-11" x1="0" y1="0.5" x2="1" y2="0.5" xlink:href="#linear-gradient-3"/>
    <linearGradient id="linear-gradient-16" x1="0.5" y1="0.865" x2="0.5" y2="-0.492" xlink:href="#linear-gradient-7"/>
    <linearGradient id="linear-gradient-17" x1="0.425" y1="0.077" x2="0.637" y2="1.267" xlink:href="#linear-gradient-7"/>
    <linearGradient id="linear-gradient-18" x1="0" y1="0.5" x2="1" y2="0.5" xlink:href="#linear-gradient-7"/>
    <linearGradient id="linear-gradient-22" x1="0.5" y1="0.828" x2="0.5" y2="-0.454" xlink:href="#linear-gradient-3"/>
    <linearGradient id="linear-gradient-23" x1="0.5" y1="1.103" x2="0.5" y2="0.087" xlink:href="#linear-gradient-7"/>
    <linearGradient id="linear-gradient-24" y1="0.5" x2="1" y2="0.5" gradientUnits="objectBoundingBox">
      <stop offset="0.012" stop-color="#5692a3"/>
      <stop offset="0.168" stop-color="#629da4"/>
      <stop offset="0.996" stop-color="#a0d6ad"/>
    </linearGradient>
    <linearGradient id="linear-gradient-31" x1="-0.009" y1="0.5" x2="0.991" y2="0.5" gradientUnits="objectBoundingBox">
      <stop offset="0.357" stop-color="#d7dff2"/>
      <stop offset="0.479" stop-color="#c7d7ef"/>
      <stop offset="0.717" stop-color="#9ec3e7"/>
      <stop offset="1" stop-color="#66a8de"/>
    </linearGradient>
  </defs>
  <g id="Group_1204" data-name="Group 1204" transform="translate(-164.745 -15.753)">
    <path id="Path_2000" data-name="Path 2000" d="M962.106,292.32c-5.041,0-9.937.066-14.64.189-24.516-5.5-174.043-9.732-354.876-9.732-197.953,0-358.426,5.072-358.426,11.324,0,.516,1.119,1.025,3.24,1.524-44.18,2.071-72.66,5.313-72.66,8.962,0,6.253,83.622,11.322,186.775,11.322,99.227,0,180.343-4.691,186.375-10.614,17.832.085,36.1.13,54.695.13,129.605,0,243.134-2.173,306.088-5.429,2.984,3.574,30.236,6.371,63.427,6.371,35.187,0,63.712-3.143,63.712-7.024S997.293,292.32,962.106,292.32Z" transform="translate(0 364.919)" fill="#f2f2f2" style="mix-blend-mode: multiply;isolation: isolate"/>
    <g id="Group_1158" data-name="Group 1158" transform="translate(450.758 245.77)">
      <g id="Group_1156" data-name="Group 1156" transform="translate(101.306 295.86)">
        <rect id="Rectangle_542" data-name="Rectangle 542" width="61.09" height="99.356" transform="translate(100.599)" fill="url(#linear-gradient)"/>
        <path id="Rectangle_543" data-name="Rectangle 543" d="M8.43,0H255.871a8.43,8.43,0,0,1,8.43,8.43V20.544a0,0,0,0,1,0,0H0a0,0,0,0,1,0,0V8.43A8.43,8.43,0,0,1,8.43,0Z" transform="translate(0 91.3)" fill="url(#linear-gradient-2)"/>
      </g>
      <path id="Rectangle_544" data-name="Rectangle 544" d="M5.293,0H461.619a5.294,5.294,0,0,1,5.294,5.294V348.942a5.294,5.294,0,0,1-5.294,5.294H5.294A5.294,5.294,0,0,1,0,348.942V5.293A5.293,5.293,0,0,1,5.293,0Z" fill="url(#linear-gradient-3)"/>
      <rect id="Rectangle_545" data-name="Rectangle 545" width="431.388" height="285.497" transform="translate(17.762 17.174)" fill="url(#linear-gradient-4)"/>
      <path id="Path_2001" data-name="Path 2001" d="M409.023,263.335A15.892,15.892,0,1,1,396.461,244.7,15.893,15.893,0,0,1,409.023,263.335Z" transform="translate(-159.966 66.704)" fill="#001e48"/>
      <rect id="Rectangle_546" data-name="Rectangle 546" width="431.291" height="46.418" transform="translate(17.829 256.252)" fill="#ffbe55"/>
      <g id="Group_1157" data-name="Group 1157" transform="translate(74.889 86.682)">
        <text id="WELCOME" transform="translate(155 72)" fill="#4d8593" font-size="67" font-family="SegoeUI, Segoe UI"><tspan x="-154.987" y="0">WELCOME</tspan></text>
      </g>
    </g>
    <g id="Group_1172" data-name="Group 1172" transform="translate(596.268 15.753)">
      <path id="Path_2002" data-name="Path 2002" d="M377.082,119.625c3.964,15.144-4.182,33.327-11.095,47.387,0,0,38.817,27.746,87.6,2.2l-3.992-10.633a65.237,65.237,0,0,1-3.943-36.46L453.9,76.231a21.687,21.687,0,0,0-14.753-24.483l-11.05-3.51-3.448-1.091a41.96,41.96,0,0,0-12.687-1.962H407.46a41.991,41.991,0,0,0-19.352,4.724h0l-10.442,5.415A21.631,21.631,0,0,0,366.7,80.044Z" transform="translate(-321.249 24.471)" fill="#e26b6d"/>
      <path id="Path_2003" data-name="Path 2003" d="M399.4,49.027a20.72,20.72,0,0,1,9.372,5.746c4.255,4.336,42.308,71.533,42.308,71.533,1.361,8.065-26.613,12.609-26.613,12.609l-25.2-42.109Z" transform="translate(-275.768 29.72)" fill="#e26b6d"/>
      <path id="Path_2004" data-name="Path 2004" d="M432.434,78.876a36.518,36.518,0,0,0-24.322,8.714c-.62.523.272,1.408.89.89a35.117,35.117,0,0,1,23.432-8.345A.63.63,0,0,0,432.434,78.876Z" transform="translate(-263.967 70.507)" fill="#fff"/>
      <path id="Path_2005" data-name="Path 2005" d="M401.565,49.027a20.719,20.719,0,0,0-9.369,5.746c-4.255,4.336-42.308,71.533-42.308,71.533-1.361,8.065,26.613,12.609,26.613,12.609l25.2-42.109Z" transform="translate(-343.316 29.72)" fill="#e26b6d"/>
      <path id="Path_2006" data-name="Path 2006" d="M378.575,88.641a29.6,29.6,0,0,0-25.188-9.857c-.8.076-.807,1.335,0,1.257a28.41,28.41,0,0,1,24.3,9.49C378.227,90.134,379.115,89.242,378.575,88.641Z" transform="translate(-339.29 70.19)" fill="#fff"/>
      <path id="Path_2007" data-name="Path 2007" d="M468.543,98.968h26.877l-43.112,37.616-41.534,3-55.733-42,31.888-1Z" transform="translate(-336.208 94.712)" fill="#4d8593"/>
      <path id="Path_2008" data-name="Path 2008" d="M468.543,98.968h26.877l-43.112,37.616-41.534,3-55.733-42,31.888-1Z" transform="translate(-336.208 94.712)" fill="#4d8593" style="mix-blend-mode: multiply;isolation: isolate"/>
      <g id="Group_1159" data-name="Group 1159" transform="translate(52.141 104.061)">
        <path id="Path_2009" data-name="Path 2009" d="M370.771,60.329c.047-.809-1.212-.8-1.259,0a226.472,226.472,0,0,0,.951,38.086c.088.8,1.347.8,1.259,0A226.221,226.221,0,0,1,370.771,60.329Z" transform="translate(-369.115 -59.723)" fill="url(#linear-gradient-5)"/>
        <path id="Path_2010" data-name="Path 2010" d="M400.566,60.329c-.047-.809,1.212-.8,1.259,0a226.459,226.459,0,0,1-.951,38.086c-.088.8-1.347.8-1.259,0A226.478,226.478,0,0,0,400.566,60.329Z" transform="translate(-327.441 -59.723)" fill="url(#linear-gradient-6)"/>
      </g>
      <path id="Path_2011" data-name="Path 2011" d="M389.373,66.162h0a8.528,8.528,0,0,0,8.529-8.529V40.409a2.342,2.342,0,0,0-2.343-2.343h-12.37a2.342,2.342,0,0,0-2.343,2.343V57.633A8.527,8.527,0,0,0,389.373,66.162Z" transform="translate(-300.943 14.74)" fill="#f1cbb3"/>
      <path id="Path_2012" data-name="Path 2012" d="M389.373,63.566h0a8.528,8.528,0,0,0,8.529-8.529V37.813a2.342,2.342,0,0,0-2.343-2.343h-12.37a2.342,2.342,0,0,0-2.343,2.343V55.037A8.527,8.527,0,0,0,389.373,63.566Z" transform="translate(-300.943 11.193)" fill="#e29f77"/>
      <g id="Group_1160" data-name="Group 1160" transform="translate(57.565 6.731)">
        <path id="Path_2013" data-name="Path 2013" d="M433.992,55.175c-1.271,5.524-5.446,7.263-9.336,8.378A40.237,40.237,0,0,1,417.473,73.8a21.911,21.911,0,0,1-11.412,7.313l-.39.078c-.258.052-.518.13-.779.182-.18.026-.362.026-.544.052-.154.026-.284.026-.44.05-.336.028-.7.052-1.037.052-.364,0-.7-.024-1.039-.052-.154-.024-.31-.024-.466-.05-.182-.026-.362-.026-.518-.052-.286-.052-.518-.13-.779-.182-.13-.026-.258-.052-.414-.078A21.9,21.9,0,0,1,388.243,73.8a40.869,40.869,0,0,1-6.38-8.714c-.286-.521-.544-1.013-.8-1.531a17.356,17.356,0,0,1-3.448-1.271,9.771,9.771,0,0,1-5.862-7.107c-.7-3.086-.338-6.847,1.245-8.922a3.472,3.472,0,0,1,2.568-1.529,6.137,6.137,0,0,1,3.526,1.011,48.171,48.171,0,0,1,10.167-20.412,16.483,16.483,0,0,1,6.769-5.42,11.428,11.428,0,0,1,4.073-1.193,37.024,37.024,0,0,1,5.55,0,11.3,11.3,0,0,1,4.047,1.193,16.483,16.483,0,0,1,6.768,5.42,47.528,47.528,0,0,1,10.167,20.412,8.728,8.728,0,0,1,1.583-.727,4.817,4.817,0,0,1,1.945-.284C433.812,45.034,434.979,50.792,433.992,55.175Z" transform="translate(-371.407 -18.597)" fill="#f1cbb3"/>
      </g>
      <path id="Path_2014" data-name="Path 2014" d="M437.258,30.294c-5.081-.4-9.72-5.817-13.5-8.932-4.258-3.507-8.184-4.686-13.459-5.216a26.292,26.292,0,0,0-6.773-.244c-2.778.452-4.326,2.18-7.034,2.35-7.476.473-10.392.244-14.926,6.7-3.254,4.631-6.745,10.557-11.989,13.158,1.283.092,6.385-.757,7.355.071,1.039.887-.194,4.577-.133,6.137.135,3.453,1.765,6.617,3.751,9.4a65.847,65.847,0,0,0,4.2,14.874c-.154-9.481.684-20.637,5.805-28.884a46.779,46.779,0,0,1,.391,6.9c3.727-3.051,6.4-7.121,9.729-10.494,2.617,3.8,5.062,7.086,9.289,9.4.234-3.853,1.579-7.138,2.674-10.782,2.2,3.022,3.467,6.577,5.569,9.665,2.4,3.529,5.351,6.747,6.9,10.827,2.1,5.526,1.59,12.536,1.046,18.367,1.9-4.466,4.331-8.127,5.242-13.023a57.406,57.406,0,0,0,.949-10.425c-.019-6.451-1.091-12.392-1.309-18.7C433.3,31.34,435.237,31.538,437.258,30.294Z" transform="translate(-316.346 -15.753)" fill="#eaab3b"/>
      <g id="Group_1168" data-name="Group 1168" transform="translate(74.766 32.147)">
        <g id="Group_1162" data-name="Group 1162">
          <g id="Group_1161" data-name="Group 1161">
            <path id="Path_2015" data-name="Path 2015" d="M379.38,34.019a.742.742,0,0,0,.7-.4,4.665,4.665,0,0,1,6.208-2.39.742.742,0,1,0,.62-1.349,6.126,6.126,0,0,0-8.146,3.046.744.744,0,0,0,.315,1A.714.714,0,0,0,379.38,34.019Z" transform="translate(-378.675 -29.337)" fill="#253770"/>
          </g>
        </g>
        <g id="Group_1164" data-name="Group 1164" transform="translate(22.194 1.311)">
          <g id="Group_1163" data-name="Group 1163">
            <path id="Path_2016" data-name="Path 2016" d="M388.244,31.382a.623.623,0,0,0,.66.133,3.918,3.918,0,0,1,5.256,1.891.623.623,0,1,0,1.134-.516,5.141,5.141,0,0,0-6.847-2.539.624.624,0,0,0-.35.809A.6.6,0,0,0,388.244,31.382Z" transform="translate(-388.053 -29.891)" fill="#253770"/>
          </g>
        </g>
        <g id="Group_1166" data-name="Group 1166" transform="translate(6.912 18.586)">
          <g id="Group_1165" data-name="Group 1165">
            <path id="Path_2017" data-name="Path 2017" d="M388.1,43.456a.743.743,0,0,0-.615-.514,4.649,4.649,0,0,1-4.4-4.958.739.739,0,1,0-1.474-.106,6.1,6.1,0,0,0,5.692,6.537.746.746,0,0,0,.8-.958Z" transform="translate(-381.596 -37.19)" fill="#253770"/>
          </g>
        </g>
        <g id="Group_1167" data-name="Group 1167" transform="translate(13.92 6.786)">
          <path id="Path_2018" data-name="Path 2018" d="M387.768,47.935a2.772,2.772,0,0,0,1.534-.447c1.458-.951,1.825-3.124.985-5.815l-1.9-8.96a.634.634,0,0,0-.757-.495.64.64,0,0,0-.495.76L389.048,42c.791,2.544.286,3.94-.445,4.416-.753.49-1.9.208-2.935-.7a.68.68,0,0,0-.93.024.605.605,0,0,0,0,.869A4.728,4.728,0,0,0,387.768,47.935Z" transform="translate(-384.557 -32.204)" fill="#253770"/>
        </g>
        <path id="Path_2019" data-name="Path 2019" d="M392.622,34.779a2.192,2.192,0,1,1-1.983-2.568A2.3,2.3,0,0,1,392.622,34.779Z" transform="translate(-365.572 -25.418)" fill="#253770"/>
        <path id="Path_2020" data-name="Path 2020" d="M384.472,34.776a2.192,2.192,0,1,1-1.983-2.565A2.3,2.3,0,0,1,384.472,34.776Z" transform="translate(-376.71 -25.418)" fill="#253770"/>
      </g>
      <path id="Path_2021" data-name="Path 2021" d="M389.559,116.675l-2.173-11.206a5,5,0,0,1,2.83-5.469l2.39-1.1a7.806,7.806,0,0,1,8.028.951l8.437,6.572a4.067,4.067,0,0,0,4.589.319l.471-.275,6.681-3.888s36.164-30.371,46.622-19.56a13.073,13.073,0,0,1-7.6,19.872l-33.249,8.619-8.932,2.322-5.881,1.534a6.85,6.85,0,0,1-3.63-.092l-12.1-3.768a1.4,1.4,0,0,0-1.808,1.108l-1.38,4.26A1.705,1.705,0,0,1,389.559,116.675Z" transform="translate(-292.121 73.002)" fill="#f1cbb3"/>
      <path id="Path_2022" data-name="Path 2022" d="M429,116.675l2.173-11.206A5,5,0,0,0,428.338,100l-2.39-1.1a7.8,7.8,0,0,0-8.025.951l-8.437,6.572a4.067,4.067,0,0,1-4.589.319l-.471-.275-6.681-3.888s-36.164-30.371-46.622-19.56a13.073,13.073,0,0,0,7.6,19.872l33.249,8.619,8.932,2.322,5.879,1.534a6.857,6.857,0,0,0,3.633-.092l12.1-3.768a1.4,1.4,0,0,1,1.808,1.108l1.38,4.26A1.7,1.7,0,0,0,429,116.675Z" transform="translate(-344.551 73.002)" fill="#f1cbb3"/>
      <g id="Group_1170" data-name="Group 1170" transform="translate(34.188 138.435)">
        <g id="Group_1169" data-name="Group 1169">
          <rect id="Rectangle_547" data-name="Rectangle 547" width="101.339" height="65.252" transform="translate(4.165)" fill="url(#linear-gradient-7)"/>
          <path id="Path_2023" data-name="Path 2023" d="M468.666,101.82h-104.6a2.533,2.533,0,0,0-2.535,2.535h0a2.535,2.535,0,0,0,2.535,2.535h104.6a2.536,2.536,0,0,0,2.535-2.535h0A2.535,2.535,0,0,0,468.666,101.82Z" transform="translate(-361.529 -36.568)" fill="url(#linear-gradient-8)"/>
        </g>
        <path id="Path_2024" data-name="Path 2024" d="M398.884,95.092a8.829,8.829,0,1,1-8.83-8.827A8.83,8.83,0,0,1,398.884,95.092Z" transform="translate(-334.61 -57.825)" fill="url(#linear-gradient-9)"/>
      </g>
      <g id="Group_1171" data-name="Group 1171" transform="translate(0 191.039)">
        <path id="Path_2025" data-name="Path 2025" d="M347.561,120.273a19.076,19.076,0,0,0,14.647,14.415,18.41,18.41,0,0,0,1.886.3c24.4,6.7,51.277,11.445,80.214,14.562q11.828,1.3,24.123,2.206L482.569,164.9c.128.106.256.232.4.338,6.361,5,15.518-.783,14.14-8.754l-.828-4.7c0-.043-.021-.064-.021-.085a13.916,13.916,0,0,0-10.662-8.778l-14.626-2.67c-7.06-2.227-14.013-4.473-20.774-6.742-29.445-9.878-55.665-20.391-75.909-34.657a19.034,19.034,0,0,0-26.731,21.43Z" transform="translate(-347.083 -95.764)" fill="#4d8593"/>
        <path id="Path_2026" data-name="Path 2026" d="M388.165,128.469q11.828,1.3,24.123,2.206l14.138,13.142c.128.106.256.232.4.338,6.361,5,15.518-.783,14.14-8.754l-.828-4.7c0-.043-.021-.064-.021-.085a13.916,13.916,0,0,0-10.662-8.778l-14.626-2.67c-7.06-2.227-14.013-4.473-20.774-6.742Z" transform="translate(-290.94 -74.684)" fill="#253770"/>
        <path id="Path_2027" data-name="Path 2027" d="M374.777,164.76c.149-.128.277-.234.4-.341l14.327-13.333c7.315-.762,14.543-1.548,21.624-2.374,31.542-3.645,60.287-7.992,81.463-14.266.634-.064,1.25-.17,1.886-.3A19.038,19.038,0,1,0,482.4,98.325C460.693,112.359,434.96,123.7,406.554,133.2c-7.142,2.416-14.458,4.684-21.92,6.868l.021.083-12.527,2.291a13.934,13.934,0,0,0-10.643,8.754c0,.043-.021.064-.021.107l-.826,4.7C359.262,163.975,368.418,169.74,374.777,164.76Z" transform="translate(-328.747 -96.476)" fill="#4d8593"/>
        <path id="Path_2028" data-name="Path 2028" d="M374.777,143.556c.149-.128.277-.234.4-.341l14.327-13.333c7.315-.762,14.543-1.548,21.624-2.374-1.145-3.921-3.032-10.259-4.579-15.515-7.142,2.416-14.458,4.684-21.92,6.868l.021.083-12.527,2.291a13.934,13.934,0,0,0-10.643,8.754c0,.043-.021.064-.021.106l-.826,4.7C359.262,142.77,368.418,148.535,374.777,143.556Z" transform="translate(-328.747 -75.271)" fill="#253770"/>
      </g>
      <path id="Path_2029" data-name="Path 2029" d="M408.071,46.93c-.3-.741-1.517-.417-1.214.334,7.211,17.771-32.527,20.793-27.349-.275a.63.63,0,0,0-1.214-.334C372.61,69.785,416.03,66.55,408.071,46.93Z" transform="translate(-305.134 25.867)" fill="#fff"/>
    </g>
    <g id="Group_1193" data-name="Group 1193" transform="translate(231.069 262.582)">
      <g id="Group_1188" data-name="Group 1188" transform="translate(76.555)">
        <g id="Group_1174" data-name="Group 1174" transform="translate(33.532 142.131)">
          <circle id="Ellipse_37" data-name="Ellipse 37" cx="11.708" cy="11.708" r="11.708" transform="translate(100.166 233.288)" fill="#001e48"/>
          <path id="Path_2030" data-name="Path 2030" d="M259.442,290.389a11.708,11.708,0,1,0,11.708-11.708A11.708,11.708,0,0,0,259.442,290.389Z" transform="translate(-211.743 -45.392)" fill="#001e48"/>
          <circle id="Ellipse_38" data-name="Ellipse 38" cx="11.708" cy="11.708" r="11.708" transform="translate(0 233.288)" fill="#001e48"/>
          <g id="Group_1173" data-name="Group 1173" transform="translate(18.79 25.15)">
            <path id="Path_2031" data-name="Path 2031" d="M267.592,353.805h0a4.914,4.914,0,0,0,4.915-4.913V231.958h-9.829V348.892A4.912,4.912,0,0,0,267.592,353.805Z" transform="translate(-226.109 -134.394)" fill="url(#linear-gradient-10)"/>
            <rect id="Rectangle_548" data-name="Rectangle 548" width="9.829" height="69.957" transform="translate(79.787 69.957) rotate(180)" fill="#a7adc0"/>
            <rect id="Rectangle_549" data-name="Rectangle 549" width="9.829" height="69.957" transform="translate(9.829 69.957) rotate(180)" fill="url(#linear-gradient-11)"/>
            <rect id="Rectangle_550" data-name="Rectangle 550" width="24.434" height="29.825" transform="translate(53.769 113.898) rotate(180)" fill="url(#linear-gradient-11)"/>
          </g>
          <path id="Path_2032" data-name="Path 2032" d="M255.431,249.526h84.992a15.9,15.9,0,0,0,15.9-15.9h0a15.9,15.9,0,0,0-15.9-15.9H255.431a15.9,15.9,0,0,0-15.9,15.9h0A15.9,15.9,0,0,0,255.431,249.526Z" transform="translate(-238.952 -128.691)" fill="#001e48"/>
          <path id="Path_2033" data-name="Path 2033" d="M258.706,211.9h77.241a15.9,15.9,0,0,0,15.9-15.9h0a15.9,15.9,0,0,0-15.9-15.9H258.706a15.9,15.9,0,0,0-15.9,15.9h0A15.9,15.9,0,0,0,258.706,211.9Z" transform="translate(-234.476 -180.106)" fill="#001e48"/>
          <path id="Path_2034" data-name="Path 2034" d="M258.3,267.321h76.655a16.006,16.006,0,0,1,16.005,16.005v19.768a4.554,4.554,0,0,1-4.553,4.553h0a4.555,4.555,0,0,1-4.553-4.553V285.359a8.933,8.933,0,0,0-8.932-8.934H260.591a8.932,8.932,0,0,0-8.932,8.934v17.735a4.555,4.555,0,0,1-4.553,4.553h-.05a4.556,4.556,0,0,1-4.553-4.506l-.211-19.643A16.006,16.006,0,0,1,258.3,267.321Z" transform="translate(-235.181 -60.917)" fill="url(#linear-gradient-11)"/>
        </g>
        <g id="Group_1187" data-name="Group 1187">
          <path id="Path_2035" data-name="Path 2035" d="M303.417,173.637l-7.736,51.819a15.791,15.791,0,0,1-19.721,12.919L225.118,224.7l1.162-12.335,47.595,4.179,4.383-37.416a32.5,32.5,0,0,1,17.809-25.313h0C304,150.435,304.691,165.108,303.417,173.637Z" transform="translate(-225.118 -74.584)" fill="#e26b6d"/>
          <g id="Group_1175" data-name="Group 1175" transform="translate(70.27 4.009)">
            <path id="Path_2036" data-name="Path 2036" d="M276.911,164.974a13.279,13.279,0,0,0,2.752-1.3A2.136,2.136,0,0,1,276.911,164.974Z" transform="translate(-224.607 -64.439)" fill="#001e48"/>
            <path id="Path_2037" data-name="Path 2037" d="M256.173,160.744c.973-5.446.916-11.028,2.194-16.455a46.228,46.228,0,0,1,6.2-13.847,20.7,20.7,0,0,1,6.74-6.79c1.95-1.169,6.134-2.968,8.136-1.1l12.652,1.349c3.943-1.186,8.891,1.226,12.314,3.848,4.984,3.817,7.294,9.476,10.011,15.781,2.208,5.121,2.7,10.143,2.26,15.927-.331,4.4-2.016,7.94-1.99,12.553a18.818,18.818,0,0,0,4.059,11.734,27.163,27.163,0,0,0,5.95,5.978c1.394.887,3.309,1.389,4.5,2.558-2.492.838-6.754-1.221-9.182-2.175-2.1-.824-3.832-2.691-5.914-3.446.637,2.939,2.038,4.934,2.279,8.259.36,4.946-1.16,7.949-3.618,11.7-3.37,5.145-7.994,8.319-12.228,12.162-2.475,2.246-5.384,5.136-8.368,6.934,1.179-2.878-.793-9.452-1.117-11.783-.35-2.511-1.439-4.506-1.515-7.074a32.055,32.055,0,0,1,.282-6.309c-5.039,8.193-12.962,18.673-9.246,30.127-3.332-2.958-6.385-6.96-9.334-10.569-3.006-3.68-6.4-7.479-9.029-11.6-4.669-7.332-6.922-15.643-7.28-25.1A105.317,105.317,0,0,1,256.173,160.744Z" transform="translate(-254.81 -121.743)" fill="#001e48"/>
          </g>
          <path id="Path_2038" data-name="Path 2038" d="M300.592,262.155l-52.671,1.027,15.556-26.463c-3.42-19.3-7.109-48.6-7.838-66.582-.341-8.435,5.408-15.549,12.784-15.849l50.2-2.033c7.871-.319-.376,5.4-.88,14.389s4.376,20.369,4.795,28.023c.511,9.291-4.795,6.059-6.563,20.7a54.262,54.262,0,0,0-.293,8.049,95.8,95.8,0,0,0,7.008,32.7l2.22,5.564-23.434.457c-.059.057-.118.118-.175.175Z" transform="translate(-193.955 -76.055)" fill="#e26b6d"/>
          <path id="Path_2039" data-name="Path 2039" d="M278.053,191.488a.468.468,0,0,1,.44-.409c2.906-4.823,5.822-9.978,4.248-15.811-1.084-4.011-3.6-7.344-4.475-11.454-.168-.788,1.044-1.126,1.214-.334,1.108,5.209,4.925,9.625,5.022,15.075.085,4.88-2.66,9.417-5.086,13.435-.052.085-.133.1-.2.144-1.884,11.319-3.42,22.734,1.858,33.417.357.722-.727,1.361-1.086.634C274.52,215.114,276.089,203.255,278.053,191.488Z" transform="translate(-155.266 -61.316)" fill="#fff"/>
          <g id="Group_1176" data-name="Group 1176" transform="translate(13.447 185.198)">
            <path id="Path_2040" data-name="Path 2040" d="M287.878,265.584s-6.068,44.317-17.321,34.493a21.573,21.573,0,0,1-3.1,8.669c-4.882,6.948,11.182,9.466,17.378,6.432,6.231-3.034,2.71-26.8,2.71-26.8S296.327,274.158,287.878,265.584Z" transform="translate(-181.948 -106.358)" fill="#001e48"/>
            <path id="Path_2041" data-name="Path 2041" d="M262.358,198.3l65.47.357c11.237.062,20.374,10.546,20.306,23.3a24.806,24.806,0,0,1-5.893,16.1,6.262,6.262,0,0,1-.338.873c-4.042,7.391-11.355,12.493-21.077,15.953-.528.168-4.729,1.818-6.506,2.449l-25.784-6.61v-.13a17.206,17.206,0,0,1,1.834-5.763l-28.264-.154c-11.239-.062-20.374-10.546-20.305-23.3S251.119,198.243,262.358,198.3Z" transform="translate(-215.769 -198.304)" fill="#4d8593"/>
            <path id="Path_2042" data-name="Path 2042" d="M297.03,291.7c-.05,2.717-.1,5.457-.175,8.224-.329,14.692-.982,30.037-1.661,44.828,0,0-4.906,35.92-14.112,35.92a4.907,4.907,0,0,1-3.221-1.408c.781-7.547,1.711-14.742,2.868-21.155.251-1.484.554-2.918.831-4.25.151-.755.327-1.56.528-2.367.554-2.213,1.183-4.478,1.988-6.79-.026-.329-1.661-5.737-4.026-14.415-2.137-7.9-4.93-18.464-7.673-30.364q-.415-1.771-.831-3.621a468.393,468.393,0,0,1-8.853-50.387c-1.586-14.062-2.087-27.394-.653-38.261l25.784,6.617c-.379.125-.656.2-.755.251C295.873,216.455,297.66,250.742,297.03,291.7Z" transform="translate(-189.264 -185.53)" fill="#edc2a9"/>
            <path id="Path_2043" data-name="Path 2043" d="M297.03,291.7c-.05,2.717-.1,5.457-.175,8.224H272.377q-.415-1.771-.831-3.621a468.393,468.393,0,0,1-8.853-50.387c-1.586-14.062-2.087-27.394-.653-38.261l25.784,6.617c-.379.125-.656.2-.755.251C295.873,216.455,297.66,250.742,297.03,291.7Z" transform="translate(-189.264 -185.53)" fill="#4d8593"/>
            <path id="Path_2044" data-name="Path 2044" d="M271.96,265.558a69.068,69.068,0,0,0-1.933,6.8c.54-2.229,1.183-4.5,1.969-6.8Z" transform="translate(-177.193 -106.394)" fill="#dbbdaf"/>
            <path id="Path_2045" data-name="Path 2045" d="M320.56,216.062c.6,25.735-20.149,58.209-43.418,91.514-.755,1.058-1.486,2.139-2.265,3.195-8.73,12.453-17.709,25.006-26.035,37.307l-8.529-7.673,10.716-29.635,7.019-19.368,27.72-76.6c3.346-9.156,11.17-15.094,19.9-15.094a14.081,14.081,0,0,1,10.363,4.781A17.427,17.427,0,0,1,320.56,216.062Z" transform="translate(-217.799 -196.381)" fill="#edc2a9"/>
            <path id="Path_2046" data-name="Path 2046" d="M243.3,301.61c5.969-7.052,14.112-16.339,18.535-34.749a170.574,170.574,0,0,1-11.3,19.645c-4.669,6.615-13.9-.317-10.288-7.729,4.776-9.762,13.061-19.565,13.061-19.565l-.071-.08c-13.305,12.671-18.221,19.207-22.083,35.184C228.945,303.482,237.545,308.424,243.3,301.61Z" transform="translate(-230.8 -115.176)" fill="#001e48"/>
            <path id="Path_2047" data-name="Path 2047" d="M245.553,286.46a170.569,170.569,0,0,0,11.3-19.645l-8.529-7.649s-8.286,9.8-13.061,19.565C231.65,286.143,240.884,293.075,245.553,286.46Z" transform="translate(-225.818 -115.129)" fill="#edc2a9"/>
          </g>
          <g id="Group_1178" data-name="Group 1178" transform="translate(33.564 76.108)">
            <path id="Path_2048" data-name="Path 2048" d="M277.277,184.045a21.9,21.9,0,0,1-16.389-15.426,14,14,0,0,0,4.385-2.852.412.412,0,0,0-.147-.684.422.422,0,0,0-.282-.577,13.546,13.546,0,0,1-3.115-1.25,7.441,7.441,0,0,1-2.352-1.721,22.149,22.149,0,0,0,4.2-3.155q3.057-2.485,5.976-5.131c.419-.379-.22-.98-.637-.6-1.645,1.484-3.316,2.942-5.024,4.352-1.4,1.15-3.074,2.92-4.852,3.737a.457.457,0,0,0-.625.234c-.076.024-.151.059-.227.08-.544.142-.286.98.258.838.021-.007.043-.017.064-.021a5.674,5.674,0,0,0,2.009,1.676,14.031,14.031,0,0,0,3.955,1.763,12.923,12.923,0,0,1-4.385,2.707.457.457,0,0,0-.05.826,22.753,22.753,0,0,0,17.04,16.057A.438.438,0,0,0,277.277,184.045Z" transform="translate(-213.9 -151.772)" fill="#fff"/>
            <path id="Path_2049" data-name="Path 2049" d="M285.7,162.02a40.725,40.725,0,0,1-9.672-9.623c-.327-.457-1.074,0-.745.461a42.117,42.117,0,0,0,9.594,9.623.385.385,0,0,0-.2.149c-.6,1.022-3.372,1.28-4.473,1.5a37.455,37.455,0,0,1-5.031.618.429.429,0,0,0-.192.793.379.379,0,0,0,.064.334,14.5,14.5,0,0,0,4.674,4.258,26.525,26.525,0,0,1-12.479,13.785c-.5.26-.036,1.006.461.745a27.228,27.228,0,0,0,12.922-14.415.46.46,0,0,0-.01-.36.378.378,0,0,0-.2-.353,13.478,13.478,0,0,1-4.511-3.981,37.005,37.005,0,0,0,5.509-.793c1.309-.3,3.287-.443,4.035-1.711a.352.352,0,0,0,.026-.222A.442.442,0,0,0,285.7,162.02Z" transform="translate(-201.415 -152.208)" fill="#fff"/>
            <g id="Group_1177" data-name="Group 1177" transform="translate(0 98.184)">
              <path id="Path_2050" data-name="Path 2050" d="M302.474,200.2H267.457v-6.5l33.016,4.669Z" transform="translate(-200.822 -193.695)" fill="url(#linear-gradient-11)"/>
              <rect id="Rectangle_551" data-name="Rectangle 551" width="66.635" height="6.503" transform="translate(66.635 6.503) rotate(180)" fill="url(#linear-gradient-11)"/>
            </g>
          </g>
          <g id="Group_1186" data-name="Group 1186" transform="translate(68.501 5.825)">
            <path id="Path_2051" data-name="Path 2051" d="M278.927,172.158,270.5,189.12l-6.537-19.875a21.773,21.773,0,0,1-1.084-7.815l.111-2.783-.014-.471-.147-8.981,18.46-2.568-.047,7.424c-.009,1.349-.031,2.748-.118,4.113,0,.322.036,1.844.085,3.548a8.4,8.4,0,0,1-.017,1.148A21.777,21.777,0,0,1,278.927,172.158Z" transform="translate(-242.076 -89.553)" fill="#edc2a9"/>
            <path id="Path_2052" data-name="Path 2052" d="M281.2,162.86a22.193,22.193,0,0,1-18.216-4.683l-.147-8.981,18.46-2.568-.047,7.424c-.009,1.349-.031,2.748-.118,4.113,0,.322.036,1.844.085,3.548A8.4,8.4,0,0,1,281.2,162.86Z" transform="translate(-242.076 -89.553)" fill="#e29f77"/>
            <path id="Path_2053" data-name="Path 2053" d="M259.365,144.6a6.121,6.121,0,0,1,3.325,1.517,47.462,47.462,0,0,1,12.943-18.62,16.1,16.1,0,0,1,7.429-4.364,11.61,11.61,0,0,1,4.177-.611c.932.054,1.846.156,2.741.3a27.069,27.069,0,0,1,2.712.5,11.544,11.544,0,0,1,3.827,1.78,16.066,16.066,0,0,1,5.869,6.3,47.47,47.47,0,0,1,7.079,21.546,6.116,6.116,0,0,1,3.619-.5c3.531.833,3.872,6.671,2.26,10.822-2.042,5.266-6.406,6.371-10.378,6.9a40.162,40.162,0,0,1-8.543,9.052,21.751,21.751,0,0,1-12.28,5.552c-.135.014-.267.024-.4.033-.265.021-.523.061-.79.071-.178,0-.355-.024-.535-.026-.149,0-.3-.014-.45-.021-.343-.021-.686-.05-1.029-.1s-.679-.118-1.018-.2c-.144-.035-.291-.069-.436-.109-.173-.047-.35-.073-.521-.128-.251-.085-.488-.2-.736-.293-.123-.047-.251-.095-.374-.149a21.742,21.742,0,0,1-10.183-8.835,40.118,40.118,0,0,1-5.595-11.114c-3.656-1.642-7.519-3.95-7.971-9.578C253.746,149.891,255.744,144.393,259.365,144.6Z" transform="translate(-254.063 -122.511)" fill="#edc2a9"/>
            <g id="Group_1185" data-name="Group 1185" transform="translate(17.954 23.741)">
              <g id="Group_1179" data-name="Group 1179" transform="translate(7.24 20.145)">
                <path id="Path_2054" data-name="Path 2054" d="M270.324,147.822a9.393,9.393,0,0,0,7.4-5.853.652.652,0,0,0-1.193-.525c-3.159,7.14-10.664,4.965-10.983,4.87a.651.651,0,1,0-.379,1.245A12.778,12.778,0,0,0,270.324,147.822Z" transform="translate(-264.708 -141.055)" fill="#001e48"/>
              </g>
              <g id="Group_1180" data-name="Group 1180" transform="translate(19.079 9.929)">
                <path id="Path_2055" data-name="Path 2055" d="M274.076,139.424a2.207,2.207,0,1,1-1.687-2.636A2.212,2.212,0,0,1,274.076,139.424Z" transform="translate(-269.711 -136.738)" fill="#001e48"/>
              </g>
              <g id="Group_1181" data-name="Group 1181" transform="translate(1.365 7.342)">
                <path id="Path_2056" data-name="Path 2056" d="M266.593,138.331a2.208,2.208,0,1,1-1.69-2.636A2.215,2.215,0,0,1,266.593,138.331Z" transform="translate(-262.226 -135.645)" fill="#001e48"/>
              </g>
              <g id="Group_1182" data-name="Group 1182" transform="translate(20.534 2.417)">
                <path id="Path_2057" data-name="Path 2057" d="M276.707,138.643l.071-.017a.652.652,0,0,0,.457-.8,5.378,5.378,0,0,0-6.4-4.158.649.649,0,0,0-.5.772.63.63,0,0,0,.771.5,4.131,4.131,0,0,1,4.863,3.228A.656.656,0,0,0,276.707,138.643Z" transform="translate(-270.326 -133.564)" fill="#001e48"/>
              </g>
              <g id="Group_1183" data-name="Group 1183">
                <path id="Path_2058" data-name="Path 2058" d="M269.482,134.7l.043-.054a.649.649,0,0,0-.151-.909,5.379,5.379,0,0,0-7.585.847.65.65,0,0,0,.106.911.631.631,0,0,0,.916-.1,4.124,4.124,0,0,1,5.805-.594A.652.652,0,0,0,269.482,134.7Z" transform="translate(-261.649 -132.543)" fill="#001e48"/>
              </g>
              <g id="Group_1184" data-name="Group 1184" transform="translate(6.756 13.344)">
                <path id="Path_2059" data-name="Path 2059" d="M267.029,144.585a.632.632,0,0,0,.187-1.25c-.012,0-1.2-.206-1.41-.895-.1-.317-.1-1.259,1.948-3.167a.632.632,0,1,0-.861-.925c-1.919,1.789-2.672,3.252-2.293,4.468.452,1.458,2.348,1.756,2.428,1.768Z" transform="translate(-264.504 -138.181)" fill="#001e48"/>
              </g>
            </g>
          </g>
          <path id="Path_2060" data-name="Path 2060" d="M285.106,138.1c-.414-4.378-2.48-11.878-7.585-12.609l-.916,1.242c-1.735,7.443-.947,17.111,3.425,23.657C282.6,146.884,285.541,142.7,285.106,138.1Z" transform="translate(-155.925 -112.614)" fill="#001e48"/>
          <path id="Path_2061" data-name="Path 2061" d="M334.4,203.3a15.362,15.362,0,0,1-6.721,24.641l-48.338,13.918-5.55-5.775,39.532-22.267-25.24-27.966c-7.355-8.151-11.1-14.462-8.288-25.077l.757-3.081a7.325,7.325,0,0,1,12.7-2.987Z" transform="translate(-158.598 -76.232)" fill="#e26b6d"/>
          <path id="Path_2062" data-name="Path 2062" d="M288.272,187.271s-24.265,1.95-23.988,17.163c0,0-.277,5.256,4.426-4.7,0,0,2.213-3.041,3.872-2.764,0,0-5.86,7.618-5.654,9.866.1,1.141,3.441,3.133,7.867-8.207,0,0-4.494,11.272.1,10.659l2.937-10.105-.483,9.083s3.271,4.191,3.8-7.978h0c.031.012.062.036.095.031,4.551-.691,8.186-1.853,11.045-5.663l.388-1.006Z" transform="translate(-171.598 -28.183)" fill="#edc2a9"/>
          <path id="Path_2063" data-name="Path 2063" d="M308.8,139.438a21.345,21.345,0,0,0-9.769-14.623c-6.929-4.333-16.422-5.72-24.4-4.125-11.852,2.371-19.222,17.286-16.739,28.771a23.5,23.5,0,0,1,.575,3.865c3.8-.123,7.417-3.339,10.212-5.592,3.219-2.591,7.112-6.21,9.251-9.765-1.9,5.008,3.216,10.115,6.92,12.6-2.307-4.658,1.976-9.185,5.67-11.644.357,2.61-.286,4.62,1.086,7.218a31.605,31.605,0,0,0,2.859,4.459,24.945,24.945,0,0,1,5.365,14.8c2.4-1.231,4.075-5.334,5.323-7.632C307.861,152.781,309.719,144.69,308.8,139.438Z" transform="translate(-180.985 -120.049)" fill="#001e48"/>
          <path id="Path_2064" data-name="Path 2064" d="M260.576,141.131a2.62,2.62,0,1,1-2.62-2.62A2.618,2.618,0,0,1,260.576,141.131Z" transform="translate(-183.822 -94.819)" fill="#e26b6d"/>
          <path id="Path_2065" data-name="Path 2065" d="M280.639,144.187a2.62,2.62,0,1,1-2.62-2.62A2.62,2.62,0,0,1,280.639,144.187Z" transform="translate(-156.403 -90.643)" fill="#e26b6d"/>
          <path id="Path_2066" data-name="Path 2066" d="M258.626,191.116a.464.464,0,0,0-.438-.409c-2.909-4.826-5.822-9.98-4.248-15.811,1.082-4.011,3.6-7.346,4.475-11.454.168-.79-1.046-1.126-1.214-.336-1.108,5.209-4.925,9.625-5.022,15.078-.088,4.88,2.66,9.417,5.086,13.435.052.085.133.095.2.142,1.884,11.322,3.417,22.734-1.86,33.419-.357.722.729,1.361,1.086.634C262.162,214.741,260.593,202.882,258.626,191.116Z" transform="translate(-188.139 -61.826)" fill="#fff"/>
          <path id="Path_2067" data-name="Path 2067" d="M312.757,216.062c.6,25.735-20.149,58.209-43.418,91.514-.755,1.058-1.486,2.139-2.265,3.195l-21.051-7.14,4.222-12.228,27.72-76.6c3.346-9.156,11.17-15.094,19.9-15.094a14.081,14.081,0,0,1,10.363,4.781A17.427,17.427,0,0,1,312.757,216.062Z" transform="translate(-196.549 -11.183)" fill="#4d8593"/>
        </g>
      </g>
      <g id="Group_1190" data-name="Group 1190" transform="translate(2.736 180.659)">
        <g id="Group_1189" data-name="Group 1189" transform="translate(0 11.009)">
          <path id="Path_2068" data-name="Path 2068" d="M339.9,408.2h7.944L314.412,201.038H304.084Z" transform="translate(-43.382 -201.038)" fill="#001e48"/>
          <path id="Path_2069" data-name="Path 2069" d="M325.537,408.2h7.944L300.051,201.038H289.723Z" transform="translate(-63.008 -201.038)" fill="#001e48"/>
          <path id="Path_2070" data-name="Path 2070" d="M201.87,408.2h-7.944l33.431-207.166h10.327Z" transform="translate(-193.926 -201.038)" fill="#001e48"/>
          <path id="Path_2071" data-name="Path 2071" d="M216.231,408.2h-7.944l33.431-207.166h10.328Z" transform="translate(-174.3 -201.038)" fill="#001e48"/>
        </g>
        <path id="Path_2072" data-name="Path 2072" d="M198.939,210.4H491.126c2.315,0,4.191-3.136,4.191-7.005h0c0-3.869-1.877-7.005-4.191-7.005H198.939c-2.315,0-4.191,3.136-4.191,7.005h0C194.748,207.261,196.625,210.4,198.939,210.4Z" transform="translate(-192.802 -196.386)" fill="#5da1f0"/>
      </g>
      <g id="Group_1192" data-name="Group 1192" transform="translate(0 66.098)">
        <g id="Group_1191" data-name="Group 1191">
          <path id="Path_2073" data-name="Path 2073" d="M192.77,149.461H305.827l14.627,89.25H207.4Z" transform="translate(-192.77 -145.953)" fill="url(#linear-gradient-16)"/>
          <path id="Path_2074" data-name="Path 2074" d="M207.935,163.5h51.907l6.716,40.977H214.65Z" transform="translate(-172.045 -126.772)" fill="url(#linear-gradient-17)"/>
          <path id="Path_2075" data-name="Path 2075" d="M229.868,165.663l2.816-3.752,6.471,41.182-2.572,3.548Z" transform="translate(-142.071 -128.939)" fill="url(#linear-gradient-18)"/>
          <path id="Path_2076" data-name="Path 2076" d="M262.658,161.91H210.577l-2.642,3.752h51.907Z" transform="translate(-172.045 -128.939)" fill="url(#linear-gradient-18)"/>
          <path id="Path_2077" data-name="Path 2077" d="M255.169,240.736l2.438-3.718-14.018-89.039-3.047,3.507Z" transform="translate(-127.484 -147.979)" fill="url(#linear-gradient-18)"/>
          <path id="Path_2078" data-name="Path 2078" d="M308.874,147.979H195.51l-2.74,3.507H305.827Z" transform="translate(-192.77 -147.979)" fill="url(#linear-gradient-18)"/>
        </g>
        <path id="Path_2079" data-name="Path 2079" d="M213.5,193.051h57.942a7.651,7.651,0,0,1,7.649,7.651H205.85A7.651,7.651,0,0,1,213.5,193.051Z" transform="translate(-174.894 -86.382)" fill="url(#linear-gradient-22)"/>
        <path id="Path_2080" data-name="Path 2080" d="M250.958,224.156l-3.1-39.113a16.023,16.023,0,0,0-15.972-14.753h0a16.02,16.02,0,0,0-15.97,14.753l-3.1,39.113Z" transform="translate(-165.379 -117.487)" fill="url(#linear-gradient-23)"/>
      </g>
    </g>
    <g id="Group_1203" data-name="Group 1203" transform="translate(873.96 312.854)">
      <g id="Group_1197" data-name="Group 1197">
        <g id="Group_1194" data-name="Group 1194" transform="translate(53.892)">
          <path id="Path_2081" data-name="Path 2081" d="M487.2,184.292c.17-8.444,3.486-17.5,10.74-22.189,8.8-5.692,18.069-.549,26.847,3.474-2.577-6.605-10.33-8.472-15.672-12.115,23.543-15.345,53.944-11.821,53.944-11.821s17.967,21.023,18.812,30.88c-5.074-1.186-10.065-2.89-15.343-3.529,5.048,1.851,12.754,9.466,15.172,16.436,2.033,5.855-2.326,16.235-5.112,21.778-5.5,10.953-23.855,31.5-36.5,17.051-10.555-12.06-5.881-28.766-27.3-23.545C496.76,204.623,486.8,204.287,487.2,184.292Z" transform="translate(-487.192 -141.292)" fill="url(#linear-gradient-24)"/>
          <path id="Path_2082" data-name="Path 2082" d="M493.9,304.536c-.949-28.908-1.782-58.581,6.726-86.568a170.627,170.627,0,0,1,13.016-31.306c-2.367-1.437-4.44-3.813-6.759-5.185a38.66,38.66,0,0,0-12.465-4.61c-1.425-.277-.769-2.44.651-2.165a41.221,41.221,0,0,1,11,3.749,37.712,37.712,0,0,1,4.849,2.961c1.164.838,2.492,2.26,3.846,3.207.959-1.69,1.936-3.349,2.947-4.951.355-.561.769-1.1,1.143-1.647a46.332,46.332,0,0,0-11.925-12.134c-1.186-.831-.017-2.764,1.176-1.931a49.406,49.406,0,0,1,12.105,12.11,96.619,96.619,0,0,1,8.752-10.143,56.25,56.25,0,0,0-7.206-14.592c-.824-1.2,1.16-2.289,1.976-1.1a58.167,58.167,0,0,1,6.979,13.909c3.226-3.214,6.577-6.321,9.871-9.4q-2.361-4.7-4.373-9.563c-.547-1.332,1.425-2.44,1.976-1.1,1.264,3.067,2.648,6.075,4.123,9.043,1.945-1.827,3.865-3.652,5.7-5.483,1.029-1.029,2.6.6,1.567,1.628-1.7,1.7-3.479,3.4-5.282,5.1l13.012.8c1.446.09,1.387,2.35-.071,2.26l-14.074-.866a1.057,1.057,0,0,1-.786-.388c-3.2,3-6.458,6.028-9.6,9.159a67.877,67.877,0,0,1,12.309,1.844c3.637.845,7.363,1.439,10.186,4.035,1.074.987-.561,2.549-1.628,1.569-2.729-2.509-7.138-2.991-10.636-3.768a57.774,57.774,0,0,0-12.015-1.5,1.062,1.062,0,0,1-.284-.062,99.959,99.959,0,0,0-7.8,8.939c11.3,1.153,22.518,3.266,31.185,11.2,1.077.985-.559,2.547-1.628,1.569-8.589-7.86-19.944-9.592-31.119-10.657-.921,1.313-1.813,2.641-2.615,4.009-.589,1.011-1.157,2.045-1.732,3.072,5.479,1.247,11.3,2.163,16.176,5.065,4.21,2.5,7.457,6.222,10.292,10.153.85,1.179-1.136,2.262-1.976,1.1-2.873-3.985-6.283-7.715-10.7-10-4.544-2.348-9.945-3.1-14.886-4.25l-.045,0a167.641,167.641,0,0,0-14.088,34.593c-7.393,26.745-6.489,54.92-5.588,82.382C496.21,306.058,493.95,305.987,493.9,304.536Z" transform="translate(-478.806 -138.316)" fill="#4d8593"/>
        </g>
        <g id="Group_1195" data-name="Group 1195" transform="translate(0 37.763)">
          <path id="Path_2083" data-name="Path 2083" d="M540.909,191.862c-.137-6.8-2.8-14.084-8.643-17.863-7.081-4.582-14.545-.44-21.612,2.8,2.076-5.315,8.316-6.821,12.614-9.75-18.952-12.354-43.42-9.516-43.42-9.516s-14.462,16.921-15.144,24.856c4.085-.954,8.1-2.326,12.351-2.842-4.063,1.491-10.269,7.62-12.214,13.232-1.635,4.712,1.872,13.068,4.113,17.53,4.43,8.816,19.2,25.358,29.384,13.726,8.5-9.708,4.733-23.155,21.972-18.952C533.217,208.227,541.233,207.957,540.909,191.862Z" transform="translate(-464.42 -157.248)" fill="url(#linear-gradient-24)"/>
          <path id="Path_2084" data-name="Path 2084" d="M521.566,288.652c.764-23.269,1.434-47.155-5.413-69.683a137.391,137.391,0,0,0-10.477-25.2c1.905-1.157,3.574-3.067,5.441-4.175a31.137,31.137,0,0,1,10.032-3.711c1.148-.222.62-1.964-.523-1.742a33.131,33.131,0,0,0-8.854,3.017,30.438,30.438,0,0,0-3.9,2.383c-.937.674-2.007,1.82-3.1,2.58-.772-1.358-1.56-2.693-2.371-3.983-.286-.454-.62-.883-.921-1.328a37.3,37.3,0,0,1,9.6-9.767c.956-.667.014-2.225-.947-1.553a39.759,39.759,0,0,0-9.743,9.748,78.091,78.091,0,0,0-7.045-8.167,45.39,45.39,0,0,1,5.8-11.745c.663-.966-.935-1.841-1.59-.885a46.849,46.849,0,0,0-5.618,11.2c-2.6-2.589-5.294-5.091-7.947-7.568q1.9-3.784,3.522-7.7c.44-1.072-1.145-1.964-1.59-.883-1.018,2.468-2.132,4.889-3.318,7.28-1.567-1.472-3.112-2.942-4.584-4.414-.831-.831-2.09.48-1.264,1.309,1.368,1.368,2.8,2.733,4.253,4.1q-5.236.323-10.472.644c-1.164.073-1.117,1.891.057,1.82q5.662-.348,11.329-.7a.857.857,0,0,0,.632-.31c2.575,2.412,5.2,4.849,7.729,7.37a54.95,54.95,0,0,0-9.907,1.484c-2.927.682-5.926,1.16-8.2,3.249-.864.793.452,2.052,1.311,1.261,2.2-2.019,5.746-2.407,8.562-3.032a46.41,46.41,0,0,1,9.67-1.207.961.961,0,0,0,.23-.05,80.154,80.154,0,0,1,6.281,7.195c-9.095.928-18.123,2.629-25.1,9.012-.866.793.45,2.049,1.309,1.264,6.915-6.326,16.055-7.72,25.051-8.579.741,1.058,1.46,2.125,2.1,3.228.476.814.932,1.645,1.394,2.473-4.409,1-9.093,1.739-13.019,4.075a28.582,28.582,0,0,0-8.286,8.174c-.684.947.914,1.82,1.59.883a25.392,25.392,0,0,1,8.617-8.051c3.656-1.889,8-2.5,11.982-3.42l.036,0A134.856,134.856,0,0,1,515.25,222.4c5.95,21.527,5.225,44.208,4.5,66.312C519.711,289.877,521.528,289.821,521.566,288.652Z" transform="translate(-457.221 -154.853)" fill="#4d8593"/>
        </g>
        <g id="Group_1196" data-name="Group 1196" transform="translate(78.906 49.329)">
          <path id="Path_2085" data-name="Path 2085" d="M498.918,186.26c1.815-6.873,6.323-13.622,13.187-16.022,8.326-2.911,14.891,3.138,21.273,8.17-.8-5.914-6.771-8.979-10.415-13.019,22.3-7.881,46.473,1.034,46.473,1.034s10.524,20.762,9.261,28.993c-3.917-1.976-7.658-4.362-11.85-5.933C570.607,192,575.4,199.759,576,205.94c.5,5.192-5.124,12.82-8.5,16.8-6.676,7.867-25.768,21.037-33.246,6.7-6.241-11.958.9-24.7-17.655-24.677C502.7,204.786,494.62,202.537,498.918,186.26Z" transform="translate(-497.762 -162.135)" fill="url(#linear-gradient-24)"/>
        </g>
      </g>
      <g id="Group_1202" data-name="Group 1202" transform="translate(27.133 77.774)">
        <g id="Group_1198" data-name="Group 1198" transform="translate(30.77)">
          <path id="Path_2086" data-name="Path 2086" d="M488.894,198.707c.1-4.823,1.99-9.992,6.132-12.671,5.022-3.249,10.316-.312,15.329,1.983-1.472-3.77-5.9-4.837-8.946-6.915,13.442-8.764,30.8-6.75,30.8-6.75s10.259,12,10.742,17.631a81.023,81.023,0,0,0-8.761-2.016c2.883,1.055,7.282,5.405,8.664,9.384,1.16,3.344-1.33,9.27-2.92,12.434-3.14,6.255-13.62,17.989-20.843,9.739-6.025-6.887-3.356-16.427-15.584-13.445C494.351,210.313,488.664,210.123,488.894,198.707Z" transform="translate(-488.887 -174.155)" fill="url(#linear-gradient-24)"/>
          <path id="Path_2087" data-name="Path 2087" d="M492.72,267.363c-.542-16.507-1.018-33.45,3.839-49.429a97.574,97.574,0,0,1,7.431-17.875c-1.349-.819-2.534-2.175-3.857-2.961a22.085,22.085,0,0,0-7.116-2.632c-.814-.159-.44-1.394.369-1.238a23.58,23.58,0,0,1,6.281,2.142,21.74,21.74,0,0,1,2.769,1.69c.665.48,1.422,1.292,2.2,1.832.547-.963,1.105-1.912,1.683-2.826.2-.322.438-.627.651-.942a26.432,26.432,0,0,0-6.809-6.927c-.677-.476-.009-1.579.672-1.1a28.168,28.168,0,0,1,6.91,6.915,55.18,55.18,0,0,1,5-5.793,32.173,32.173,0,0,0-4.116-8.333c-.469-.684.663-1.3,1.129-.625a33.181,33.181,0,0,1,3.985,7.942c1.841-1.837,3.756-3.611,5.637-5.37q-1.349-2.684-2.5-5.46c-.312-.76.814-1.394,1.129-.627.722,1.751,1.512,3.469,2.355,5.164,1.11-1.044,2.206-2.085,3.252-3.131.587-.589,1.481.343.895.93-.97.968-1.986,1.938-3.017,2.911q3.717.227,7.429.457c.828.05.793,1.34-.038,1.29l-8.037-.495a.609.609,0,0,1-.45-.222c-1.825,1.711-3.687,3.441-5.481,5.23a38.7,38.7,0,0,1,7.026,1.053c2.078.483,4.2.821,5.817,2.3.613.563-.322,1.455-.93.9-1.557-1.434-4.075-1.709-6.073-2.151a32.871,32.871,0,0,0-6.861-.857.609.609,0,0,1-.163-.035,57.212,57.212,0,0,0-4.454,5.1c6.451.658,12.855,1.867,17.8,6.395.615.561-.319,1.453-.928.895-4.906-4.487-11.388-5.476-17.768-6.085-.525.75-1.037,1.508-1.493,2.291-.339.575-.663,1.167-.989,1.754,3.126.712,6.449,1.233,9.235,2.89a20.292,20.292,0,0,1,5.876,5.8c.485.672-.646,1.292-1.126.627a18.032,18.032,0,0,0-6.113-5.711c-2.594-1.342-5.678-1.773-8.5-2.426l-.026,0a95.694,95.694,0,0,0-8.044,19.749c-4.222,15.272-3.706,31.358-3.19,47.039C494.035,268.232,492.746,268.192,492.72,267.363Z" transform="translate(-484.098 -172.457)" fill="#4d8593"/>
        </g>
        <g id="Group_1199" data-name="Group 1199" transform="translate(0 21.561)">
          <path id="Path_2088" data-name="Path 2088" d="M519.558,203.028c-.078-3.881-1.6-8.042-4.934-10.2-4.045-2.615-8.307-.251-12.34,1.6,1.183-3.034,4.747-3.893,7.2-5.566-10.82-7.055-24.793-5.434-24.793-5.434s-8.257,9.661-8.645,14.193a65.144,65.144,0,0,1,7.05-1.624c-2.319.852-5.862,4.352-6.972,7.554-.935,2.691,1.067,7.462,2.348,10.008,2.53,5.036,10.964,14.481,16.777,7.838,4.852-5.543,2.7-13.22,12.545-10.82C515.166,212.372,519.743,212.218,519.558,203.028Z" transform="translate(-475.885 -183.265)" fill="url(#linear-gradient-24)"/>
          <path id="Path_2089" data-name="Path 2089" d="M508.513,258.292c.438-13.286.819-26.923-3.091-39.785a78.337,78.337,0,0,0-5.981-14.389c1.086-.66,2.04-1.751,3.105-2.383a17.864,17.864,0,0,1,5.73-2.12c.656-.125.353-1.119-.3-.994a18.912,18.912,0,0,0-5.055,1.723,17.258,17.258,0,0,0-2.229,1.361c-.535.386-1.145,1.039-1.768,1.474-.44-.776-.89-1.538-1.354-2.277-.163-.258-.353-.5-.525-.757a21.316,21.316,0,0,1,5.481-5.576c.544-.381.007-1.271-.542-.887a22.72,22.72,0,0,0-5.562,5.566,44.52,44.52,0,0,0-4.023-4.662,25.893,25.893,0,0,1,3.311-6.707c.379-.551-.533-1.051-.906-.5a26.753,26.753,0,0,0-3.209,6.392c-1.481-1.477-3.022-2.906-4.537-4.321q1.086-2.162,2.012-4.395c.251-.611-.656-1.122-.909-.5q-.873,2.112-1.9,4.156c-.892-.84-1.775-1.678-2.617-2.52-.473-.473-1.193.277-.719.748.779.781,1.6,1.562,2.428,2.343l-5.98.369c-.665.04-.637,1.079.033,1.039q3.234-.2,6.468-.4a.482.482,0,0,0,.36-.178c1.472,1.377,2.97,2.771,4.414,4.21a31.421,31.421,0,0,0-5.656.845c-1.671.391-3.384.663-4.681,1.855-.495.454.258,1.171.748.722,1.254-1.153,3.28-1.375,4.889-1.73a26.467,26.467,0,0,1,5.521-.691.455.455,0,0,0,.13-.028,45.547,45.547,0,0,1,3.588,4.108c-5.195.53-10.349,1.5-14.332,5.145-.495.452.256,1.171.748.722,3.948-3.611,9.166-4.409,14.3-4.9.424.606.833,1.214,1.2,1.844.27.464.533.94.8,1.413-2.516.573-5.19.994-7.434,2.326a16.31,16.31,0,0,0-4.731,4.667c-.39.542.523,1.039.909.5a14.471,14.471,0,0,1,4.92-4.6c2.087-1.079,4.57-1.427,6.842-1.955h.019a77.092,77.092,0,0,1,6.478,15.9c3.4,12.292,2.982,25.242,2.568,37.863C507.453,258.992,508.492,258.959,508.513,258.292Z" transform="translate(-471.775 -181.898)" fill="#4d8593"/>
        </g>
        <g id="Group_1200" data-name="Group 1200" transform="translate(38.784 28.165)">
          <path id="Path_2090" data-name="Path 2090" d="M495.582,199.83c1.037-3.926,3.609-7.779,7.531-9.149,4.752-1.661,8.5,1.792,12.146,4.665-.457-3.375-3.865-5.126-5.947-7.431,12.735-4.5,26.534.589,26.534.589s6.011,11.854,5.289,16.554a68.836,68.836,0,0,0-6.766-3.387c2.146,1.437,4.885,5.867,5.223,9.4.287,2.963-2.925,7.32-4.854,9.592-3.813,4.492-14.711,12.013-18.983,3.829-3.564-6.83.514-14.1-10.082-14.088C497.743,210.406,493.128,209.124,495.582,199.83Z" transform="translate(-488.654 -186.056)" fill="url(#linear-gradient-24)"/>
          <path id="Path_2091" data-name="Path 2091" d="M492.287,257.523c2.833-13.61,5.805-27.564,12.95-39.671a82.1,82.1,0,0,1,9.625-13.146c-.942-.94-1.64-2.284-2.568-3.188a18.686,18.686,0,0,0-5.3-3.566c-.634-.289-.085-1.226.547-.937a19.8,19.8,0,0,1,4.714,3,18.6,18.6,0,0,1,1.929,1.934c.45.523.909,1.339,1.432,1.934.639-.679,1.285-1.344,1.938-1.978.23-.222.483-.424.719-.639a22.273,22.273,0,0,0-4.194-7.019c-.461-.523.3-1.292.767-.767a23.708,23.708,0,0,1,4.281,7.026,46.53,46.53,0,0,1,5.237-3.746,27.072,27.072,0,0,0-1.711-7.632c-.249-.656.8-.937,1.046-.289a27.95,27.95,0,0,1,1.685,7.287c1.87-1.136,3.787-2.208,5.675-3.273-.379-1.642-.7-3.294-.958-4.963-.107-.682.94-.977,1.046-.289.244,1.576.549,3.138.9,4.691,1.115-.632,2.22-1.266,3.28-1.915a.543.543,0,0,1,.549.937c-.985.6-2.009,1.193-3.046,1.784l5.987,1.846c.665.206.381,1.254-.289,1.048l-6.475-2a.5.5,0,0,1-.324-.27c-1.834,1.037-3.7,2.083-5.524,3.19a32.571,32.571,0,0,1,5.54,2.255c1.6.807,3.275,1.505,4.3,3.039.39.582-.549,1.127-.937.547-.989-1.479-2.994-2.206-4.542-2.963a27.683,27.683,0,0,0-5.441-2.064.472.472,0,0,1-.125-.059,47.74,47.74,0,0,0-4.658,3.29c5.148,1.82,10.146,4.078,13.3,8.764.391.582-.549,1.124-.937.547-3.124-4.643-8.229-6.738-13.329-8.5-.578.509-1.146,1.027-1.676,1.576-.39.4-.771.824-1.157,1.238,2.419,1.2,5.031,2.291,6.982,4.2a17.077,17.077,0,0,1,3.656,5.907c.265.648-.786.93-1.046.289a15.191,15.191,0,0,0-3.867-5.883c-1.855-1.612-4.293-2.577-6.47-3.671l-.021-.007a80.686,80.686,0,0,0-10.5,14.559c-6.482,11.653-9.253,24.916-11.942,37.844C493.193,258.5,492.145,258.207,492.287,257.523Z" transform="translate(-492.274 -184.489)" fill="#4d8593"/>
        </g>
        <g id="Group_1201" data-name="Group 1201" transform="translate(5.152 54.682)">
          <path id="Path_2092" data-name="Path 2092" d="M506.627,205.888c-.648-2.459-2.26-4.873-4.714-5.73-2.977-1.041-5.325,1.122-7.606,2.92.284-2.113,2.419-3.211,3.723-4.655-7.976-2.819-16.616.369-16.616.369s-3.765,7.424-3.313,10.368a42.9,42.9,0,0,1,4.239-2.12,9.548,9.548,0,0,0-3.273,5.883c-.177,1.858,1.834,4.584,3.041,6.006,2.388,2.814,9.213,7.523,11.888,2.4,2.232-4.276-.322-8.832,6.314-8.825C505.276,212.512,508.163,211.708,506.627,205.888Z" transform="translate(-478.062 -197.26)" fill="url(#linear-gradient-24)"/>
          <path id="Path_2093" data-name="Path 2093" d="M508.928,242.018c-1.773-8.522-3.635-17.262-8.11-24.845a51.222,51.222,0,0,0-6.028-8.233c.589-.587,1.027-1.429,1.609-2a11.629,11.629,0,0,1,3.318-2.234c.4-.182.052-.767-.343-.587A12.459,12.459,0,0,0,496.422,206a11.213,11.213,0,0,0-1.207,1.212c-.282.327-.57.838-.9,1.209-.4-.426-.8-.843-1.212-1.238-.144-.14-.3-.267-.452-.4a13.966,13.966,0,0,1,2.627-4.395c.289-.327-.189-.809-.48-.48a14.855,14.855,0,0,0-2.681,4.4,29,29,0,0,0-3.28-2.345,17,17,0,0,1,1.072-4.781c.156-.409-.5-.587-.656-.18a17.448,17.448,0,0,0-1.053,4.563c-1.171-.71-2.374-1.382-3.557-2.049.239-1.027.443-2.064.6-3.107.066-.428-.589-.613-.655-.18-.151.987-.343,1.964-.563,2.937-.7-.4-1.389-.8-2.054-1.2a.341.341,0,0,0-.346.587c.618.376,1.259.748,1.908,1.117l-3.749,1.157c-.417.128-.239.786.182.656q2.027-.625,4.054-1.252a.328.328,0,0,0,.2-.168c1.148.648,2.317,1.3,3.458,2a20.389,20.389,0,0,0-3.469,1.411,6.362,6.362,0,0,0-2.693,1.905c-.244.364.346.705.587.343a6.872,6.872,0,0,1,2.845-1.858,17.287,17.287,0,0,1,3.408-1.29.4.4,0,0,0,.078-.038,29.551,29.551,0,0,1,2.918,2.059c-3.223,1.138-6.354,2.554-8.328,5.488-.244.364.346.705.589.343,1.955-2.909,5.152-4.22,8.345-5.325.362.32.719.644,1.051.987.244.253.483.516.724.776a16.463,16.463,0,0,0-4.373,2.629,10.679,10.679,0,0,0-2.289,3.7c-.166.4.492.582.656.182a9.5,9.5,0,0,1,2.421-3.685,19.048,19.048,0,0,1,4.052-2.3l.014,0a50.425,50.425,0,0,1,6.574,9.119c4.061,7.3,5.8,15.605,7.481,23.7C508.362,242.628,509.017,242.446,508.928,242.018Z" transform="translate(-476.032 -196.279)" fill="#4d8593"/>
        </g>
      </g>
      <path id="Path_2094" data-name="Path 2094" d="M537.686,319.822c0-23.295-4.208-44.045-10.77-57.478a111.227,111.227,0,0,1-10.934-48.875H502.526a111.261,111.261,0,0,1-10.934,48.875c-6.563,13.433-10.773,34.183-10.773,57.478,0,32.288,8.089,59.684,19.319,69.488v5.178H518.37v-5.178C529.6,379.506,537.686,352.11,537.686,319.822Z" transform="translate(-442.01 -42.653)" fill="url(#linear-gradient-31)"/>
    </g>
  </g>
</svg>
