<svg xmlns="http://www.w3.org/2000/svg" width="167.727" height="196.248" viewBox="0 0 167.727 196.248">
  <g id="Group_1207" data-name="Group 1207" transform="translate(-31.137 -56.821)">
    <path id="Path_1036" data-name="Path 1036" d="M115.446,253.069a18,18,0,0,1-9.322-2.57l-65.242-39.08a19.748,19.748,0,0,1-9.387-16.845l-.357-78.64a19.711,19.711,0,0,1,9.234-16.915l64.884-39.56a17.955,17.955,0,0,1,18.622-.068L189.12,98.47a19.751,19.751,0,0,1,9.387,16.845l.357,78.64a19.709,19.709,0,0,1-9.233,16.915l-64.886,39.56A17.978,17.978,0,0,1,115.446,253.069Zm-.865-190.678a12.831,12.831,0,0,0-6.641,1.882l-64.886,39.56a14.079,14.079,0,0,0-6.594,12.081l.357,78.64a14.1,14.1,0,0,0,6.7,12.03l65.241,39.08a12.822,12.822,0,0,0,13.3-.049l64.886-39.56a14.077,14.077,0,0,0,6.594-12.08l-.357-78.64a14.107,14.107,0,0,0-6.7-12.032l-65.242-39.08A12.86,12.86,0,0,0,114.581,62.391Z" transform="translate(0 0)" fill="#ffc155"/>
    <path id="Path_1037" data-name="Path 1037" d="M112.383,234.11a7.874,7.874,0,0,1-3.924-1.047L43.08,195.439a7.84,7.84,0,0,1-3.923-6.773v-75.25a7.839,7.839,0,0,1,3.923-6.773l65.379-37.625a8,8,0,0,1,7.847,0l65.379,37.624a7.839,7.839,0,0,1,3.923,6.773v75.25a7.834,7.834,0,0,1-3.923,6.772l-65.379,37.627A7.883,7.883,0,0,1,112.383,234.11Zm0-163.487a5.211,5.211,0,0,0-2.593.693L44.41,108.942a5.176,5.176,0,0,0-2.592,4.475v75.25a5.183,5.183,0,0,0,2.592,4.476l65.379,37.624a5.287,5.287,0,0,0,5.185,0l65.379-37.625a5.177,5.177,0,0,0,2.592-4.475v-75.25a5.179,5.179,0,0,0-2.592-4.476L114.975,71.316A5.207,5.207,0,0,0,112.383,70.624Z" transform="translate(2.652 3.893)" fill="#031e6d"/>
    <g id="Group_597" data-name="Group 597" transform="translate(54.447 184.634)">
      <path id="Path_1038" data-name="Path 1038" d="M66.1,174.159a13.4,13.4,0,0,0-3.433-5.39A13.587,13.587,0,0,0,65.948,180.3l-4.761-2.694a15,15,0,0,0-.42-6.265,12.441,12.441,0,0,0-3.173-5.143,14.384,14.384,0,0,0,.3,6.264,13.625,13.625,0,0,0,2.648,4.782l-2.386-1.35a12.51,12.51,0,0,0-4-3.746,11.376,11.376,0,0,0-5.5-1.343,11.6,11.6,0,0,0,4,4.051,12.3,12.3,0,0,0,5.243,1.5l2.382,1.358a13.2,13.2,0,0,0-5.4.209,13.958,13.958,0,0,0-5.43,3.01,12.108,12.108,0,0,0,5.986.057,14.571,14.571,0,0,0,5.491-2.91l4.753,2.707a13.153,13.153,0,0,0-11.417,3.187,13.038,13.038,0,0,0,6.328.151,14.96,14.96,0,0,0,5.773-2.948l5.08,2.894a15.307,15.307,0,0,0-6.064.055,14.676,14.676,0,0,0-5.989,3.088,14.1,14.1,0,0,0,6.7.258,15.424,15.424,0,0,0,6.081-2.983l5.442,3.1a16.512,16.512,0,0,0-6.441-.039,15.071,15.071,0,0,0-6.307,3.125,15.3,15.3,0,0,0,7.116.379,15.924,15.924,0,0,0,6.419-3.017l5.847,3.33a17.992,17.992,0,0,0-6.862-.148,15.547,15.547,0,0,0-6.657,3.16,16.671,16.671,0,0,0,7.574.518,16.494,16.494,0,0,0,6.79-3.048l6.3,3.586a19.574,19.574,0,0,0-7.326-.272,16.062,16.062,0,0,0-7.043,3.188,18.218,18.218,0,0,0,8.079.677,17.141,17.141,0,0,0,7.2-3.073l6.8,3.872a21.474,21.474,0,0,0-7.844-.417,16.643,16.643,0,0,0-7.469,3.215,20.009,20.009,0,0,0,8.641.858,17.857,17.857,0,0,0,7.658-3.095l7.077,4.032a.386.386,0,0,0,.536-.1.4.4,0,0,0-.2-.512l-7.089-4.011a18.453,18.453,0,0,0-1.4-8.234,20.518,20.518,0,0,0-5.237-7.021,17.189,17.189,0,0,0,1.2,8.135,22.088,22.088,0,0,0,4.45,6.561l-6.809-3.852a17.725,17.725,0,0,0-1.176-7.83,18.676,18.676,0,0,0-4.79-6.628,16.585,16.585,0,0,0,1,7.752,20.153,20.153,0,0,0,4.056,6.19L85.4,191.3a15.981,15.981,0,0,0-5.376-13.735,16.036,16.036,0,0,0,.821,7.4,18.464,18.464,0,0,0,3.707,5.851L78.7,187.513a16.438,16.438,0,0,0-.814-7.123,15.69,15.69,0,0,0-4.037-5.953,15.55,15.55,0,0,0,.665,7.083,17,17,0,0,0,3.4,5.547l-5.451-3.084a15.9,15.9,0,0,0-.667-6.813,14.474,14.474,0,0,0-3.719-5.66A15.111,15.111,0,0,0,68.6,178.3a15.737,15.737,0,0,0,3.12,5.269l-5.088-2.878A15.46,15.46,0,0,0,66.1,174.159Z" transform="translate(-48.655 -166.197)" fill="#f98900"/>
      <path id="Path_1039" data-name="Path 1039" d="M134.393,174.159a13.388,13.388,0,0,1,3.432-5.39,13.581,13.581,0,0,1-3.281,11.532l4.76-2.694a15.028,15.028,0,0,1,.42-6.265A12.451,12.451,0,0,1,142.9,166.2a14.373,14.373,0,0,1-.3,6.264,13.605,13.605,0,0,1-2.647,4.782l2.386-1.35a12.51,12.51,0,0,1,4-3.746,11.373,11.373,0,0,1,5.5-1.343,11.6,11.6,0,0,1-4,4.051,12.305,12.305,0,0,1-5.243,1.5l-2.383,1.358a13.208,13.208,0,0,1,5.406.209,13.971,13.971,0,0,1,5.43,3.01,12.108,12.108,0,0,1-5.986.057,14.571,14.571,0,0,1-5.491-2.91l-4.753,2.707a13.155,13.155,0,0,1,11.417,3.187,13.038,13.038,0,0,1-6.328.151,14.96,14.96,0,0,1-5.773-2.948l-5.08,2.894a15.307,15.307,0,0,1,6.064.055,14.665,14.665,0,0,1,5.988,3.088,14.093,14.093,0,0,1-6.7.258,15.424,15.424,0,0,1-6.081-2.983l-5.443,3.1a16.52,16.52,0,0,1,6.443-.039,15.071,15.071,0,0,1,6.307,3.125,15.3,15.3,0,0,1-7.117.379,15.934,15.934,0,0,1-6.419-3.017l-5.845,3.33a17.986,17.986,0,0,1,6.861-.148,15.547,15.547,0,0,1,6.658,3.16,15.494,15.494,0,0,1-14.365-2.53l-6.294,3.586a19.575,19.575,0,0,1,7.326-.272,16.052,16.052,0,0,1,7.042,3.188,18.211,18.211,0,0,1-8.078.677,17.157,17.157,0,0,1-7.2-3.073l-6.8,3.872a21.474,21.474,0,0,1,7.844-.417,16.652,16.652,0,0,1,7.469,3.215,20.009,20.009,0,0,1-8.641.858,17.873,17.873,0,0,1-7.659-3.095l-7.076,4.032a.386.386,0,0,1-.536-.1.4.4,0,0,1,.2-.512l7.088-4.011a18.48,18.48,0,0,1,1.4-8.234,20.505,20.505,0,0,1,5.236-7.021,17.189,17.189,0,0,1-1.2,8.135,22.063,22.063,0,0,1-4.448,6.561l6.809-3.852a17.7,17.7,0,0,1,1.176-7.83,18.664,18.664,0,0,1,4.789-6.628,16.574,16.574,0,0,1-1,7.752,20.176,20.176,0,0,1-4.057,6.19l6.306-3.567a15.981,15.981,0,0,1,5.376-13.735,16.036,16.036,0,0,1-.821,7.4,18.464,18.464,0,0,1-3.708,5.851l5.856-3.312a16.438,16.438,0,0,1,.814-7.123,15.69,15.69,0,0,1,4.037-5.953,15.54,15.54,0,0,1-.667,7.083,17,17,0,0,1-3.4,5.547l5.451-3.084a15.9,15.9,0,0,1,.667-6.813,14.474,14.474,0,0,1,3.719-5.66,15.111,15.111,0,0,1-.531,6.789,15.737,15.737,0,0,1-3.12,5.269l5.088-2.878A15.438,15.438,0,0,1,134.393,174.159Z" transform="translate(-34.076 -166.197)" fill="#f98900"/>
    </g>
    <rect id="Rectangle_210" data-name="Rectangle 210" width="143.789" height="54.085" transform="translate(42.42 132.681)" fill="#34425e"/>
    <text id="THE_FUTURE_UNIVERSITY_" data-name="THE FUTURE
UNIVERSITY " transform="translate(60.242 156.812)" fill="#fff" font-size="20" font-family="SegoeUI, Segoe UI"><tspan x="0" y="0">THE FUTURE</tspan><tspan x="0" y="24">UNIVERSITY </tspan></text>
    <g id="Group_601" data-name="Group 601" transform="translate(92.61 87.201)">
      <g id="Group_598" data-name="Group 598" transform="translate(8.553 18.591)">
        <rect id="Rectangle_211" data-name="Rectangle 211" width="4.834" height="22.398" fill="#f98900"/>
        <rect id="Rectangle_212" data-name="Rectangle 212" width="4.834" height="22.398" transform="translate(7.597)" fill="#f98900"/>
        <rect id="Rectangle_213" data-name="Rectangle 213" width="4.834" height="22.398" transform="translate(15.194)" fill="#f98900"/>
        <rect id="Rectangle_214" data-name="Rectangle 214" width="4.834" height="22.398" transform="translate(22.791)" fill="#f98900"/>
      </g>
      <g id="Group_600" data-name="Group 600">
        <g id="Group_599" data-name="Group 599">
          <path id="Path_1040" data-name="Path 1040" d="M86.3,99.533a8.861,8.861,0,0,1-6.1-2.456,9.124,9.124,0,0,1-2.857-6.361,7.542,7.542,0,0,1,7.212-7.833,6.266,6.266,0,0,1,6.457,6.108A5.346,5.346,0,0,1,89.6,92.814a5.2,5.2,0,0,1-3.667,1.692A4.524,4.524,0,0,1,81.3,90.128a3.9,3.9,0,0,1,1.033-2.794A3.808,3.808,0,0,1,85.017,86.1a1.314,1.314,0,0,1,1.375,1.3,1.34,1.34,0,0,1-1.284,1.393,1.173,1.173,0,0,0-.826.382,1.206,1.206,0,0,0-.318.86,1.833,1.833,0,0,0,1.877,1.776,2.567,2.567,0,0,0,1.811-.836,2.635,2.635,0,0,0,.7-1.889,3.61,3.61,0,0,0-3.706-3.506A4.856,4.856,0,0,0,80,90.623a6.435,6.435,0,0,0,2.012,4.483,6.241,6.241,0,0,0,4.551,1.726h25.187a6.227,6.227,0,0,0,4.6-1.725,6.431,6.431,0,0,0,2.013-4.483,4.857,4.857,0,0,0-4.644-5.044,3.593,3.593,0,0,0-3.706,3.506,2.642,2.642,0,0,0,.7,1.889,2.57,2.57,0,0,0,1.812.836,1.805,1.805,0,0,0,1.876-1.775,1.2,1.2,0,0,0-.318-.862,1.167,1.167,0,0,0-.825-.382A1.34,1.34,0,0,1,111.97,87.4a1.311,1.311,0,0,1,1.375-1.3,3.805,3.805,0,0,1,2.68,1.237,3.9,3.9,0,0,1,1.033,2.8,4.521,4.521,0,0,1-4.628,4.377,5.311,5.311,0,0,1-5.078-5.514,6.277,6.277,0,0,1,6.457-6.109,7.544,7.544,0,0,1,7.212,7.833,9.125,9.125,0,0,1-2.858,6.361,8.9,8.9,0,0,1-6.457,2.45H86.61C86.506,99.531,86.4,99.533,86.3,99.533Z" transform="translate(-77.337 -82.879)" fill="#f98900"/>
        </g>
        <path id="Path_1041" data-name="Path 1041" d="M102.2,90.044H89.2a1.349,1.349,0,0,1,0-2.7H102.2a1.349,1.349,0,0,1,0,2.7Z" transform="translate(-73.856 -81.321)" fill="#f98900"/>
        <path id="Path_1042" data-name="Path 1042" d="M104.591,93.158H87.759a1.349,1.349,0,0,1,0-2.7h16.832a1.349,1.349,0,0,1,0,2.7Z" transform="translate(-74.331 -80.236)" fill="#f98900"/>
      </g>
    </g>
    <g id="Group_603" data-name="Group 603" transform="translate(90.346 186.503)">
      <path id="Path_1043" data-name="Path 1043" d="M96.05,166.266l3.262,5.75,6.4,1.367-4.388,4.921.7,6.595-5.973-2.709L90.076,184.9l.7-6.595-4.388-4.921,6.4-1.367Z" transform="translate(-72.081 -166.133)" fill="#031e6d"/>
      <g id="Group_602" data-name="Group 602" transform="translate(0)">
        <path id="Path_1044" data-name="Path 1044" d="M80.467,166.168l1.631,2.875,3.2.684-2.194,2.46.348,3.3-2.987-1.354-2.987,1.354.348-3.3-2.194-2.46,3.2-.684Z" transform="translate(-75.635 -166.168)" fill="#031e6d"/>
        <path id="Path_1045" data-name="Path 1045" d="M109.231,166.168l1.631,2.875,3.2.684-2.194,2.46.348,3.3-2.987-1.354-2.987,1.354.348-3.3-2.194-2.46,3.2-.684Z" transform="translate(-66.125 -166.168)" fill="#031e6d"/>
      </g>
    </g>
  </g>
</svg>
