<svg xmlns="http://www.w3.org/2000/svg" xmlns:xlink="http://www.w3.org/1999/xlink" width="1655.013" height="653.074" viewBox="0 0 1655.013 653.074">
  <defs>
    <clipPath id="clip-path">
      <path id="Path_1389" data-name="Path 1389" d="M1474.953,1185.682h-364l-41.226-134.762-3.16-10.331-2.693-8.812-6.327-20.668h358.756l6.94,20.668,2.963,8.813,3.474,10.331Z" transform="translate(-1057.551 -1011.108)" fill="none"/>
    </clipPath>
  </defs>
  <g id="Group_706" data-name="Group 706" transform="translate(-324.366 -609.709)">
    <path id="Path_1218" data-name="Path 1218" d="M1879.013,1262.4s191.2-180.875,32.336-376.7c-140.957-173.747-305.3-161.871-425.874-91.363-51.354,30.03-237.219,166.474-363.237-10.321-171.855-241.1-729.76-257.644-621.143,113.294,52.563,179.508-210.4,186.032-102.111,365.469Z" transform="translate(-48.191 0)" fill="#ebf3fa"/>
    <g id="girl_2" data-name="girl 2" transform="translate(413.424 940.321)">
      <path id="Path_1219" data-name="Path 1219" d="M663.485,1314.681s-53.653,21.144-63.393,20.759-69.753-16.535-69.753-16.535l1.528,9.339s46.314,24.094,62.506,25.46c15.941,1.346,70.449-12.941,75.711-15.957S678.779,1317.733,663.485,1314.681Z" transform="translate(-518.126 -1236.01)" fill="#ed985f"/>
      <path id="Path_1220" data-name="Path 1220" d="M734.234,1180.061s19.793-3.4,29.651,3.111c17.857,11.8,18.816,52.462,25.509,58.519s22.825,3.474,24.262,34.818-6.423,33.966,2.937,47.958-3.96,28-3.96,28,5.455-7.724,3.117-13.3c0,0-2.271,12.3-10.913,15.188s-9.92,5-11.3,9.229c0,0-73.724-34.171-73.805-58.408s-14.508-48.245-7.423-58.748a21.892,21.892,0,0,0-3.542,9.491s-4.251-7.367,3.118-14.226-8.644-21.052-6.273-37.49C707.239,1192.916,715.994,1180.552,734.234,1180.061Z" transform="translate(-580.814 -1179.173)" fill="#233862"/>
      <path id="Path_1221" data-name="Path 1221" d="M727.622,1317.679a54.574,54.574,0,0,0,18.038,6.943c27.8,5.811,38.459-15.445,42.461-30.035a25.791,25.791,0,0,0-9.42-2.618c-2.01-.214-4.123-.357-5.874-.436-3.122-2.163-7.774-11.016-8.8-24.76l-1.308.317-21.913,5.426s1,6.3,1.5,12.255c.381,4.661.44,9.114-.536,10.2-1.71.336-2.735.555-2.735.555a.05.05,0,0,1-.012.018A122.813,122.813,0,0,0,727.622,1317.679Z" transform="translate(-588.783 -1215.916)" fill="#ffb27d"/>
      <path id="Path_1222" data-name="Path 1222" d="M748.158,1272.751s1.008,6.3,1.5,12.255c12.415-1.124,18.176-11.815,20.418-17.68Z" transform="translate(-596.138 -1216.148)" fill="#ed985f"/>
      <path id="Path_1223" data-name="Path 1223" d="M735.535,1253.794s29.467-1.47,28.172-18.055,1.636-27.943-17.233-27.706-22.026,6.8-23.081,12.43S727.837,1253.75,735.535,1253.794Z" transform="translate(-587.222 -1191.277)" fill="#ffb27d"/>
      <path id="Path_1224" data-name="Path 1224" d="M721.232,1208.717c4.154-5.284,7.679-4.412,9.724-3.037,15.452-9.044,26.757,2.111,26.757,2.111,2.913,11.771,12.939,17.972,12.939,17.972s-5.127,3.345-17.722,1.271c-3.848-.634-7.413-2.844-10.513-5.6a65.766,65.766,0,0,0,12.852,12.289c-15.263-5.218-22.668-23.418-23.415-25.344-1.681,1.575-4.971,4.976-5.8,8.153-1.133,4.318-6.017,11.069-8.842,10.955C717.208,1227.485,715,1216.64,721.232,1208.717Z" transform="translate(-584.918 -1188.808)" fill="#233862"/>
      <path id="Path_1225" data-name="Path 1225" d="M786.479,1387.742c2.661-12.305,11.337-61.465,2.661-77.284-3.116-5.683-15.344-6.2-28.758-5.7-4.175,2.438-20.081,11.65-26.615,10.5-.07-.012-.2-.039-.366-.078-3.076-.7-4.238-2.651-1.672-4.336a64.632,64.632,0,0,0-14.9.825c-4.66.794-17.231,6.677-17.231,6.677s6.331,10.344,15.665,13.915c-1.587,12.842.773,18.508,15.5,48.172,12.447,25.074-1.679,47.649-1.679,47.649s73.27,53.286,73.678,26.155C803.075,1433.814,783.078,1403.468,786.479,1387.742Z" transform="translate(-578.748 -1231.787)" fill="#b5453c"/>
      <path id="Path_1226" data-name="Path 1226" d="M701.636,1511.772a13.9,13.9,0,0,1-9.8-5.4q-.53-.718-1.132-1.543c-8.341-11.42-11.586-46.394-30.346-83.654-4.569-9.071-20.972-10.7-25.444-20.958,0,0-11.008-33.236,21.07-34.217s85.91,92.479,86.761,102.28C743.569,1477.78,763.953,1518.133,701.636,1511.772Z" transform="translate(-554.927 -1257.534)" fill="#dd6d22"/>
      <path id="Path_1227" data-name="Path 1227" d="M541.244,1600.293H586.9s1.707-6.587-1.291-11.069c-2.653-3.966-1.637-6.225.328-9.506a19.387,19.387,0,0,1-7.69,1.31,17.212,17.212,0,0,1-6.79-2.16c-1.965,2.026-10.379,10.652-13.008,12.361C555.467,1593.167,542.162,1592.477,541.244,1600.293Z" transform="translate(-522.031 -1346.818)" fill="#9e332e"/>
      <path id="Path_1228" data-name="Path 1228" d="M788.935,1336.875s5.942,48.9-32.6,59.15-49.478-45-18.363-48.969S788.935,1336.875,788.935,1336.875Z" transform="translate(-586.017 -1245.319)" fill="#9e332e"/>
      <path id="Path_1229" data-name="Path 1229" d="M615.6,1374.664c-2.749,18.644-13.485,77.487-32.424,106.2-6.106,9.255,15.383,14.444,15.5,14.417,2.883-.682,7.684-4.838,9.9-6.643,15.375-12.534,46.587-48.025,46.587-76.479,0-13.874.27-40.371-10.884-47.105C637.411,1360.9,616.7,1367.26,615.6,1374.664Z" transform="translate(-536.66 -1256.586)" fill="#ed7d2b"/>
      <path id="Path_1230" data-name="Path 1230" d="M744.078,1509.477s-1.692-2.13-4.642-6.175c-3.511-4.81-7.4-14.277-12.112-26.412-4.952-12.739-10.827-28.412-18.169-44.719-2.266-5.033-4.672-10.128-7.231-15.215-4.569-9.071-17.14-7.817-21.612-18.073,0,0-17.45-35.548,14.628-36.528s93.034,95.094,96.537,104.4C795.311,1476.939,814.02,1519.236,744.078,1509.477Z" transform="translate(-570.142 -1256.002)" fill="#f99746"/>
      <path id="Path_1231" data-name="Path 1231" d="M593.462,1600.293h45.657s1.707-6.587-1.29-11.069c-2.654-3.966-1.637-6.225.328-9.506a19.382,19.382,0,0,1-7.69,1.31,17.207,17.207,0,0,1-6.789-2.16c-1.965,2.026-10.379,10.652-13.008,12.361C607.685,1593.167,594.38,1592.477,593.462,1600.293Z" transform="translate(-540.733 -1346.818)" fill="#b5453c"/>
      <path id="Path_1232" data-name="Path 1232" d="M746.063,1507.453c-4.952-12.739-10.828-28.412-18.169-44.719,1.917-12.355,6.053-23.163,13.008-27.52C740.9,1435.214,757.775,1482.493,746.063,1507.453Z" transform="translate(-588.881 -1286.565)" fill="#ed7d2b"/>
      <path id="Path_1233" data-name="Path 1233" d="M660.958,1373.877c-2.75,18.644-6.621,78.809-25.56,107.518-6.106,9.255,15.383,14.443,15.5,14.417,2.882-.682,7.683-4.838,9.9-6.643,15.375-12.534,46.588-48.025,46.588-76.479,0-13.874-18-39.258-29.154-45.993C671.359,1362.549,662.05,1366.473,660.958,1373.877Z" transform="translate(-555.362 -1257.119)" fill="#f99746"/>
      <g id="Group_660" data-name="Group 660" transform="translate(0 54.364)">
        <path id="Path_1234" data-name="Path 1234" d="M520.34,1277.32l46.758-4.492a3.058,3.058,0,0,1,3.14,1.744l16.729,39.762a2.761,2.761,0,0,1-2.7,3.7l-46.4,1.693a3.052,3.052,0,0,1-2.906-1.675l-17.09-36.963A2.733,2.733,0,0,1,520.34,1277.32Z" transform="translate(-513.577 -1272.812)" fill="#9e332e"/>
        <path id="Path_1235" data-name="Path 1235" d="M514.012,1277.981l46.758-4.492a3.057,3.057,0,0,1,3.139,1.744L580.639,1315a2.761,2.761,0,0,1-2.7,3.7l-46.4,1.694a3.052,3.052,0,0,1-2.906-1.675l-17.09-36.963A2.734,2.734,0,0,1,514.012,1277.981Z" transform="translate(-511.31 -1273.09)" fill="#b5453c"/>
        <path id="Path_1236" data-name="Path 1236" d="M555.8,1311.36a1.763,1.763,0,0,1,1.807-2.57,4.481,4.481,0,0,1,3.875,2.57,1.763,1.763,0,0,1-1.807,2.57A4.48,4.48,0,0,1,555.8,1311.36Z" transform="translate(-527.178 -1287.902)" fill="#9e332e"/>
        <path id="Path_1237" data-name="Path 1237" d="M517.649,1286.8a.866.866,0,0,1,.888-1.263,2.2,2.2,0,0,1,1.9,1.263.866.866,0,0,1-.888,1.263A2.2,2.2,0,0,1,517.649,1286.8Z" transform="translate(-513.548 -1278.149)" fill="#9e332e"/>
      </g>
      <path id="Path_1238" data-name="Path 1238" d="M728.831,1310.218s-64.8,21.586-74.539,21.144c-6.294-.287-58.606-16.919-58.606-16.919s-3.881-5.4-8.1-6.527c0,0-7.436-3.086-9.562-3.662s-1.7.009-1.063,1.831a6.9,6.9,0,0,0,2.585,2.615c-3.574.89-7.1,2.093-8.75,2.379-2.763.481-10.628,2.788-8.289,6.249s13.178,4.23,17.854,3.461,10.628,1.691,10.628,1.691,50.916,29.6,64.914,29.454c27.635-.289,74.265-15.633,79.528-18.649S744.125,1313.27,728.831,1310.218Z" transform="translate(-529.494 -1231.546)" fill="#ffb27d"/>
      <path id="Path_1239" data-name="Path 1239" d="M522.924,1310.892s4.689-6.709,6.224-6.983c4.678-.836,4.678,4.735,3.686,8.328-1.065,3.855-4.667,7.494-5.664,7.176S521.821,1314.436,522.924,1310.892Z" transform="translate(-515.406 -1231.456)" fill="#ffb27d"/>
      <path id="Path_1240" data-name="Path 1240" d="M522.683,1318.315s-1.5,7.526,6.4,11.453Z" transform="translate(-515.343 -1237.534)" fill="#ffb27d"/>
      <path id="Path_1241" data-name="Path 1241" d="M733.788,1270s2.786-1,10.625-.422c0,0-.416,2.767-6.2,3.04A4.571,4.571,0,0,1,733.788,1270Z" transform="translate(-590.992 -1217.015)" fill="#fff"/>
      <path id="Path_1242" data-name="Path 1242" d="M769.863,1324.343a34.133,34.133,0,0,0,25.7,20.372s32.871-9.16,16.5-29.416C812.068,1315.3,795.886,1304.424,769.863,1324.343Z" transform="translate(-603.912 -1235.026)" fill="#b5453c"/>
    </g>
    <g id="Group_668" data-name="Group 668" transform="translate(501.927 667.796)">
      <g id="Group_667" data-name="Group 667" transform="translate(0 0)">
        <g id="Group_661" data-name="Group 661" transform="translate(52.317)">
          <path id="Path_1243" data-name="Path 1243" d="M740.142,856.546c0-1.677.042-3.391.083-5.068a127.816,127.816,0,0,1,7-36.669c-3.461.112-6.8.3-10.011.484a130.539,130.539,0,0,0-6.1,31c-.247,3.13-.371,6.261-.412,9.428v.82c0,3.168.124,6.335.33,9.465,3.172,1.342,6.427,2.608,9.846,3.876-.329-2.982-.576-6-.659-9.018C740.184,859.416,740.142,858,740.142,856.546Zm302.393-57.127a145.731,145.731,0,0,0-34.771-46.656,164.117,164.117,0,0,0-51.58-31.488,179.069,179.069,0,0,0-126.354,0c-2.39.931-4.779,1.9-7.086,2.906-3.831,1.677-7.622,3.465-11.247,5.4a158.731,158.731,0,0,0-33.247,23.178c-2.1,1.863-4.119,3.8-6.1,5.813-2.472,2.459-4.82,5.031-7.086,7.64a148.66,148.66,0,0,0-10.052,13.005c-1.73,2.5-3.337,5.068-4.9,7.639a138.3,138.3,0,0,0-6.633,12.558c-1.524,3.242-2.884,6.484-4.12,9.8-.783,2.012-1.483,4.025-2.142,6.074a130.539,130.539,0,0,0-6.1,31c-.247,3.13-.371,6.261-.412,9.428v.82c0,3.168.124,6.335.33,9.465.164,2.571.453,5.143.782,7.714a132.8,132.8,0,0,0,11.659,39.948,146.277,146.277,0,0,0,34.771,46.692,164.688,164.688,0,0,0,51.58,31.452,179.067,179.067,0,0,0,126.354,0,164.689,164.689,0,0,0,51.58-31.452,146.527,146.527,0,0,0,34.112-45.313c.206-.447.453-.932.659-1.379.906-1.938,1.771-3.876,2.555-5.813a134.066,134.066,0,0,0-2.555-108.44Zm-8.569,110.751c-.041.074-.041.111-.082.186-1.03,2.162-2.1,4.323-3.255,6.447a138.493,138.493,0,0,1-29.538,37.526,153.568,153.568,0,0,1-48.572,29.625,168.181,168.181,0,0,1-119.021,0,154.013,154.013,0,0,1-48.572-29.625,138.091,138.091,0,0,1-32.794-43.973,126.031,126.031,0,0,1-10.217-32.942c-.453-2.5-.783-4.993-1.03-7.527-.329-2.982-.576-6-.659-9.018-.041-1.454-.083-2.87-.083-4.323,0-1.677.042-3.391.083-5.068a127.816,127.816,0,0,1,7-36.669c.7-2.012,1.442-3.987,2.266-5.962.824-2.05,1.689-4.1,2.637-6.112,1.359-2.832,2.76-5.627,4.284-8.347,1.442-2.608,2.967-5.143,4.573-7.64A139.933,139.933,0,0,1,776.4,767.111c2.389-2.534,4.861-4.993,7.457-7.378l1.071-.969a153.378,153.378,0,0,1,39.385-25.787c3.008-1.379,6.056-2.646,9.187-3.838.824-.336,1.689-.633,2.513-.932a168.2,168.2,0,0,1,116.508.932,153.566,153.566,0,0,1,48.572,29.625,138.1,138.1,0,0,1,32.793,43.972,126.733,126.733,0,0,1,.082,107.434Z" transform="translate(-730.708 -709.761)" fill="#adcbf9"/>
        </g>
        <g id="Group_662" data-name="Group 662" transform="translate(0 99.087)">
          <path id="Path_1244" data-name="Path 1244" d="M1043.54,957.72l-12.565-.261c4.037,4.733,4.943,9.093,2.431,12.782-2.513,3.764-8.528,6.857-17.509,9.2a111.133,111.133,0,0,1-11.124,2.311,276.111,276.111,0,0,1-40.745,2.981c-40.539.447-90.882-4.546-141.721-13.974-34.236-6.372-65.875-14.235-92.365-22.88-4.038-1.3-7.951-2.646-11.7-3.987-2.225-.783-4.408-1.6-6.551-2.422-3.419-1.267-6.674-2.534-9.846-3.876-2.225-.895-4.367-1.826-6.469-2.758-29.209-12.894-42.557-25.34-36.583-34.171,4.819-7.155,22.37-12,49.232-13.788,3.213-.186,6.55-.373,10.011-.484.7-2.012,1.442-3.987,2.266-5.962-3.5.074-6.88.224-10.135.373-33.865,1.826-51.992,7.217-58.583,16.981-7.663,11.365,2.8,26.619,36.3,41.45,4.614,2.049,9.558,4.062,14.749,6.074,3.255,1.23,6.633,2.459,10.094,3.689l4.82,1.677c3.955,1.341,7.992,2.683,12.153,3.987,26.037,8.161,56.359,15.539,88.9,21.613,45.524,8.422,90.759,13.415,129.444,14.235,5.685.149,11.206.149,16.562.111a325.254,325.254,0,0,0,36.831-2.236c4-.484,7.745-1.08,11.247-1.751,16.521-3.093,27.4-7.937,31.723-14.347C1047.412,967.856,1047.042,962.937,1043.54,957.72Z" transform="translate(-649.198 -880.433)" fill="#adcbf9"/>
        </g>
        <g id="Group_663" data-name="Group 663" transform="translate(53.399 7.007)">
          <path id="Path_1245" data-name="Path 1245" d="M1003.989,887.563c-.159.266-.329.528-.507.784-4.97,7.135-16.076,10.821-31.669,10.818a141.648,141.648,0,0,1-25.278-2.556c-30.68-5.629-66.95-19.77-102.121-39.818-34.574-19.7-63.91-42.734-82.807-64.98-.33-.387-.652-.773-.974-1.157q-2.69-3.224-5.017-6.353c-13.782-18.508-17.926-34.2-11.323-43.678,4.97-7.136,16.076-10.819,31.669-10.819a141.709,141.709,0,0,1,25.279,2.556q5.314.974,10.841,2.29,6.292,1.484,12.815,3.4,4.52-2.064,9.215-3.857c.829-.318,1.659-.629,2.5-.93q-6.731-2.207-13.278-4.01c-6.98-1.926-13.779-3.505-20.339-4.708-33.111-6.078-56.608-1.877-66.152,11.827-9.085,13.037-4.137,32.663,13.895,55.551q1.38,1.755,2.862,3.532,1.657,1.99,3.426,3.984c19.549,22.1,48.69,44.716,82.695,64.1,36.052,20.546,73.368,35.067,105.07,40.886a150.883,150.883,0,0,0,27.007,2.716c18.907,0,32.455-4.938,39.145-14.544a24.138,24.138,0,0,0,2.691-5.033Z" transform="translate(-732.394 -721.831)" fill="#adcbf9"/>
        </g>
        <g id="Group_664" data-name="Group 664" transform="translate(136.212 9.564)">
          <path id="Path_1246" data-name="Path 1246" d="M882.542,998.018a17.635,17.635,0,0,1-5.506-.858c-27.841-9.134-14.968-83.635,11.28-149.1,24.275-60.542,63.5-121.83,91.5-121.83a17.645,17.645,0,0,1,5.506.858c15.855,5.2,16.821,30.865,14.839,51.478-2.648,27.547-11.924,62.215-26.119,97.618C949.768,936.73,910.543,998.018,882.542,998.018Zm97.276-264.007c-17.614,0-54.516,44.62-83.419,116.7-13.947,34.783-23.051,68.748-25.637,95.64-2.781,28.929,2.932,41.436,9.206,43.494a8.124,8.124,0,0,0,2.574.392c17.614,0,54.515-44.62,83.419-116.7,13.947-34.783,23.051-68.748,25.637-95.64,2.781-28.929-2.931-41.435-9.205-43.494A8.158,8.158,0,0,0,979.818,734.011Z" transform="translate(-861.417 -726.235)" fill="#adcbf9"/>
        </g>
        <g id="Group_665" data-name="Group 665" transform="translate(115.958 29.649)">
          <path id="Path_1247" data-name="Path 1247" d="M1037.311,851.285c-31.013,0-59.351-2.664-84.645-7.976-30.256-6.354-56.269-16.492-77.317-30.133-36.225-23.476-45.126-49-45.488-50.074l8.223-2.271c.082.242,8.688,24.474,42.869,46.409,31.768,20.387,92.7,42.907,202.612,34.413l.732,7.748Q1059.906,851.285,1037.311,851.285Z" transform="translate(-829.862 -760.83)" fill="#adcbf9"/>
        </g>
        <g id="Group_666" data-name="Group 666" transform="translate(62.774 190.441)">
          <path id="Path_1248" data-name="Path 1248" d="M977.137,1120.185a449.169,449.169,0,0,0-158.75-66.694c-42.4-8.73-70.79-7.908-71.071-7.9l-.315-7.771c1.2-.041,29.805-.868,73.294,8.086a458.3,458.3,0,0,1,161.976,68.038Z" transform="translate(-747.001 -1037.786)" fill="#adcbf9"/>
        </g>
      </g>
    </g>
    <g id="Group_669" data-name="Group 669" transform="translate(1314.453 1200.594)">
      <path id="Path_1249" data-name="Path 1249" d="M2711.839,1656.309a29.229,29.229,0,0,1-9.939,21.7,35.686,35.686,0,0,1-24,8.991H2401.455v-59.523h278.523a35.471,35.471,0,0,1,5.131.37C2700.264,1630.077,2711.839,1641.965,2711.839,1656.309Z" transform="translate(-2089.302 -1627.482)" fill="#f99746"/>
      <path id="Path_1250" data-name="Path 1250" d="M2287.581,1656.91a28.619,28.619,0,0,1-9.64,21.19l-.1.092a35.006,35.006,0,0,1-23.52,8.813H1940.225v-59.523h314.831a34.188,34.188,0,0,1,23.309,8.905A27.963,27.963,0,0,1,2287.581,1656.91Z" transform="translate(-1924.111 -1627.482)" fill="#fcecdb"/>
      <path id="Path_1251" data-name="Path 1251" d="M2304.694,1719.118a4.232,4.232,0,0,1-1.437,3.149,5.191,5.191,0,0,1-3.482,1.307h-379.73a4.707,4.707,0,0,1-4.926-4.456,4.222,4.222,0,0,1,1.445-3.148,5.181,5.181,0,0,1,3.481-1.3h379.73A4.7,4.7,0,0,1,2304.694,1719.118Z" transform="translate(-1915.119 -1664.051)" fill="#ed7d2b"/>
      <path id="Path_1252" data-name="Path 1252" d="M2304.694,1631.932a4.228,4.228,0,0,1-1.437,3.148,5.188,5.188,0,0,1-3.482,1.307h-379.73a4.707,4.707,0,0,1-4.926-4.456,4.219,4.219,0,0,1,1.445-3.148,5.18,5.18,0,0,1,3.481-1.3h379.73A4.7,4.7,0,0,1,2304.694,1631.932Z" transform="translate(-1915.119 -1627.482)" fill="#ed7d2b"/>
      <path id="Path_1253" data-name="Path 1253" d="M1940.23,1678.744l42.113,1-42.113.6Z" transform="translate(-1924.113 -1648.983)" fill="#f4d2b8"/>
      <path id="Path_1254" data-name="Path 1254" d="M1940.23,1694.829l100.189,1-100.189.6Z" transform="translate(-1924.113 -1655.73)" fill="#f4d2b8"/>
      <path id="Path_1255" data-name="Path 1255" d="M2685.108,1627.852l-90.9,59.153H2401.455v-59.523h278.523A35.471,35.471,0,0,1,2685.108,1627.852Z" transform="translate(-2089.302 -1627.482)" fill="#ed7d2b"/>
    </g>
    <g id="Group_671" data-name="Group 671" transform="translate(407.648 1190.128)">
      <g id="Group_670" data-name="Group 670" transform="translate(0)">
        <path id="Rectangle_236" data-name="Rectangle 236" d="M0,0H190.139a33.893,33.893,0,0,1,33.893,33.893v0a36.094,36.094,0,0,1-36.094,36.094H0a0,0,0,0,1,0,0V0A0,0,0,0,1,0,0Z" transform="translate(225.3)" fill="#86d1cd"/>
        <path id="Rectangle_237" data-name="Rectangle 237" d="M0,0H216.112a34.6,34.6,0,0,1,34.6,34.6v0a35.386,35.386,0,0,1-35.386,35.386H0a0,0,0,0,1,0,0V0A0,0,0,0,1,0,0Z" transform="translate(11.63)" fill="#fcecdb"/>
        <path id="Rectangle_238" data-name="Rectangle 238" d="M5.234,0H275.951a5.233,5.233,0,0,1,5.233,5.233v0a5.233,5.233,0,0,1-5.233,5.233H5.233A5.233,5.233,0,0,1,0,5.234v0A5.234,5.234,0,0,1,5.234,0Z" transform="translate(0 59.52)" fill="#86d1cd"/>
        <path id="Rectangle_239" data-name="Rectangle 239" d="M5.233,0H275.951a5.233,5.233,0,0,1,5.233,5.233v0a5.234,5.234,0,0,1-5.234,5.234H5.233A5.233,5.233,0,0,1,0,5.234v0A5.233,5.233,0,0,1,5.233,0Z" fill="#86d1cd"/>
      </g>
      <path id="Path_1256" data-name="Path 1256" d="M520.431,1669.729l30.4,1.176-30.4.708Z" transform="translate(-508.801 -1634.736)" fill="#f4d2b8"/>
      <path id="Path_1257" data-name="Path 1257" d="M520.431,1688.644l72.314,1.176-72.314.709Z" transform="translate(-508.801 -1642.669)" fill="#f4d2b8"/>
    </g>
    <g id="Group_674" data-name="Group 674" transform="translate(623.737 772.917)">
      <g id="Group_672" data-name="Group 672">
        <path id="Path_1258" data-name="Path 1258" d="M1300.6,1173.274l-28.224,303.557s-2.957,18.4,12.174,18.434c24.88.054,123.836,0,123.836,0s-18.726-3.831-18.5-12.449c.268-10.159,32.988-312.415,32.988-312.415Z" transform="translate(-994.119 -1008.089)" fill="#d86713"/>
        <path id="Path_1259" data-name="Path 1259" d="M1420.956,1485.778c-4.894.013-99.409.281-123.638,0-10.56-.119-12.41-8.493-12.5-13.912a24.675,24.675,0,0,1,.32-4.519l.734-7.889,1.871-20.109,1.651-17.766,2.124-22.83,1.789-19.27,20.055-215.7,122.277-2.87s-13.782,126.492-23.529,218.568c-1.089,10.259-2.123,20.1-3.081,29.278q-.466,4.4-.9,8.588c-.9,8.712-1.731,16.712-2.449,23.775-.38,3.723-.729,7.182-1.045,10.351-1.244,12.417-1.973,20.346-1.983,21.854a11.593,11.593,0,0,0,.238,2.458C1404.9,1485.461,1419.119,1485.778,1420.956,1485.778Z" transform="translate(-998.657 -1004.11)" fill="#ee9849"/>
        <path id="Path_1260" data-name="Path 1260" d="M853.825,890.827l68.75,249.79,9.413,34.21,32.02,116.345H1558.9L1440.875,890.827Z" transform="translate(-844.296 -890.827)" fill="#f1a34f"/>
        <path id="Path_1261" data-name="Path 1261" d="M848.507,890.827l-9.528,2.873,107.046,406.162,12.668-8.689Z" transform="translate(-838.979 -890.827)" fill="#ee9849"/>
        <path id="Path_1262" data-name="Path 1262" d="M1005.756,1589.093h591.227l16.326-8.689H1018.424Z" transform="translate(-898.711 -1180.057)" fill="#d86713"/>
        <rect id="Rectangle_240" data-name="Rectangle 240" width="128.009" height="5.502" transform="translate(442.676 487.291) rotate(180)" fill="#f1a34f"/>
        <path id="Path_1263" data-name="Path 1263" d="M1529.547,1217.4,1433.019,896.12H852.343v-5.293h588l96.205,325.861Z" transform="translate(-843.765 -890.827)" fill="#f1a34f"/>
        <path id="Path_1264" data-name="Path 1264" d="M1410.427,1595.366l-.661,4.206-120.387,22,1.652-17.766.788-8.439Z" transform="translate(-1000.291 -1186.333)" fill="#d86713"/>
        <path id="Path_1265" data-name="Path 1265" d="M1420.958,1695.7c-4.894.013-99.408.281-123.638,0-10.56-.119-12.411-8.492-12.5-13.911l119.818-20.391c-1.244,12.417-1.973,20.346-1.982,21.854a11.558,11.558,0,0,0,.238,2.458C1404.9,1695.379,1419.121,1695.7,1420.958,1695.7Z" transform="translate(-998.659 -1214.027)" fill="#e78b37"/>
        <path id="Path_1266" data-name="Path 1266" d="M1268.95,1415.3l-261.325,81.046L975.6,1380Z" transform="translate(-887.911 -1096.003)" fill="#e78b37"/>
        <path id="Path_1267" data-name="Path 1267" d="M853.823,890.827h587.051l95.25,321.751H939.354Z" transform="translate(-844.295 -890.827)" fill="#699dee"/>
      </g>
      <path id="Path_1268" data-name="Path 1268" d="M1495.689,1504.764c-1.7-7.891-10.142-14.287-18.866-14.287s-14.421,6.4-12.725,14.287,10.142,14.287,18.866,14.287S1497.384,1512.655,1495.689,1504.764Z" transform="translate(-1062.761 -1142.34)" fill="#d86713"/>
      <path id="Path_1269" data-name="Path 1269" d="M1522.006,1211.086H972.349L910.1,986.787l-4.771-17.2-4.073-14.672-9.546-34.4h541.735l10.483,34.4,4.472,14.672,5.242,17.2Z" transform="translate(-857.865 -903.278)" fill="#e9f3fe"/>
      <path id="Path_1270" data-name="Path 1270" d="M1443.929,954.915H901.257l-9.546-34.4h541.735Z" transform="translate(-857.865 -903.278)" fill="#afcdfb"/>
      <g id="Group_673" data-name="Group 673" transform="translate(56.11 28.482)">
        <path id="Path_1271" data-name="Path 1271" d="M926.545,944.185c-.655-2.375.943-4.3,3.569-4.3a6.4,6.4,0,0,1,5.94,4.3c.655,2.375-.943,4.3-3.569,4.3A6.4,6.4,0,0,1,926.545,944.185Z" transform="translate(-926.398 -939.885)" fill="#e9f3fe"/>
        <path id="Path_1272" data-name="Path 1272" d="M951.157,944.185c-.655-2.375.944-4.3,3.569-4.3a6.4,6.4,0,0,1,5.94,4.3c.655,2.375-.943,4.3-3.569,4.3A6.4,6.4,0,0,1,951.157,944.185Z" transform="translate(-935.213 -939.885)" fill="#e9f3fe"/>
        <path id="Path_1273" data-name="Path 1273" d="M977.66,944.185c-.655-2.375.943-4.3,3.569-4.3a6.4,6.4,0,0,1,5.94,4.3c.655,2.375-.943,4.3-3.569,4.3A6.4,6.4,0,0,1,977.66,944.185Z" transform="translate(-944.706 -939.885)" fill="#e9f3fe"/>
      </g>
    </g>
    <g id="Group_675" data-name="Group 675" transform="translate(750.033 1028.493)">
      <path id="Path_1274" data-name="Path 1274" d="M1035.749,1349.017c0-9.925,9.186-17.971,20.517-17.971s20.517,8.046,20.517,17.971-9.186,17.97-20.517,17.97S1035.749,1358.942,1035.749,1349.017Z" transform="translate(-1035.749 -1331.046)" fill="#699dee"/>
      <path id="Path_1275" data-name="Path 1275" d="M1063,1343.382l11.787,9.22a1.865,1.865,0,0,1-.02,3.038l-11.587,8.843c-1.489,1.136-3.813.221-3.832-1.507l-.2-18.063C1059.124,1343.153,1061.5,1342.21,1063,1343.382Z" transform="translate(-1044.128 -1336.002)" fill="#e9f3fe"/>
      <path id="Path_1276" data-name="Path 1276" d="M1550.631,1363.13a3.223,3.223,0,0,1-1.1,2.39,3.937,3.937,0,0,1-2.643,1H1128.18a3.591,3.591,0,0,1-3.744-3.387,3.22,3.22,0,0,1,1.1-2.389,3.933,3.933,0,0,1,2.642-1h418.708A3.591,3.591,0,0,1,1550.631,1363.13Z" transform="translate(-1067.513 -1343.083)" fill="#afcdfb"/>
      <path id="Path_1277" data-name="Path 1277" d="M1174.791,1359.744v6.773H1128.18a3.591,3.591,0,0,1-3.744-3.387,3.22,3.22,0,0,1,1.1-2.389,3.933,3.933,0,0,1,2.642-1Z" transform="translate(-1067.513 -1343.083)" fill="#699dee"/>
    </g>
    <path id="Path_1278" data-name="Path 1278" d="M1474.953,1185.682h-364l-41.226-134.762-3.16-10.331-2.693-8.812-6.327-20.668h358.756l6.94,20.668,2.963,8.813,3.474,10.331Z" transform="translate(-293.525 -168.36)" fill="#afcdfb"/>
    <g id="Group_677" data-name="Group 677" transform="translate(988.539 860.118)">
      <path id="Path_1279" data-name="Path 1279" d="M1544.58,1098.424H1424.9l-13.555-44.308-1.039-3.4-.885-2.9-2.08-6.8H1525.3l2.281,6.8.975,2.9,1.142,3.4Z" transform="translate(-1407.344 -1041.027)" fill="#e9f3fe"/>
      <g id="Group_676" data-name="Group 676" transform="translate(12.981 6.48)">
        <path id="Path_1280" data-name="Path 1280" d="M1484.876,1106.6h-41.5l-4.7-15.363-.36-1.177-.307-1-.721-2.356h40.9l.791,2.356.338,1,.4,1.177Z" transform="translate(-1431.051 -1066.662)" fill="#afcdfb" opacity="0.6"/>
        <path id="Path_1281" data-name="Path 1281" d="M1567.183,1106.6h-41.5l-4.7-15.363-.36-1.177-.307-1-.721-2.356h40.9l.791,2.356.338,1,.4,1.177Z" transform="translate(-1460.529 -1066.662)" fill="#afcdfb" opacity="0.6"/>
        <path id="Path_1282" data-name="Path 1282" d="M1504.488,1054.144h-75.839a1.036,1.036,0,0,1-1.08-.977h0a1.036,1.036,0,0,1,1.08-.978h75.839a1.036,1.036,0,0,1,1.08.978h0A1.035,1.035,0,0,1,1504.488,1054.144Z" transform="translate(-1427.568 -1052.189)" fill="#afcdfb"/>
        <path id="Path_1283" data-name="Path 1283" d="M1508.864,1063.233h-75.839a1.035,1.035,0,0,1-1.08-.977h0a1.035,1.035,0,0,1,1.08-.977h75.839a1.036,1.036,0,0,1,1.081.977h0A1.036,1.036,0,0,1,1508.864,1063.233Z" transform="translate(-1429.135 -1056.002)" fill="#afcdfb"/>
      </g>
    </g>
    <path id="Path_1284" data-name="Path 1284" d="M1523.893,1076.261h-85.385a1.166,1.166,0,0,1-1.216-1.1h0a1.166,1.166,0,0,1,1.216-1.1h85.385a1.167,1.167,0,0,1,1.217,1.1h0A1.167,1.167,0,0,1,1523.893,1076.261Z" transform="translate(-429.53 -194.765)" fill="#afcdfb"/>
    <g id="Group_679" data-name="Group 679" transform="translate(1010.902 929.403)">
      <path id="Path_1285" data-name="Path 1285" d="M1579.421,1217.765H1459.744l-13.555-44.308-1.039-3.4-.886-2.9-2.08-6.8h117.955l2.282,6.8.974,2.9,1.142,3.4Z" transform="translate(-1442.185 -1160.367)" fill="#e9f3fe"/>
      <g id="Group_678" data-name="Group 678" transform="translate(12.981 6.481)">
        <path id="Path_1286" data-name="Path 1286" d="M1519.718,1225.938h-41.5l-4.7-15.363-.36-1.178-.307-1-.722-2.356h40.9l.791,2.356.338,1,.4,1.178Z" transform="translate(-1465.892 -1186.003)" fill="#afcdfb" opacity="0.6"/>
        <path id="Path_1287" data-name="Path 1287" d="M1602.024,1225.938h-41.5l-4.7-15.363-.361-1.178-.307-1-.721-2.356h40.9l.791,2.356.338,1,.4,1.178Z" transform="translate(-1495.371 -1186.003)" fill="#afcdfb" opacity="0.6"/>
        <path id="Path_1288" data-name="Path 1288" d="M1539.329,1173.484H1463.49a1.036,1.036,0,0,1-1.081-.977h0a1.036,1.036,0,0,1,1.081-.977h75.839a1.036,1.036,0,0,1,1.08.977h0A1.036,1.036,0,0,1,1539.329,1173.484Z" transform="translate(-1462.409 -1171.53)" fill="#afcdfb"/>
        <path id="Path_1289" data-name="Path 1289" d="M1543.705,1182.573h-75.839a1.035,1.035,0,0,1-1.08-.977h0a1.035,1.035,0,0,1,1.08-.977h75.839a1.036,1.036,0,0,1,1.08.977h0A1.035,1.035,0,0,1,1543.705,1182.573Z" transform="translate(-1463.977 -1175.342)" fill="#afcdfb"/>
        <path id="Path_1290" data-name="Path 1290" d="M1546.9,1191.662h-75.839a1.035,1.035,0,0,1-1.08-.976h0a1.036,1.036,0,0,1,1.08-.978H1546.9a1.035,1.035,0,0,1,1.08.978h0A1.035,1.035,0,0,1,1546.9,1191.662Z" transform="translate(-1465.122 -1179.155)" fill="#afcdfb"/>
      </g>
    </g>
    <g id="Group_680" data-name="Group 680" transform="translate(466.15 1222.609)">
      <path id="Path_1291" data-name="Path 1291" d="M641.937,1665.4s-6.612,2.872-8.8,7.591a7.111,7.111,0,0,0-.686,2.64c-.365,6.271,0,20.463,0,20.463l-19.522-7.1-19.471,7.1v-19.235a11.816,11.816,0,0,1,4.773-9.493,9.043,9.043,0,0,1,5.393-1.967Z" transform="translate(-593.457 -1665.402)" fill="#f99746"/>
      <path id="Path_1292" data-name="Path 1292" d="M642.248,1665.4s-6.612,2.872-8.8,7.591l-39.122.281s1.535-6.759,9.609-7.872Z" transform="translate(-593.768 -1665.402)" fill="#ed7d2b"/>
    </g>
    <g id="Group_684" data-name="Group 684" transform="translate(1424.191 1110.567)">
      <g id="Group_682" data-name="Group 682" transform="translate(0 0)">
        <g id="Group_681" data-name="Group 681">
          <path id="Rectangle_241" data-name="Rectangle 241" d="M0,0H230.11a46.7,46.7,0,0,1,46.7,46.7v0a43.853,43.853,0,0,1-43.853,43.853H0a0,0,0,0,1,0,0V0A0,0,0,0,1,0,0Z" transform="translate(276.81 90.554) rotate(180)" fill="#b5453c"/>
          <path id="Rectangle_242" data-name="Rectangle 242" d="M0,0H263.994a45.784,45.784,0,0,1,45.784,45.784v0a44.769,44.769,0,0,1-44.769,44.769H0a0,0,0,0,1,0,0V0A0,0,0,0,1,0,0Z" transform="translate(540.818 90.554) rotate(180)" fill="#fcecdb"/>
          <rect id="Rectangle_243" data-name="Rectangle 243" width="347.427" height="13.543" rx="6.772" transform="translate(555.188 90.554) rotate(180)" fill="#b5453c"/>
          <rect id="Rectangle_244" data-name="Rectangle 244" width="347.427" height="13.543" rx="6.771" transform="translate(555.188 13.543) rotate(-180)" fill="#b5453c"/>
        </g>
        <path id="Path_1293" data-name="Path 1293" d="M2907.732,1550.4l-37.557,1.522,37.557.917Z" transform="translate(-2366.914 -1505.123)" fill="#f4d2b8"/>
        <path id="Path_1294" data-name="Path 1294" d="M2878.832,1514.5l-89.351,1.522,89.351.917Z" transform="translate(-2338.013 -1490.068)" fill="#f4d2b8"/>
      </g>
      <g id="Group_683" data-name="Group 683" transform="translate(452.388 25.656)">
        <path id="Path_1295" data-name="Path 1295" d="M2790.914,1516.6s5.9,2.872,7.849,7.591a7.819,7.819,0,0,1,.612,2.641c.325,6.271,0,20.464,0,20.464l17.41-7.1,17.364,7.1v-19.236a12.349,12.349,0,0,0-4.256-9.492,7.556,7.556,0,0,0-4.81-1.967Z" transform="translate(-2790.914 -1516.605)" fill="#b5453c"/>
        <path id="Path_1296" data-name="Path 1296" d="M2790.914,1516.6s5.9,2.872,7.849,7.591l34.889.281a10.454,10.454,0,0,0-8.569-7.873Z" transform="translate(-2790.914 -1516.605)" fill="#9e3732"/>
      </g>
    </g>
    <g id="Group_686" data-name="Group 686" transform="translate(1311.419 842.746)">
      <path id="Path_1297" data-name="Path 1297" d="M2012.766,1298.1s-12.434,6.394-15.915,6.394-17.145-2.389-20.954-.629-10.7,8.844-12,11.157c-2.325,4.16,9.364,2.323,14.89-1.221a3.781,3.781,0,0,1,2.76-.515c2.861.565,8.807,1.542,11.678.58,3.86-1.293,24.194-2.728,24.194-2.728Z" transform="translate(-1929.448 -1131.479)" fill="#e49963"/>
      <path id="Path_1298" data-name="Path 1298" d="M1988.7,1691.433s-1.339,19.532-5.517,19.813c-.555.037-21.188.037-21.188.037l-26.34-.138s.173-5.74,7.872-6.954,20.585-6.108,25.25-15.312C1973.684,1679.195,1988.7,1691.433,1988.7,1691.433Z" transform="translate(-1919.44 -1293.821)" fill="#163560"/>
      <path id="Path_1299" data-name="Path 1299" d="M2127.467,1139.7s-12.89,82.869-34.235,90.292c-10.531,3.663-57.078,11.964-70.846,12.8,0,0-3.373-2.476-2.551-12.55,0,0,48.766-16.194,55.694-25,10.31-13.107-6.4-53.546,6.536-65.856S2116.794,1121.785,2127.467,1139.7Z" transform="translate(-1949.543 -1060.19)" fill="#ed7d2b"/>
      <path id="Path_1300" data-name="Path 1300" d="M2108.474,1413.629a146.1,146.1,0,0,1-12.592,16.3c-13.855,15.82-28.935,28.864-31.563,41.194a51.615,51.615,0,0,1-2.435,7.891,97.245,97.245,0,0,1-4.018,8.864c-5.879,11.552-14.671,24.494-23.449,36.26-15.174,20.339-29.444,37.31-29.444,37.31l-26.168-1.009c1.049-2.371,12.462-30.455,27.73-64.773,6.2-13.932,12.793-28.751,19.153-43.042q1.271-2.862,2.533-5.692c1.945-4.374,3.859-8.678,5.728-12.871,14.336-32.224,25.755-57.885,25.755-57.885s57.3-19.634,63.25-6.912C2127.859,1379.75,2123.863,1390.027,2108.474,1413.629Z" transform="translate(-1934.894 -1159.527)" fill="#599dad"/>
      <path id="Path_1301" data-name="Path 1301" d="M2105.062,1599.861s18.2,10.579,16.436,14.015c-.236.457-10.294,16.752-10.294,16.752l-12.974,20.735s-5.457-2.934-2.875-9.607,4.139-19.235-2.471-27.406C2085.927,1605.755,2105.062,1599.861,2105.062,1599.861Z" transform="translate(-1975.206 -1258.048)" fill="#163560"/>
      <path id="Path_1302" data-name="Path 1302" d="M2045.2,1521.715s11.376-9.075,13.381-15.733c0,0-46.872-50.8-57.04-62.183-.466-.522-.347-1.1.269-1.725,7.677-7.828,92.959-23.744,104.106-39.43a46.316,46.316,0,0,0,7.2-15.018c2.527-9.572.529-16.183.529-16.183l-85.173-2.229s-70.916,39.941-78.947,67.174S2045.2,1521.715,2045.2,1521.715Z" transform="translate(-1924.25 -1161.307)" fill="#6bb7bf"/>
      <path id="Path_1303" data-name="Path 1303" d="M2031.23,1444.61c7.677-7.828,92.96-23.744,104.106-39.43a46.308,46.308,0,0,0,7.2-15.018v-9.751l-36.2-5.15s-10.267,28.572-40.67,39.287C2037.193,1424.585,2031.8,1442.392,2031.23,1444.61Z" transform="translate(-1953.67 -1163.844)" fill="#5aa9ad"/>
      <path id="Path_1304" data-name="Path 1304" d="M2109.084,1113.085c17.231,4.029,45.8-10.411,45.8-10.411a38.559,38.559,0,0,1-15.2-21.554c-.209-.746-.395-1.511-.565-2.3-1.8-.347-5.208-1-8.848-1.7l-13.161,10.665a93.131,93.131,0,0,0,1.947,12.039q.426,1.993.99,4.272A39.179,39.179,0,0,0,2109.084,1113.085Z" transform="translate(-1981.554 -1038.796)" fill="#e49963"/>
      <path id="Path_1305" data-name="Path 1305" d="M2159.411,1191.688c-2.468,30.025.779,75.69-2.021,83.6-2.416,6.823-29.948,2.767-40.937.489-4.068-.843-8.994-2.048-14.082-3.471-14.194-3.975-29.659-9.652-31.318-13.866a3.36,3.36,0,0,1-.154-.485,3.509,3.509,0,0,1,.03-1.766c.553-2.148,2.685-4.472,2.936-9.79.281-5.938.239-12.931.485-20.45a25.653,25.653,0,0,1,.128-2.613l0-.308c0-.162.009-.32.013-.481.238-8.385.723-17.2,1.284-25.945.358-5.492.771-10.93,1.247-16.14,1.239-13.451,2.907-25.411,5.115-32.974,3.607-12.326,11.565-20.366,18.805-26.257l5.237-4.064a33.176,33.176,0,0,0,19.005-2.29c6.764-2.906,9.1-4.988,10.279-4.2C2151.089,1121.574,2162.326,1154.982,2159.411,1191.688Z" transform="translate(-1967.843 -1052.796)" fill="#f99746"/>
      <path id="Path_1306" data-name="Path 1306" d="M2102.426,1305.476c-14.194-3.975-29.659-9.652-31.318-13.866a3.319,3.319,0,0,1-.154-.485c.009-.589.017-1.178.03-1.767.554-2.148,2.685-4.472,2.935-9.79.281-5.938.239-12.93.486-20.45a25.589,25.589,0,0,1,.128-2.613l0-.308c0-.162.009-.32.014-.481l57.379-66.123S2170.5,1262.243,2102.426,1305.476Z" transform="translate(-1967.898 -1085.968)" fill="#ed7d2b"/>
      <path id="Path_1307" data-name="Path 1307" d="M2121.579,1087.792a93.079,93.079,0,0,0,1.947,12.039c12.853-3.757,18.68-14.257,20.627-18.711-.209-.746-.4-1.511-.565-2.3-1.8-.347-5.208-1-8.849-1.7Z" transform="translate(-1986.029 -1038.796)" fill="#d68d5d"/>
      <path id="Path_1308" data-name="Path 1308" d="M2110.217,1074.49s28.027-4.231,24.846-19.978-1.707-26.9-19.736-24.863-20.282,8.618-20.633,14.107S2102.844,1075.184,2110.217,1074.49Z" transform="translate(-1976.396 -1018.781)" fill="#e49963"/>
      <g id="Group_685" data-name="Group 685" transform="translate(0 129.996)">
        <path id="Path_1390" data-name="Path 1390" d="M0,0,2.575.073,4.484,62.245l-2.575-.073Z" transform="translate(0 2.632) rotate(-18.001)" fill="#4a75cb"/>
        <path id="Path_1391" data-name="Path 1391" d="M0,0,71.4.146l.009,3.864L.009,3.864Z" transform="translate(20.937 57.308) rotate(-1.224)" fill="#4a75cb"/>
      </g>
      <path id="Path_1309" data-name="Path 1309" d="M2024.4,1334.831s-22.939,5.471-31.541,4.9-15.756-4.275-16.839-6.207-3.357-5.358,2.5-4.726,13.852,1.759,14.1.741-4.775-.921-4.775-.921-1.518-2,.394-2.069,7.487-1.441,9.558-.5,3.983,4.394,5.5,4.25,19.2-7.2,19.2-7.2Z" transform="translate(-1933.414 -1141.96)" fill="#e49963"/>
      <path id="Path_1310" data-name="Path 1310" d="M2125.2,1146.946s-2.711,83.649-23.022,93.155c-10.021,4.69-55.27,17.583-68.853,19.785,0,0-3.653-2.124-4.065-12.218,0,0,46.494-20.958,52.306-30.4,8.651-14.055-12.888-52.581-1.529-66.106S2112.409,1130.2,2125.2,1146.946Z" transform="translate(-1952.965 -1064.033)" fill="#f99746"/>
      <path id="Path_1311" data-name="Path 1311" d="M2128.652,1053.428s.321-5.4-3.364-8.5c0,0,1.284-5.417-1.085-6.31s-2.862,3.661-3.948,2.946-5.923-4.107-8-9.107-21.045,1.056-23.256,1.957-9.318-2.4-10.7-5.082a40.183,40.183,0,0,0,5.725-5c1.777-2.142,14.214-16.607,31.588-12.5s19.743,11.607,18.755,18.037S2135.768,1051.271,2128.652,1053.428Z" transform="translate(-1970.529 -1011.103)" fill="#2b478b"/>
    </g>
    <g id="Group_691" data-name="Group 691" transform="translate(1558.978 871.689)">
      <g id="Group_690" data-name="Group 690" transform="translate(0 0)">
        <path id="Path_1312" data-name="Path 1312" d="M2440.89,1203.582s8.9,11.908,13.97,36.941c4.444,21.924,8.34,30.018,14.759,34.514s42.174,17.771,42.174,17.771l-2.674,5.665s-52.407-6.455-58.295-14.378-28.33-54.733-26.587-65.514S2440.89,1203.582,2440.89,1203.582Z" transform="translate(-2341.952 -1120.779)" fill="#f4a269"/>
        <g id="Group_687" data-name="Group 687" transform="translate(224.451 311.551)">
          <path id="Path_1313" data-name="Path 1313" d="M2648.609,1630.349c-.472,4.623,6.644,5.747,14.886,6.119s5.751,1.9,17.045,3.749,15.821-.946,16.638-2.326c.727-1.224-4.523-3.14-10.12-5.3-.7-.27-1.409-.549-2.115-.828-6.3-2.5-9.832-7.614-14.743-12.351-4.651-4.487-9.067-18.853-9.067-18.853l-15.348-2.965s4.309,12.929,5.805,18.449c.88,3.246-.419,6.877-1.571,9.64A16.82,16.82,0,0,0,2648.609,1630.349Z" transform="translate(-2645.786 -1597.59)" fill="#ffb27d"/>
          <path id="Path_1314" data-name="Path 1314" d="M2665.057,1656.761c8.242.371,5.752,1.9,17.047,3.749s15.82-.946,16.637-2.326c.728-1.224-4.523-3.14-10.119-5.3l-.087.086a35.411,35.411,0,0,1-17.107.185c-7.472-1.835-14.7-5.874-19.844-7.178a16.839,16.839,0,0,0-1.411,4.671C2649.7,1655.265,2656.815,1656.39,2665.057,1656.761Z" transform="translate(-2647.349 -1617.883)" fill="#c65447"/>
        </g>
        <path id="Path_1315" data-name="Path 1315" d="M2400.893,1362.941s101.989-6.943,121.189,4.018,50,138.633,50,138.633-1.9,1.378-6.145,1.793c-3.948.387-12.643-1.713-12.643-1.713s-44.255-57.125-47.372-71.516-2.356-27.233-9.455-27.577-95.583,9.731-108.968-11.6-2.32-42.441-2.32-42.441Z" transform="translate(-2326.458 -1183.257)" fill="#163560"/>
        <g id="Group_688" data-name="Group 688" transform="translate(185.425 326.368)">
          <path id="Path_1316" data-name="Path 1316" d="M2587.807,1655.871c-.471,4.624,6.644,5.748,14.885,6.119s5.751,1.9,17.046,3.748,15.821-.945,16.638-2.326c.728-1.224-4.523-3.14-10.12-5.3-.7-.271-1.408-.55-2.114-.828-6.3-2.505-9.832-7.614-14.742-12.352-4.652-4.487-9.068-18.853-9.068-18.853l-15.348-2.965s4.309,12.93,5.806,18.45c.88,3.246-.418,6.875-1.571,9.639A16.846,16.846,0,0,0,2587.807,1655.871Z" transform="translate(-2584.984 -1623.111)" fill="#ffb27d"/>
          <path id="Path_1317" data-name="Path 1317" d="M2604.255,1682.283c8.242.371,5.751,1.9,17.045,3.748s15.821-.945,16.638-2.326c.729-1.225-4.522-3.14-10.119-5.3l-.086.086a35.415,35.415,0,0,1-17.109.185c-7.471-1.835-14.695-5.874-19.842-7.178a16.807,16.807,0,0,0-1.412,4.671C2588.9,1680.787,2596.013,1681.911,2604.255,1682.283Z" transform="translate(-2586.547 -1643.404)" fill="#c65447"/>
        </g>
        <path id="Path_1318" data-name="Path 1318" d="M2364.846,1380.3s90.6,3.878,109.315,15.507,43.991,140.288,43.991,140.288-1.958,1.31-6.218,1.576c-3.96.247-12.559-2.157-12.559-2.157s-41.764-58.639-44.26-73.13-1.183-27.294-8.261-27.888-95.929,6.358-108.386-15.425S2364.846,1380.3,2364.846,1380.3Z" transform="translate(-2310.386 -1194.901)" fill="#1c468a"/>
        <path id="Path_1319" data-name="Path 1319" d="M2382.835,1066.021c-4.02-2.4-9.011-2.937-12.527-2.961a6.345,6.345,0,0,1,2.761-.987c-2.151-.423-7.143,1.233-7.143,1.233-29.437-12.352-37.152,27.6-37.206,36.988s-.775,20.151-16.476,27.626c-30.892,14.707-7.976,45.018-7.976,45.018.224.138,20.587,24.529,20.587,24.529-.206-7.6,32.945-47.891,53.93-58.619,5.375-6.222,7.963-17.63,8.16-18.529-1.517,9.078-3.622,14.095-5.377,16.885C2399.638,1124.057,2393.491,1072.382,2382.835,1066.021Z" transform="translate(-2296.09 -1060.958)" fill="#b5453c"/>
        <path id="Path_1320" data-name="Path 1320" d="M2374.93,1179.723a112.766,112.766,0,0,1,16.874,0,58.887,58.887,0,0,1,14.644,3.324c7.985,3.019,7.147,15.806-9.608,13.438S2373.755,1183.516,2374.93,1179.723Z" transform="translate(-2324.278 -1110.637)" fill="#ffb27d"/>
        <path id="Path_1321" data-name="Path 1321" d="M2406.252,1175.489c.1.047,2.39,11-8.581,10.562-7.2-.287-22.734-8.17-21.363-13.748.652-2.651,6.094-9.53,7.188-25.232l1.312.317,22.044,5.348s-.978,6.328-1.434,12.318C2405.033,1170.084,2405.018,1174.875,2406.252,1175.489Z" transform="translate(-2324.791 -1097.077)" fill="#ffb27d"/>
        <path id="Path_1322" data-name="Path 1322" d="M2411.644,1152.966s-.978,6.328-1.435,12.318c-12.478-1.073-18.325-11.786-20.61-17.667Z" transform="translate(-2329.581 -1097.306)" fill="#f4a269"/>
        <path id="Path_1323" data-name="Path 1323" d="M2382.4,1114.126s-5.861-9.758-6.842-17.858c-.7-5.784,4.078-26.775,27.39-22.3a33.921,33.921,0,0,1,12.927,5.335c4.88,3.43,11.759,10.615,2.15,28.6l-2.6,6.116Z" transform="translate(-2324.53 -1066.153)" fill="#b5453c"/>
        <path id="Path_1324" data-name="Path 1324" d="M2413.928,1133.86s-29.608-1.342-28.4-18.008-1.8-28.062,17.155-27.91,22.164,6.729,23.257,12.38S2421.662,1133.78,2413.928,1133.86Z" transform="translate(-2328.11 -1072.275)" fill="#ffb27d"/>
        <path id="Path_1325" data-name="Path 1325" d="M2411,1085.852s-9.539,19.062-22.179,21.2-17.809-1.2-17.809-1.2,10.037-6.274,12.9-18.112C2383.9,1087.748,2405.573,1076.18,2411,1085.852Z" transform="translate(-2322.922 -1069.781)" fill="#b5453c"/>
        <path id="Path_1326" data-name="Path 1326" d="M2430,1089.083s5.726,4.729,6.887,9.061,1.181,13.108,4.018,12.981c0,0,7.081-12.92.778-20.851C2435,1081.865,2430,1089.083,2430,1089.083Z" transform="translate(-2344.051 -1071.545)" fill="#b5453c"/>
        <path id="Path_1327" data-name="Path 1327" d="M2423.479,1291.947c-2.4,2.591-9.877,3.387-17.873,4.577-6.292.939-12.9,2.118-17.6,4.615-10.673,5.668-45.545,24.825-55.766,23.953-3.963-.337-3.221-7.179-.821-16.258,3.777-14.337,11.687-34.247,11.687-42.905,0-4.725,1.738-15.905,4.059-28.689q.283-1.546.574-3.118c4.591-24.855,10.95-54.162,10.95-54.162s7.091,14,20.91,14,10.606-10.673,10.606-10.673,12.608,1.341,15.586,4.243,10.535,15.447,12.035,18.869c0,0,.305,4.354-11.612,6.426,0,0,2.9,11.818,3.246,19.694.256,5.82-4.39,24.033-5.726,35.362-.474,4.012-.536,7.161.184,8.589.921,1.83,3.9,3.652,7.3,5.44C2417.95,1285.453,2426.323,1288.867,2423.479,1291.947Z" transform="translate(-2308.035 -1110.871)" fill="#1c468a"/>
        <path id="Path_1328" data-name="Path 1328" d="M2411.213,1315.57c7.649,11.795-20.742,15.34-25.442,17.838-10.673,5.668-43.312,26.219-53.533,25.347-3.963-.337-3.221-7.179-.821-16.258,3.777-14.337,11.687-34.248,11.687-42.9,0-4.725,1.738-15.905,4.059-28.689l12.3-10.685s13.183,30.819,25.749,35.869a113.806,113.806,0,0,0,18.519,5.453c-.474,4.012-.536,7.161.184,8.589C2404.838,1311.959,2407.82,1313.781,2411.213,1315.57Z" transform="translate(-2308.035 -1144.534)" fill="#163560"/>
        <g id="Group_689" data-name="Group 689" transform="translate(118.624 144.545)">
          <rect id="Rectangle_247" data-name="Rectangle 247" width="28.533" height="3.05" transform="translate(0 35.236)" fill="#9e332e"/>
          <path id="Path_1329" data-name="Path 1329" d="M2515.92,1347.8c.28-1.009,26.23-37.868,26.23-37.868h57.741l-28.961,36.878Z" transform="translate(-2493.447 -1309.929)" fill="#9e332e"/>
          <path id="Path_1330" data-name="Path 1330" d="M2519.705,1348.215c.279-1.009,26.313-38.286,26.313-38.286h55.228l-27.553,38.286Z" transform="translate(-2494.802 -1309.929)" fill="#b5453c"/>
          <path id="Path_1331" data-name="Path 1331" d="M2592.126,1341.161a4.592,4.592,0,0,1-4.02,2.7,1.892,1.892,0,0,1-1.961-2.7,4.59,4.59,0,0,1,4.019-2.7A1.893,1.893,0,0,1,2592.126,1341.161Z" transform="translate(-2518.536 -1321.894)" fill="#9e332e"/>
        </g>
        <path id="Path_1332" data-name="Path 1332" d="M2436.1,1283.112c-1.619-.628-14.127,1.431-17.7,2.037-11.325-2.006-48.56-8.738-50.373-10.846-2.138-2.488-6.807-78.291-12.155-79.555,0,0-10.518-5.778-20.689,5.183s7.228,89.314,22.3,93.339c16.738,4.471,65.094-.716,65.094-.716h0c3.973,1.227,10.917,1.918,14.6,3.029,4.866,1.467,9.192.244,10.273-1.467S2437.994,1283.846,2436.1,1283.112Z" transform="translate(-2309.005 -1116.436)" fill="#ffb27d"/>
        <path id="Path_1333" data-name="Path 1333" d="M2354.927,1179.956s-21.6,1.762-27.876,8.19-8.107,23.842-8.107,23.842,19.023,13.891,41.944,8.5Z" transform="translate(-2304.275 -1110.869)" fill="#1c468a"/>
      </g>
    </g>
    <g id="Group_705" data-name="Group 705" transform="translate(764.027 842.748)">
      <g id="Group_704" data-name="Group 704" clip-path="url(#clip-path)">
        <g id="Group_697" data-name="Group 697" transform="translate(99.45 10.41)">
          <path id="Path_1334" data-name="Path 1334" d="M1408.287,1115.508s2.017-7.226,5.384-7.609,8.429-2.309,9.49.12-8.042,14.989-11.667,11.887S1408.287,1115.508,1408.287,1115.508Z" transform="translate(-1282.614 -1061.66)" fill="#ffb27d"/>
          <path id="Path_1335" data-name="Path 1335" d="M1343.319,1535.473a24.229,24.229,0,0,1,5.184,8.369,1.368,1.368,0,0,1-1.458,1.815h-16.5a3.235,3.235,0,0,1-3.2-2.76c-.04-2.734.381-6.864,2.933-9.371C1334.348,1529.526,1343.319,1535.473,1343.319,1535.473Z" transform="translate(-1253.627 -1240.058)" fill="#163560"/>
          <path id="Path_1336" data-name="Path 1336" d="M1391.088,1527.833s5.048,13.84,8.067,14.038c.4.027,15.022.027,15.022.027h18.859s-1.551-4.164-7.262-5.024-15.869-4.328-21.106-10.85C1399.16,1519.161,1391.088,1527.833,1391.088,1527.833Z" transform="translate(-1276.459 -1236.382)" fill="#163560"/>
          <g id="Group_692" data-name="Group 692" transform="translate(48.333 133.002)">
            <path id="Path_1337" data-name="Path 1337" d="M1320.867,1331.079c2.938,7.689,4.82,13.758,4.8,16.635-.08,12.873,28.045,70.995,28.045,70.995,9.072,3.479,19.448-.037,19.448-.037-3.078-8.051-20.2-80.125-29.284-124.094-3.82-18.46-6.409-31.376-6.409-31.376l-49.668-5.072S1310.676,1304.376,1320.867,1331.079Z" transform="translate(-1287.799 -1258.129)" fill="#2c3a64"/>
            <path id="Path_1338" data-name="Path 1338" d="M1287.8,1258.129s22.876,46.247,33.068,72.95l23.01-36.5c-3.82-18.46-6.409-31.376-6.409-31.376Z" transform="translate(-1287.799 -1258.129)" fill="#2c3a64"/>
          </g>
          <path id="Path_1339" data-name="Path 1339" d="M1305,1270.864s13.66,128.416,16.831,153.282a34.823,34.823,0,0,1-18.831-1.267s-18.882-59.672-21.016-77.648-23.487-73.546-19.874-78.715S1305,1270.864,1305,1270.864Z" transform="translate(-1230.118 -1128)" fill="#2c3a64"/>
          <path id="Path_1340" data-name="Path 1340" d="M1263.6,1085.853s5.252,11.412,5.442,14.821-11.8,5.262-17.873,2.446-5.114-5.327-5.114-5.327-2.766-11.6-2.307-12.533S1263.6,1085.853,1263.6,1085.853Z" transform="translate(-1223.671 -1052.494)" fill="#ffb27d"/>
          <path id="Path_1341" data-name="Path 1341" d="M1342.568,1114.269s-21.459,24.133-22.348,27.242c-12.321-12.988-31.276-29.277-32.136-29.911-2.424-1.785-6.781-2.868-11.19-3.526a106.761,106.761,0,0,0-13.583-1.024c-.2-.02-.309-.024-.3-.008.57,1.926-1.745,5.489-6.831,5.81-6.034.353-14.538-2.6-15.488-5.81-.048-.161-14.147.642-11.669,24.458a8.931,8.931,0,0,0,.127,1.027c.948,7.992,3.728,18.456,9.4,32.224,2.033,4.943,8.748,41.63,10.745,41.662a36.44,36.44,0,0,0,5.571,1.8c2,.514,4.618,1.092,7.831,1.638a177.027,177.027,0,0,0,29.424,2.182c23.668,0,29.668-6.1,29.668-6.1,1.272,0-13.164-29.509-20.721-54.86,7.855,4.143,16.2,8.093,17.088,8.582,3.963,2.18,6.744,3.08,8.682,3.189l.013.006a2.29,2.29,0,0,0,.263,0,4.012,4.012,0,0,0,2.552-.692c1.786-.847,4.216-2.715,6.686-6.825,3.254-5.417,7.115-16.382,10.438-23.693,1.838-4.046,3.254-8.47,5.129-12.122C1351.915,1119.525,1347.341,1115.1,1342.568,1114.269Z" transform="translate(-1218.308 -1061.751)" fill="#bc3f3f"/>
          <path id="Path_1342" data-name="Path 1342" d="M1265.848,1191.528c4.726,17.75-4.266,29.08-10.75,34.5a36.452,36.452,0,0,1-5.571-1.8c-2-.033-8.713-36.719-10.745-41.662-5.676-13.769-8.456-24.233-9.4-32.224.512-.546.817-.835.817-.835S1258.832,1165.209,1265.848,1191.528Z" transform="translate(-1218.542 -1079.57)" fill="#a02e2e"/>
          <path id="Path_1343" data-name="Path 1343" d="M1264.25,1088.714s-3.026,6.2-8.15,6.255-12.212-6.157-12.212-6.157Z" transform="translate(-1223.739 -1054.069)" fill="#e8945b"/>
          <path id="Path_1344" data-name="Path 1344" d="M1259.94,1070.329a24.112,24.112,0,0,1-5.879,3.156,9.083,9.083,0,0,1-5.794.111c-3.1-.884-7.8-2.268-9.068-2.861-2.993-1.412-3.674-4.27-4.982-8.242-1.552-4.7-3.169-8.395-3.392-11.105-.27-3.243,1.456-5.088,7.671-5.589,11.411-.917,17.062,1.728,18.314,5.271.334.951.652,1.858.941,2.717C1261.491,1064.835,1261.687,1068.753,1259.94,1070.329Z" transform="translate(-1219.051 -1035.992)" fill="#ffb27d"/>
          <path id="Path_1345" data-name="Path 1345" d="M1254.8,1045.423s-2.667-2.551-5.967-1.551-2.844,3.78-9.121,3.335-8.53-3.075-9.246-1.76.945,9.085.945,9.085-19.9-25.479,5.138-25.479c0,0,25.387-1.41,20.656,24.49Z" transform="translate(-1216.585 -1029.04)" fill="#2c3a64"/>
          <path id="Path_1346" data-name="Path 1346" d="M1354.044,1098.825l-.028.017C1354.048,1098.855,1354.044,1098.825,1354.044,1098.825Z" transform="translate(-1263.182 -1058.31)" fill="#ffb27d"/>
          <path id="Path_1347" data-name="Path 1347" d="M1358.282,1035.612c.084-.424.151-.7.151-.7A1.65,1.65,0,0,0,1358.282,1035.612Z" transform="translate(-1264.71 -1031.503)" fill="#d35c2b"/>
          <g id="Group_693" data-name="Group 693" transform="translate(129.306 22.375)">
            <path id="Path_1348" data-name="Path 1348" d="M1418.057,1127.156l-4.1-.559,11.512-59.017h0Z" transform="translate(-1413.955 -1067.579)" fill="#2c3a64"/>
          </g>
          <path id="Path_1349" data-name="Path 1349" d="M1411.389,1114.743s3.789,3.4,4.422,1.538,5.436-4,5.79-4.872-5.528-1.252-6.389-1.275S1410.777,1113.547,1411.389,1114.743Z" transform="translate(-1283.705 -1063.053)" fill="#ffb27d"/>
          <path id="Path_1350" data-name="Path 1350" d="M1260.792,1115.4a43.36,43.36,0,0,1,10.778-.353s.449,4.93-1.11,5.331a21.517,21.517,0,0,1-5.523,0C1264.252,1120.307,1260.792,1115.4,1260.792,1115.4Z" transform="translate(-1229.793 -1065.024)" fill="#1c468a"/>
          <path id="Path_1351" data-name="Path 1351" d="M1267.251,1124.377s18.251,69.342,23.106,73.756a29.452,29.452,0,0,0,8.671,5.794s3.832-4.189,3.766-6.195-30.021-73.355-30.021-73.355Z" transform="translate(-1232.107 -1069.027)" fill="#1c468a"/>
          <path id="Path_1352" data-name="Path 1352" d="M1306.588,1236.522s12.409,3.637,16.145,3.77,8.126-5.636,6.667-7.337c-.422-.492-5.839,1.766-7.384,1-2.343-1.161-5.345-.276-7.226-.075s-9.1-3.469-9.1-3.469Z" transform="translate(-1245.875 -1113.502)" fill="#ffb27d"/>
          <path id="Path_1353" data-name="Path 1353" d="M1277.559,1178.639c-20.167-12.889-34.331-19.38-38.765-21.295,1.231-9.531.68-24.686-3.919-50.309,0,0-19.569,1.963-21.662,8.151-3.016,8.919,4.083,33.746,9.966,53.605,0,0,.082.047.226.122a7.015,7.015,0,0,0,1.882,1.952c8.329,6.055,52.444,17.678,52.444,17.678C1280.933,1184.343,1277.559,1178.639,1277.559,1178.639Z" transform="translate(-1212.496 -1061.754)" fill="#bc3f3f"/>
          <g id="Group_696" data-name="Group 696" transform="translate(37.993 107.113)">
            <path id="Path_1354" data-name="Path 1354" d="M1308.852,1226.992l-33.1-8.906-1.045,4.287,35.448,9.025Z" transform="translate(-1272.77 -1215.444)" fill="#fcecdb"/>
            <path id="Path_1355" data-name="Path 1355" d="M1344.639,1213.536l-16.736,11.547,1.305,4.406,19.264-11.887Z" transform="translate(-1291.822 -1213.536)" fill="#f4d2b8"/>
            <g id="Group_694" data-name="Group 694" transform="translate(0 5.917)">
              <path id="Path_1356" data-name="Path 1356" d="M1309.451,1235.033l-37.762-10.42.124-.885,37.262,10.036Z" transform="translate(-1271.689 -1223.729)" fill="#2c3a64"/>
            </g>
            <g id="Group_695" data-name="Group 695" transform="translate(37.386 2.989)">
              <path id="Path_1357" data-name="Path 1357" d="M1330.313,1232.918l21.379-13.433-.87-.8-20.885,12.964Z" transform="translate(-1329.937 -1218.685)" fill="#2c3a64"/>
            </g>
          </g>
          <path id="Path_1358" data-name="Path 1358" d="M1254.851,1110.3s-8.655-8.128-9.36-7.593-1.6,2.329-1.179,2.836,11.592,6.208,11.592,6.208Z" transform="translate(-1223.853 -1059.927)" fill="#1c468a"/>
          <path id="Path_1359" data-name="Path 1359" d="M1277.189,1109.563s1.734-8.1,2.021-7.785,3.077,2.547,3.178,3.11-3.481,5.13-5.152,5.479S1277.189,1109.563,1277.189,1109.563Z" transform="translate(-1235.412 -1059.545)" fill="#1c468a"/>
        </g>
        <g id="Group_703" data-name="Group 703" transform="translate(1865.611 12.959)">
          <path id="Path_1360" data-name="Path 1360" d="M4198.975,1133.123s4.792-8.33,8.807-8.771,10.508-2.664,10.9.137-14.392,17.281-17.512,13.7S4198.975,1133.123,4198.975,1133.123Z" transform="translate(-4048.23 -1071.039)" fill="#ffb27d"/>
          <path id="Path_1361" data-name="Path 1361" d="M4058.154,1123.39s6.392,23.34,15.824,40.788c2.644,4.893,28.237,18.849,29.781,19.864,16.117,10.589,15.8-4.966,15.8-4.966.91-10.266-32.925-49.379-34.053-50.44-2.185-2.058-6.838-3.307-11.7-4.065A116.2,116.2,0,0,0,4058.154,1123.39Z" transform="translate(-3997.84 -1071.162)" fill="#bc3f3f"/>
          <path id="Path_1362" data-name="Path 1362" d="M3994.125,1617.324a19.758,19.758,0,0,1,3.119,9.648,2.194,2.194,0,0,1-2.3,2.092h-19.027a2.629,2.629,0,0,1-2.747-3.182c.886-3.152,2.782-7.914,6.583-10.8C3985.813,1610.467,3994.125,1617.324,3994.125,1617.324Z" transform="translate(-3967.371 -1276.723)" fill="#163560"/>
          <path id="Path_1363" data-name="Path 1363" d="M4052.773,1608.515s1.094,15.957,4.506,16.186c.455.03,17.311.03,17.311.03h21.744s-.366-4.8-6.656-5.793-16.818-4.991-20.628-12.51C4065.042,1598.517,4052.773,1608.515,4052.773,1608.515Z" transform="translate(-3995.914 -1272.486)" fill="#163560"/>
          <g id="Group_698" data-name="Group 698" transform="translate(34.54 153.345)">
            <path id="Path_1364" data-name="Path 1364" d="M4031.209,1381.667c.762,8.864.86,15.862-.145,19.18-4.487,14.84,8.087,81.853,8.087,81.853,9.271,4.011,22.435-.043,22.435-.043-.8-9.282,4.08-92.381,8.619-143.075,1.9-21.283,3.327-36.174,3.327-36.174L4018,1297.559S4028.581,1350.879,4031.209,1381.667Z" transform="translate(-4017.999 -1297.559)" fill="#e58638"/>
            <path id="Path_1365" data-name="Path 1365" d="M4018,1297.559s10.582,53.32,13.21,84.109l39-42.086c1.9-21.283,3.327-36.174,3.327-36.174Z" transform="translate(-4017.999 -1297.559)" fill="#e58638"/>
          </g>
          <path id="Path_1366" data-name="Path 1366" d="M4030.04,1312.242s-28.111,148.057-32.947,176.727a39.073,39.073,0,0,1-21.278-1.461s-1.39-68.8,2.29-89.525-1.961-84.8,3.97-90.755S4030.04,1312.242,4030.04,1312.242Z" transform="translate(-3968.258 -1147.526)" fill="#ee9849"/>
          <path id="Path_1367" data-name="Path 1367" d="M4042.2,1098.933s2.158,13.158,1.214,17.088-15.4,6.066-21.443,2.82-4.076-6.141-4.076-6.141.771-13.375,1.62-14.45S4042.2,1098.933,4042.2,1098.933Z" transform="translate(-3983.31 -1060.471)" fill="#ffb27d"/>
          <path id="Path_1368" data-name="Path 1368" d="M4064.03,1237.381s-9,7.031-36.29,7.031a190.279,190.279,0,0,1-33.18-2.516c-3.518-.629-6.341-1.3-8.468-1.888a31.792,31.792,0,0,1-5.81-2.073c-2.292-.037,2.495-42.335,1.84-48.034-1.84-15.874-1.473-27.94.164-37.153a10.494,10.494,0,0,1,.2-1.184c5.278-27.459,21.807-28.384,21.807-28.2,0,3.7,8.8,7.106,15.875,6.7,5.972-.37,9.858-4.477,9.858-6.7,0-.074,2,.222,4.951.666,15.1,2.369,23.892,22.649,23.892,49.737C4058.874,1203.076,4065.5,1237.381,4064.03,1237.381Z" transform="translate(-3969.726 -1071.144)" fill="#bc3f3f"/>
          <path id="Path_1369" data-name="Path 1369" d="M4010.27,1220.771c-.614,20.464-14.851,33.528-24.178,39.782a31.767,31.767,0,0,1-5.81-2.073c-2.292-.037,2.495-42.335,1.84-48.034-1.84-15.874-1.473-27.94.164-37.153.777-.63,1.227-.962,1.227-.962S4011.17,1190.426,4010.27,1220.771Z" transform="translate(-3969.726 -1091.689)" fill="#a02e2e"/>
          <path id="Path_1370" data-name="Path 1370" d="M4043.168,1102.231s-5.606,7.147-11.533,7.211-11.978-7.1-11.978-7.1Z" transform="translate(-3984.052 -1062.287)" fill="#e8945b"/>
          <path id="Path_1371" data-name="Path 1371" d="M4041.838,1081.034a39.646,39.646,0,0,1-7.856,3.638,10.669,10.669,0,0,1-6.718.128,94.871,94.871,0,0,1-9.478-3.3c-2.968-1.628-2.777-4.922-2.929-9.5-.183-5.422-.787-9.679-.118-12.8.8-3.739,3.417-5.866,10.753-6.444,13.47-1.057,19.081,1.993,19.315,6.078.062,1.1.117,2.142.157,3.133C4045.5,1074.7,4044.389,1079.217,4041.838,1081.034Z" transform="translate(-3982.18 -1041.445)" fill="#ffb27d"/>
          <path id="Path_1372" data-name="Path 1372" d="M4043.139,1052.318a5.942,5.942,0,0,0-6.352-1.788c-4.145,1.153-4.57,4.358-11.654,3.845s-8.785-3.545-10.06-2.029-2.012,10.475-2.012,10.475-14.244-29.377,14.625-29.377c0,0,29.752-1.626,15.452,28.236Z" transform="translate(-3980.432 -1033.429)" fill="#2c3a64"/>
          <path id="Path_1373" data-name="Path 1373" d="M3998.764,1123.355s-23.233,2.264-27.76,9.4c-6.523,10.283-6.818,38.907-6.818,61.8,0,0,9.868,6.778,16.62-3.238C3987.2,1181.838,3994.013,1164.028,3998.764,1123.355Z" transform="translate(-3964.185 -1071.147)" fill="#bc3f3f"/>
          <path id="Path_1374" data-name="Path 1374" d="M4143.589,1113.889l-.039.02A.026.026,0,0,0,4143.589,1113.889Z" transform="translate(-4028.425 -1067.177)" fill="#ffb27d"/>
          <path id="Path_1375" data-name="Path 1375" d="M4167.851,1041.007c.241-.489.414-.807.414-.807A2.519,2.519,0,0,0,4167.851,1041.007Z" transform="translate(-4037.129 -1036.269)" fill="#d35c2b"/>
          <g id="Group_699" data-name="Group 699" transform="translate(153.984 20.112)">
            <path id="Path_1376" data-name="Path 1376" d="M4208.127,1136.922l-4.035-.615,13.958-68.238,1.393.212Z" transform="translate(-4204.093 -1068.07)" fill="#2c3a64"/>
          </g>
          <path id="Path_1377" data-name="Path 1377" d="M4202.9,1134.761s5.489,1.487,5.615-.707,4.988-6.8,5.115-7.852-6.8,1.558-7.805,1.974S4201.8,1133.87,4202.9,1134.761Z" transform="translate(-4049.597 -1072.237)" fill="#ffb27d"/>
          <path id="Path_1378" data-name="Path 1378" d="M4184.285,1143.785s-3.762-5.106-8.982-6.059a248.474,248.474,0,0,1-24.837,20.477c-9.808,6.951-12.7,15.163-13.811,20.2-2.622,11.888,3.933,15.335,3.933,15.335s5.219.593,13.519-8.661c5.6-6.246,13.8-18.887,20.126-27.317C4177.733,1153.1,4180.877,1148,4184.285,1143.785Z" transform="translate(-4025.733 -1077.174)" fill="#bc3f3f"/>
          <path id="Path_1379" data-name="Path 1379" d="M4030.832,1132.995a52.1,52.1,0,0,1,12.547-.407s-1.166,5.684-3.1,6.146a24.643,24.643,0,0,1-6.367,0C4033.144,1138.657,4030.832,1132.995,4030.832,1132.995Z" transform="translate(-3988.055 -1074.918)" fill="#1c468a"/>
          <path id="Path_1380" data-name="Path 1380" d="M4035.161,1143.349s-2.641,79.949,1.45,85.037,8.018,6.681,8.018,6.681,5.849-4.83,6.458-7.143-9.559-84.574-9.559-84.574Z" transform="translate(-3989.305 -1079.533)" fill="#1c468a"/>
          <path id="Path_1381" data-name="Path 1381" d="M4045.549,1272.648s13.066,4.192,17.327,4.347,11.3-6.5,10.193-8.46c-.319-.567-7.335,2.037-8.855,1.155-2.3-1.338-6.067-.318-8.305-.087s-9.3-4-9.3-4Z" transform="translate(-3993.326 -1130.811)" fill="#ffb27d"/>
          <path id="Path_1382" data-name="Path 1382" d="M3984.6,1221.945s15.948,7.162,38.917,25.269c0,0,1.942,6.576-3.184,11.42,0,0-46.894-13.4-54.428-20.381S3977.57,1220.6,3984.6,1221.945Z" transform="translate(-3964.185 -1112.45)" fill="#bc3f3f"/>
          <g id="Group_702" data-name="Group 702" transform="translate(29.138 123.496)">
            <path id="Path_1383" data-name="Path 1383" d="M4050.785,1261.659l-35.118-10.269-2.669,4.943,37.787,10.405Z" transform="translate(-4010.805 -1248.345)" fill="#fcecdb"/>
            <path id="Path_1384" data-name="Path 1384" d="M4095.11,1246.146l-23.24,13.314v5.08l26.27-13.706Z" transform="translate(-4031.891 -1246.146)" fill="#f4d2b8"/>
            <g id="Group_700" data-name="Group 700" transform="translate(0 6.823)">
              <path id="Path_1385" data-name="Path 1385" d="M4049.561,1270.932l-39.978-12.014.445-1.02,39.533,11.571Z" transform="translate(-4009.583 -1257.897)" fill="#2c3a64"/>
            </g>
            <g id="Group_701" data-name="Group 701" transform="translate(39.979 3.446)">
              <path id="Path_1386" data-name="Path 1386" d="M4071.87,1268.492,4101.106,1253l-.729-.923-28.507,14.948Z" transform="translate(-4071.87 -1252.081)" fill="#2c3a64"/>
            </g>
          </g>
          <path id="Path_1387" data-name="Path 1387" d="M4024.936,1127.117s-7.2-9.371-8.2-8.754-2.637,2.685-2.328,3.271,11.244,7.158,11.244,7.158Z" transform="translate(-3982.159 -1069.041)" fill="#1c468a"/>
          <path id="Path_1388" data-name="Path 1388" d="M4049.779,1126.27s4.766-9.335,4.991-8.976,2.677,2.936,2.6,3.584-5.766,5.915-7.811,6.317S4049.779,1126.27,4049.779,1126.27Z" transform="translate(-3994.456 -1068.6)" fill="#1c468a"/>
        </g>
      </g>
    </g>
  </g>
</svg>
